{"glyphs":{"0":{"ha":856,"x_min":89,"x_max":768,"o":"m 428 -17 q 266 27 335 -17 q 160 145 197 71 q 106 304 124 219 q 89 486 89 389 q 98 621 89 556 q 131 755 107 686 q 191 874 154 824 q 289 956 228 924 q 428 989 350 989 q 590 945 521 989 q 697 826 660 901 q 751 667 733 751 q 768 486 768 582 q 752 316 768 397 q 700 156 736 235 q 594 31 664 78 q 428 -17 524 -17 m 428 93 q 537 128 492 93 q 603 225 582 164 q 634 349 625 286 q 643 486 643 413 q 633 629 643 564 q 599 753 622 694 q 533 846 576 813 q 428 879 489 879 q 319 844 364 879 q 251 747 274 808 q 220 622 229 685 q 211 486 211 560 q 222 342 211 408 q 255 218 232 276 q 322 126 278 160 q 428 93 365 93 m 492 422 q 479 408 492 422 q 428 394 465 394 q 364 422 390 394 q 338 485 338 449 q 364 549 338 522 q 428 576 390 576 q 492 549 465 576 q 519 485 519 522 q 492 422 519 449 z "},"1":{"ha":856,"x_min":128,"x_max":728,"o":"m 489 115 l 728 115 l 728 0 l 128 0 l 128 115 l 369 115 l 369 814 l 157 743 l 157 858 l 489 976 l 489 115 z "},"2":{"ha":856,"x_min":125,"x_max":729,"o":"m 125 0 q 142 140 125 75 q 183 247 160 204 q 250 333 207 290 q 324 401 293 376 q 410 461 356 425 q 506 535 474 508 q 568 610 538 561 q 599 711 599 658 q 554 832 599 785 q 435 879 510 879 q 305 840 356 879 q 235 733 254 801 l 129 782 q 238 931 156 874 q 435 989 321 989 q 644 913 568 989 q 721 713 721 838 q 701 597 721 649 q 638 501 682 546 q 562 431 594 457 q 464 363 529 406 q 318 241 372 299 q 257 115 264 183 l 729 115 l 729 0 l 125 0 z "},"3":{"ha":856,"x_min":114,"x_max":743,"o":"m 425 -17 q 114 211 196 -17 l 224 257 q 426 96 286 96 q 564 141 510 96 q 618 269 618 186 q 567 401 618 351 q 418 450 515 450 l 346 450 l 346 561 l 408 561 q 533 605 486 561 q 581 721 581 649 q 536 833 581 790 q 428 876 492 876 q 251 742 307 876 l 142 785 q 248 931 175 872 q 425 989 321 989 q 625 918 546 989 q 704 735 704 847 q 671 612 704 669 q 582 524 638 554 q 700 428 657 493 q 743 272 743 363 q 651 65 743 146 q 425 -17 560 -17 z "},"4":{"ha":856,"x_min":79,"x_max":779,"o":"m 525 0 l 525 246 l 79 246 l 79 313 l 550 972 l 644 972 l 644 351 l 779 351 l 779 246 l 644 246 l 644 0 l 525 0 m 525 351 l 525 774 l 232 351 l 525 351 z "},"5":{"ha":856,"x_min":115,"x_max":740,"o":"m 403 -17 q 231 18 307 -17 q 115 100 154 53 l 183 189 q 403 93 282 93 q 556 156 496 93 q 617 313 617 219 q 569 461 617 403 q 439 519 521 519 q 257 433 332 519 l 151 472 l 217 972 l 686 972 l 686 861 l 319 861 l 275 564 q 457 633 349 633 q 662 544 583 633 q 740 318 740 456 q 647 82 740 181 q 403 -17 554 -17 z "},"6":{"ha":856,"x_min":111,"x_max":744,"o":"m 432 -17 q 194 88 278 -17 q 111 360 111 193 q 251 758 111 579 q 617 989 392 938 l 617 888 q 387 751 490 853 q 257 528 283 649 q 457 607 326 607 q 663 517 581 607 q 744 304 744 426 q 654 75 744 167 q 432 -17 564 -17 m 429 93 q 572 149 517 93 q 628 293 628 206 q 574 442 628 385 q 429 500 519 500 q 285 442 342 500 q 229 293 229 383 q 286 150 229 207 q 429 93 343 93 z "},"7":{"ha":856,"x_min":132,"x_max":722,"o":"m 132 972 l 722 972 l 722 883 q 572 658 633 781 q 480 416 510 536 q 438 197 450 296 q 425 0 425 99 l 306 0 q 369 455 307 247 q 586 865 432 663 l 132 865 l 132 972 z "},"8":{"ha":856,"x_min":99,"x_max":757,"o":"m 665 67 q 618 25 665 67 q 428 -17 572 -17 q 191 67 283 -17 q 99 279 99 151 q 147 437 99 367 q 271 536 194 507 q 176 617 211 563 q 142 736 142 671 q 223 915 142 842 q 428 989 304 989 q 633 915 551 989 q 714 736 714 842 q 679 617 714 671 q 583 536 644 563 q 709 436 661 506 q 757 279 757 367 q 665 67 757 151 m 307 619 q 330 598 307 619 q 428 578 353 578 q 549 619 503 578 q 594 724 594 660 q 547 838 594 794 q 428 882 500 882 q 308 838 354 882 q 261 724 261 794 q 307 619 261 660 m 428 92 q 576 146 518 92 q 635 290 635 200 q 576 430 635 372 q 428 488 518 488 q 278 430 336 488 q 221 290 221 372 q 278 145 221 199 q 428 92 336 92 z "},"9":{"ha":856,"x_min":103,"x_max":753,"o":"m 258 -17 l 258 85 q 490 220 390 117 q 613 454 590 324 q 399 369 543 369 q 188 456 274 369 q 103 669 103 543 q 197 898 103 807 q 432 989 292 989 q 671 885 589 989 q 753 613 753 781 q 694 328 753 461 q 521 103 635 196 q 258 -17 407 11 m 426 472 q 576 530 518 472 q 635 678 635 588 q 575 822 635 764 q 426 879 515 879 q 276 822 333 879 q 219 678 219 764 q 276 529 219 586 q 426 472 332 472 z "},"\u0000":{"ha":856,"x_min":0,"x_max":0,"o":""}," ":{"ha":856,"x_min":0,"x_max":0,"o":""},"!":{"ha":856,"x_min":332,"x_max":524,"o":"m 394 268 l 369 685 l 369 989 l 490 989 l 490 685 l 464 268 l 394 268 m 496 9 q 482 -5 496 9 q 428 -19 468 -19 q 360 9 388 -19 q 332 76 332 38 q 360 144 332 115 q 428 172 388 172 q 496 144 468 172 q 524 76 524 115 q 496 9 524 38 z "},"\"":{"ha":856,"x_min":228,"x_max":628,"o":"m 228 972 l 372 972 l 344 593 l 253 593 l 228 972 m 482 972 l 628 972 l 600 593 l 508 593 l 482 972 z "},"#":{"ha":856,"x_min":24,"x_max":832,"o":"m 146 0 l 188 274 l 24 274 l 42 378 l 203 378 l 239 613 l 82 613 l 99 715 l 254 715 l 293 972 l 404 972 l 365 715 l 556 715 l 596 972 l 706 972 l 665 715 l 832 715 l 815 613 l 650 613 l 614 378 l 772 378 l 757 274 l 599 274 l 557 0 l 447 0 l 489 274 l 299 274 l 257 0 l 146 0 m 314 378 l 504 378 l 540 613 l 350 613 l 314 378 z "},"$":{"ha":856,"x_min":114,"x_max":742,"o":"m 372 -135 l 372 -11 q 210 61 278 4 q 114 197 142 118 l 226 238 q 311 134 256 172 q 439 96 367 96 q 569 138 522 96 q 617 257 617 179 q 563 381 617 332 q 417 465 510 429 q 338 499 369 485 q 266 540 306 514 q 202 594 226 565 q 161 664 178 622 q 144 754 144 706 q 205 906 144 842 q 372 985 265 971 l 372 1094 l 492 1094 l 492 983 q 624 926 571 969 q 697 818 678 882 l 588 781 q 526 849 569 822 q 421 876 483 876 q 308 844 349 876 q 268 754 268 811 q 319 655 268 693 q 467 578 369 617 q 565 532 525 554 q 649 473 604 510 q 718 382 694 436 q 742 260 742 328 q 673 72 742 144 q 492 -12 604 0 l 492 -135 l 372 -135 z "},"%":{"ha":856,"x_min":14,"x_max":842,"o":"m 146 -17 l 40 -17 l 703 989 l 810 989 l 146 -17 m 374 581 q 349 546 374 581 q 219 511 324 511 q 65 579 115 511 q 14 740 14 647 q 33 842 14 793 q 100 931 51 892 q 219 969 149 969 q 374 901 324 969 q 424 740 424 833 q 374 581 424 651 m 219 589 q 305 633 275 589 q 335 740 335 676 q 305 851 335 810 q 219 892 275 892 q 133 849 163 892 q 103 740 103 806 q 133 631 103 672 q 219 589 163 589 m 791 73 q 766 38 791 73 q 636 3 740 3 q 482 72 532 3 q 432 232 432 140 q 451 335 432 286 q 517 424 469 385 q 636 463 565 463 q 791 394 740 463 q 842 232 842 326 q 791 73 842 143 m 550 123 q 565 102 550 123 q 636 82 579 82 q 723 125 693 82 q 753 232 753 168 q 723 342 753 301 q 636 383 693 383 q 550 341 579 383 q 521 232 521 299 q 550 123 521 164 z "},"&":{"ha":856,"x_min":18,"x_max":839,"o":"m 839 0 l 689 0 l 596 113 q 294 -17 469 -17 q 94 56 169 -17 q 18 249 18 128 q 77 417 18 351 q 242 544 136 483 q 154 676 179 625 q 129 781 129 728 q 195 933 129 876 q 360 989 261 989 q 524 931 460 989 q 589 779 589 872 q 540 641 589 699 q 404 528 492 583 l 590 303 q 632 454 626 378 l 744 454 q 668 207 736 319 l 839 0 m 240 781 q 260 713 240 747 q 342 603 281 678 q 443 683 408 644 q 478 774 478 722 q 443 858 478 825 q 358 890 408 890 q 273 860 306 890 q 240 781 240 831 m 315 93 q 524 200 431 93 l 306 467 q 178 368 222 415 q 133 257 133 321 q 183 138 133 183 q 315 93 233 93 z "},"'":{"ha":856,"x_min":356,"x_max":500,"o":"m 356 972 l 500 972 l 472 593 l 381 593 l 356 972 z "},"(":{"ha":856,"x_min":278,"x_max":668,"o":"m 538 -181 q 278 394 278 43 q 356 743 278 593 q 553 989 435 893 l 668 989 q 592 910 633 960 q 504 785 551 861 q 426 606 457 710 q 396 394 396 501 q 425 185 396 286 q 501 11 454 85 q 583 -105 549 -62 q 653 -181 618 -147 l 538 -181 z "},")":{"ha":856,"x_min":188,"x_max":578,"o":"m 203 -181 q 256 -126 229 -156 q 322 -41 282 -97 q 390 76 361 15 q 439 222 418 136 q 460 394 460 307 q 429 606 460 501 q 352 785 399 710 q 264 911 306 861 q 188 989 222 961 l 303 989 q 499 743 421 893 q 578 394 578 593 q 318 -181 578 43 l 203 -181 z "},"*":{"ha":856,"x_min":108,"x_max":749,"o":"m 306 165 l 211 225 l 296 364 l 372 442 l 264 419 l 108 419 l 108 532 l 264 532 l 372 508 l 296 588 l 211 726 l 307 786 l 396 642 l 428 538 l 460 642 l 549 786 l 644 726 l 560 588 l 483 508 l 592 532 l 749 532 l 749 419 l 592 419 l 483 442 l 560 364 l 644 225 l 549 165 l 460 310 l 428 413 l 396 310 l 306 165 z "},"+":{"ha":856,"x_min":101,"x_max":754,"o":"m 488 418 l 488 150 l 367 150 l 367 418 l 101 418 l 101 533 l 367 533 l 367 803 l 488 803 l 488 533 l 754 533 l 754 418 l 488 418 z "},",":{"ha":856,"x_min":331,"x_max":528,"o":"m 390 -244 l 331 -219 q 391 -126 365 -181 q 418 -22 417 -72 q 355 6 379 -18 q 331 71 331 31 q 358 140 331 113 q 425 167 386 167 q 498 135 468 167 q 528 44 528 103 q 486 -122 528 -42 q 390 -244 444 -203 z "},"-":{"ha":856,"x_min":101,"x_max":754,"o":"m 101 356 l 101 471 l 754 471 l 754 356 l 101 356 z "},".":{"ha":856,"x_min":333,"x_max":522,"o":"m 495 9 q 482 -5 495 9 q 428 -19 468 -19 q 360 9 388 -19 q 333 75 333 38 q 360 142 333 114 q 428 169 388 169 q 495 142 468 169 q 522 75 522 114 q 495 9 522 38 z "},"/":{"ha":856,"x_min":96,"x_max":758,"o":"m 96 -181 l 642 989 l 758 989 l 213 -181 l 96 -181 z "},":":{"ha":856,"x_min":333,"x_max":522,"o":"m 495 511 q 482 497 495 511 q 428 483 468 483 q 360 511 388 483 q 333 578 333 539 q 360 644 333 615 q 428 672 388 672 q 495 644 468 672 q 522 578 522 615 q 495 511 522 539 m 495 9 q 482 -5 495 9 q 428 -19 468 -19 q 360 9 388 -19 q 333 75 333 38 q 360 142 333 114 q 428 169 388 169 q 495 142 468 169 q 522 75 522 114 q 495 9 522 38 z "},";":{"ha":856,"x_min":331,"x_max":528,"o":"m 492 511 q 479 497 492 511 q 425 483 465 483 q 358 511 385 483 q 331 578 331 539 q 358 644 331 615 q 425 672 385 672 q 492 644 465 672 q 519 578 519 615 q 492 511 519 539 m 390 -244 l 331 -219 q 391 -126 365 -181 q 418 -22 417 -72 q 355 6 379 -18 q 331 71 331 31 q 358 140 331 113 q 425 167 386 167 q 498 135 468 167 q 528 44 528 103 q 486 -122 528 -42 q 390 -244 444 -203 z "},"<":{"ha":856,"x_min":101,"x_max":754,"o":"m 754 167 l 101 431 l 101 536 l 754 800 l 754 683 l 249 483 l 754 285 l 754 167 z "},"=":{"ha":856,"x_min":101,"x_max":754,"o":"m 101 569 l 101 685 l 754 685 l 754 569 l 101 569 m 101 265 l 101 382 l 754 382 l 754 265 l 101 265 z "},">":{"ha":856,"x_min":101,"x_max":754,"o":"m 754 432 l 101 168 l 101 285 l 607 486 l 101 685 l 101 801 l 754 538 l 754 432 z "},"?":{"ha":856,"x_min":125,"x_max":731,"o":"m 360 243 l 360 279 q 385 408 360 351 q 448 499 411 464 q 522 565 485 533 q 585 638 560 597 q 611 729 611 679 q 565 835 611 793 q 436 878 518 878 q 291 828 343 878 q 239 696 239 778 l 125 696 q 210 908 125 826 q 436 989 294 989 q 652 915 574 989 q 731 726 731 840 q 712 625 731 671 q 665 551 693 579 q 605 494 638 524 q 544 438 572 464 q 498 370 517 411 q 479 279 479 329 l 479 243 l 360 243 m 485 9 q 472 -5 485 9 q 418 -19 458 -19 q 350 9 378 -19 q 322 75 322 38 q 350 141 322 113 q 418 169 378 169 q 485 142 458 169 q 513 75 513 114 q 485 9 513 38 z "},"@":{"ha":856,"x_min":44,"x_max":810,"o":"m 429 -17 q 153 113 261 -17 q 44 467 44 242 q 163 841 44 693 q 447 989 281 989 q 709 873 608 989 q 810 574 810 757 q 754 322 810 422 q 618 222 699 222 q 518 319 536 222 q 388 213 472 213 q 274 279 318 213 q 229 450 229 346 q 286 649 229 560 q 432 738 343 738 q 506 708 476 738 q 544 624 536 678 l 558 719 l 636 719 l 594 415 q 590 369 590 386 q 632 310 590 310 q 706 385 676 310 q 735 576 735 461 q 653 821 735 731 q 450 911 571 911 q 217 785 308 911 q 126 465 126 658 q 209 176 126 289 q 433 64 292 64 q 588 90 519 64 l 568 1 q 429 -17 508 -17 m 406 301 q 492 360 458 301 q 525 501 525 419 q 499 608 525 567 q 436 649 474 649 q 349 590 382 649 q 315 449 315 532 q 340 341 315 381 q 406 301 364 301 z "},"A":{"ha":856,"x_min":56,"x_max":800,"o":"m 675 0 l 600 239 l 257 239 l 183 0 l 56 0 l 376 972 l 478 972 l 800 0 l 675 0 m 290 346 l 565 346 l 453 701 q 426 796 436 756 q 401 701 421 763 l 290 346 z "},"B":{"ha":856,"x_min":133,"x_max":749,"o":"m 133 0 l 133 972 l 413 972 q 643 899 572 972 q 714 717 714 826 q 676 593 714 646 q 569 513 638 540 q 700 428 651 490 q 749 276 749 365 q 674 81 749 161 q 433 0 599 0 l 133 0 m 253 558 l 389 558 q 545 600 492 558 q 599 714 599 642 q 419 863 599 863 l 253 863 l 253 558 m 253 110 l 449 110 q 591 156 549 110 q 633 271 633 201 q 404 451 633 451 l 253 451 l 253 110 z "},"C":{"ha":856,"x_min":97,"x_max":739,"o":"m 463 -17 q 323 12 386 -17 q 219 88 260 40 q 150 201 178 136 q 110 338 122 267 q 97 486 97 408 q 133 730 97 619 q 254 915 169 840 q 463 989 339 989 q 728 817 647 989 l 622 760 q 556 847 592 817 q 463 878 519 878 q 350 842 399 878 q 274 749 301 807 q 234 624 247 690 q 221 486 221 558 q 245 297 221 382 q 326 153 269 211 q 463 94 382 94 q 632 218 574 94 l 739 178 q 634 38 703 92 q 463 -17 565 -17 z "},"D":{"ha":856,"x_min":132,"x_max":760,"o":"m 132 0 l 132 972 l 361 972 q 547 931 467 972 q 672 818 626 889 q 738 664 717 747 q 760 486 760 581 q 740 315 760 396 q 676 160 719 233 q 549 44 632 88 q 356 0 467 0 l 132 0 m 253 110 l 360 110 q 492 142 436 110 q 577 232 547 175 q 621 351 607 289 q 635 486 635 414 q 570 753 635 644 q 375 863 506 863 l 253 863 l 253 110 z "},"E":{"ha":856,"x_min":133,"x_max":732,"o":"m 133 0 l 133 972 l 703 972 l 703 858 l 253 858 l 253 560 l 560 560 l 560 446 l 253 446 l 253 114 l 732 114 l 732 0 l 133 0 z "},"F":{"ha":856,"x_min":133,"x_max":743,"o":"m 133 0 l 133 972 l 743 972 l 743 858 l 253 858 l 253 560 l 596 560 l 596 446 l 253 446 l 253 0 l 133 0 z "},"G":{"ha":856,"x_min":100,"x_max":751,"o":"m 450 -17 q 251 58 332 -17 q 135 242 169 132 q 100 486 100 353 q 190 842 100 696 q 450 989 281 989 q 617 943 556 989 q 719 819 678 897 l 614 758 q 546 846 583 814 q 450 878 508 878 q 318 815 371 878 q 245 669 265 753 q 225 486 225 585 q 282 208 225 321 q 450 94 339 94 q 579 155 532 94 q 626 315 626 215 l 626 361 l 451 361 l 451 471 l 751 471 l 751 354 q 667 81 751 179 q 450 -17 582 -17 z "},"H":{"ha":856,"x_min":133,"x_max":722,"o":"m 133 0 l 133 972 l 253 972 l 253 561 l 603 561 l 603 972 l 722 972 l 722 0 l 603 0 l 603 447 l 253 447 l 253 0 l 133 0 z "},"I":{"ha":856,"x_min":146,"x_max":710,"o":"m 710 863 l 488 863 l 488 110 l 710 110 l 710 0 l 146 0 l 146 110 l 368 110 l 368 863 l 146 863 l 146 972 l 710 972 l 710 863 z "},"J":{"ha":856,"x_min":132,"x_max":715,"o":"m 411 -17 q 132 161 206 -17 l 231 211 q 298 122 260 149 q 413 94 336 94 q 543 144 490 94 q 596 307 596 193 l 596 972 l 715 972 l 715 315 q 696 178 715 238 q 647 82 676 118 q 576 23 617 46 q 494 -8 535 0 q 411 -17 454 -17 z "},"K":{"ha":856,"x_min":133,"x_max":781,"o":"m 643 0 l 364 529 l 253 389 l 253 0 l 133 0 l 133 972 l 253 972 l 253 554 l 578 972 l 715 972 l 446 632 l 781 0 l 643 0 z "},"L":{"ha":856,"x_min":133,"x_max":715,"o":"m 133 0 l 133 972 l 253 972 l 253 115 l 715 115 l 715 0 l 133 0 z "},"M":{"ha":856,"x_min":133,"x_max":722,"o":"m 133 0 l 133 972 l 263 972 l 408 390 q 429 289 424 329 q 450 390 433 329 l 597 972 l 722 972 l 722 0 l 613 0 l 613 610 q 615 699 613 668 q 594 610 613 683 l 438 0 l 418 0 l 261 610 q 240 699 244 683 q 243 610 243 638 l 243 0 l 133 0 z "},"N":{"ha":856,"x_min":133,"x_max":722,"o":"m 133 0 l 133 972 l 251 972 l 583 290 q 608 239 606 247 q 607 292 607 265 l 607 972 l 722 972 l 722 0 l 607 0 l 274 674 q 247 726 264 690 q 250 674 250 706 l 250 0 l 133 0 z "},"O":{"ha":856,"x_min":97,"x_max":760,"o":"m 581 26 q 548 5 581 26 q 428 -17 515 -17 q 274 26 340 -17 q 171 143 208 69 q 115 303 133 217 q 97 486 97 389 q 115 669 97 583 q 171 829 133 756 q 274 946 208 903 q 428 989 340 989 q 581 946 515 989 q 685 829 647 903 q 742 669 724 756 q 760 486 760 583 q 742 303 760 389 q 685 143 724 217 q 581 26 647 69 m 428 94 q 547 156 499 94 q 615 301 596 217 q 635 486 635 386 q 584 766 635 654 q 428 878 533 878 q 308 817 356 878 q 240 672 260 757 q 221 486 221 588 q 272 206 221 318 q 428 94 322 94 z "},"P":{"ha":856,"x_min":133,"x_max":747,"o":"m 133 0 l 133 972 l 433 972 q 581 947 518 972 q 679 880 644 922 q 731 788 714 838 q 747 681 747 738 q 669 478 747 565 q 433 390 590 390 l 253 390 l 253 0 l 133 0 m 253 501 l 442 501 q 583 554 538 501 q 629 681 629 607 q 585 808 629 753 q 442 863 542 863 l 253 863 l 253 501 z "},"Q":{"ha":856,"x_min":97,"x_max":760,"o":"m 760 486 q 624 60 760 192 l 700 -56 l 615 -115 l 536 3 q 428 -17 486 -17 q 274 26 340 -17 q 171 143 208 69 q 115 303 133 217 q 97 486 97 389 q 115 669 97 583 q 171 829 133 756 q 274 946 208 903 q 428 989 340 989 q 581 946 515 989 q 685 829 647 903 q 742 669 724 756 q 760 486 760 583 m 428 94 q 471 100 453 94 l 404 199 l 492 258 l 554 164 q 635 486 635 269 q 584 766 635 654 q 428 878 533 878 q 308 817 356 878 q 240 672 260 757 q 221 486 221 588 q 272 206 221 318 q 428 94 322 94 z "},"R":{"ha":856,"x_min":133,"x_max":738,"o":"m 738 696 q 685 526 738 601 q 525 426 633 450 l 733 0 l 601 0 l 399 417 l 253 417 l 253 0 l 133 0 l 133 972 l 432 972 q 666 894 594 972 q 738 696 738 815 m 253 863 l 253 526 l 435 526 q 576 574 532 526 q 619 693 619 622 q 576 811 619 760 q 435 863 533 863 l 253 863 z "},"S":{"ha":856,"x_min":125,"x_max":728,"o":"m 435 -17 q 240 44 324 -17 q 125 199 156 106 l 236 239 q 318 133 264 172 q 440 93 372 93 q 561 135 517 93 q 606 256 606 178 q 410 467 606 382 q 317 512 354 490 q 238 567 279 533 q 176 648 197 601 q 154 753 154 694 q 228 921 154 853 q 424 989 301 989 q 592 941 522 989 q 683 817 663 893 l 574 781 q 515 851 556 824 q 419 879 475 879 q 315 845 354 879 q 276 753 276 811 q 291 693 276 719 q 338 644 306 667 q 395 608 369 622 q 469 574 421 594 q 560 526 522 550 q 641 465 599 503 q 706 376 683 428 q 728 260 728 324 q 646 57 728 131 q 435 -17 564 -17 z "},"T":{"ha":856,"x_min":89,"x_max":767,"o":"m 368 0 l 368 857 l 89 857 l 89 972 l 767 972 l 767 857 l 488 857 l 488 0 l 368 0 z "},"U":{"ha":856,"x_min":115,"x_max":742,"o":"m 428 -17 q 115 368 115 -17 l 115 972 l 235 972 l 235 368 q 428 94 235 94 q 621 368 621 94 l 621 972 l 742 972 l 742 368 q 658 76 742 168 q 428 -17 575 -17 z "},"V":{"ha":856,"x_min":57,"x_max":799,"o":"m 378 0 l 57 972 l 186 972 l 410 251 q 428 174 418 225 q 446 251 438 225 l 671 972 l 799 972 l 478 0 l 378 0 z "},"W":{"ha":856,"x_min":54,"x_max":801,"o":"m 207 0 l 54 972 l 168 972 l 258 331 q 262 298 260 319 q 265 268 264 276 q 276 331 269 300 l 388 972 l 471 972 l 582 338 q 592 281 586 315 q 599 336 593 308 l 686 972 l 801 972 l 649 0 l 551 0 l 438 638 q 433 669 436 647 q 428 703 429 690 q 418 640 422 658 l 304 0 l 207 0 z "},"X":{"ha":856,"x_min":82,"x_max":774,"o":"m 774 0 l 640 0 l 424 399 l 214 0 l 82 0 l 365 504 l 101 972 l 236 972 l 428 619 l 617 972 l 747 972 l 486 513 l 774 0 z "},"Y":{"ha":856,"x_min":89,"x_max":767,"o":"m 639 972 l 767 972 l 489 383 l 489 0 l 369 0 l 369 383 l 89 972 l 222 972 l 429 501 l 639 972 z "},"Z":{"ha":856,"x_min":115,"x_max":743,"o":"m 743 972 l 743 883 l 268 114 l 739 114 l 739 0 l 115 0 l 115 88 l 590 860 l 146 860 l 146 972 l 743 972 z "},"[":{"ha":856,"x_min":321,"x_max":632,"o":"m 321 -181 l 321 989 l 632 989 l 632 881 l 439 881 l 439 -72 l 632 -72 l 632 -181 l 321 -181 z "},"\\":{"ha":856,"x_min":142,"x_max":804,"o":"m 688 -181 l 142 989 l 258 989 l 804 -181 l 688 -181 z "},"]":{"ha":856,"x_min":314,"x_max":625,"o":"m 625 -181 l 314 -181 l 314 -72 l 507 -72 l 507 881 l 314 881 l 314 989 l 625 989 l 625 -181 z "},"^":{"ha":856,"x_min":144,"x_max":803,"o":"m 681 496 l 474 840 l 267 496 l 144 496 l 417 989 l 529 989 l 803 496 l 681 496 z "},"_":{"ha":856,"x_min":56,"x_max":800,"o":"m 56 -246 l 56 -131 l 800 -131 l 800 -246 l 56 -246 z "},"`":{"ha":856,"x_min":261,"x_max":626,"o":"m 508 800 l 261 1017 l 429 1017 l 626 800 l 508 800 z "},"a":{"ha":856,"x_min":126,"x_max":703,"o":"m 381 -17 q 196 45 265 -17 q 126 222 126 107 q 205 397 126 338 q 399 457 283 457 q 590 411 504 457 l 590 465 q 440 624 590 624 q 215 549 331 624 l 181 647 q 451 726 308 726 q 538 716 497 726 q 617 680 578 706 q 680 601 657 654 q 703 474 703 549 l 703 0 l 590 0 l 590 65 q 381 -17 501 -17 m 396 86 q 590 183 507 86 l 590 306 q 413 356 508 356 q 288 322 338 356 q 238 222 238 288 q 279 124 238 161 q 396 86 321 86 z "},"b":{"ha":856,"x_min":143,"x_max":756,"o":"m 458 -17 q 261 61 344 -17 l 261 0 l 143 0 l 143 946 l 261 1003 l 261 644 q 346 704 294 682 q 454 726 397 726 q 674 627 592 726 q 756 356 756 528 q 677 80 756 176 q 458 -17 599 -17 m 440 93 q 585 163 536 93 q 635 356 635 232 q 585 551 635 483 q 440 618 536 618 q 331 588 379 618 q 261 522 283 558 l 261 190 q 336 119 289 144 q 440 93 383 93 z "},"c":{"ha":856,"x_min":143,"x_max":714,"o":"m 443 -17 q 224 81 304 -17 q 143 354 143 179 q 225 628 143 529 q 451 726 307 726 q 707 563 644 726 l 597 522 q 450 618 556 618 q 310 549 356 618 q 264 354 264 479 q 310 161 264 229 q 447 93 356 93 q 606 200 568 93 l 714 161 q 615 30 686 76 q 443 -17 544 -17 z "},"d":{"ha":856,"x_min":100,"x_max":714,"o":"m 406 -17 q 182 83 264 -17 q 100 356 100 183 q 183 627 100 528 q 404 726 265 726 q 596 660 518 726 l 596 946 l 714 1003 l 714 0 l 596 0 l 596 58 q 406 -17 526 -17 m 421 93 q 596 190 540 93 l 596 526 q 419 618 535 618 q 272 550 324 618 q 221 356 221 482 q 275 167 221 242 q 421 93 329 93 z "},"e":{"ha":856,"x_min":117,"x_max":739,"o":"m 739 386 q 735 308 739 340 l 239 308 q 306 148 253 206 q 446 90 360 90 q 611 151 536 90 l 678 74 q 442 -17 578 -17 q 205 89 293 -17 q 117 356 117 194 q 205 628 117 529 q 442 726 293 726 q 656 640 572 726 q 739 386 739 554 m 236 411 l 621 411 q 565 572 618 524 q 442 621 513 621 q 295 565 347 621 q 236 411 243 510 z "},"f":{"ha":856,"x_min":183,"x_max":696,"o":"m 558 882 q 474 859 497 882 q 451 793 451 836 l 451 710 l 657 710 l 657 604 l 451 604 l 451 106 l 640 106 l 640 0 l 183 0 l 183 106 l 333 106 l 333 604 l 183 604 l 183 710 l 333 710 l 333 814 q 392 949 333 908 q 540 989 450 989 q 696 956 625 989 l 696 853 q 558 882 633 882 z "},"g":{"ha":856,"x_min":103,"x_max":710,"o":"m 376 -292 l 318 -197 q 533 -142 474 -187 q 592 -17 592 -97 l 592 69 q 400 -17 529 -17 q 188 81 272 -17 q 103 356 103 178 q 186 626 103 526 q 406 726 269 726 q 592 650 525 726 l 592 710 l 710 710 l 710 32 q 623 -208 710 -135 q 376 -292 536 -282 m 425 93 q 520 120 475 93 q 592 196 565 147 l 592 522 q 519 592 565 567 q 425 618 472 618 q 275 551 326 618 q 224 356 224 483 q 279 163 224 233 q 425 93 335 93 z "},"h":{"ha":856,"x_min":140,"x_max":717,"o":"m 140 0 l 140 947 l 258 1003 l 258 633 q 454 726 325 726 q 650 650 583 726 q 717 407 717 574 l 717 0 l 599 0 l 599 422 q 553 571 599 524 q 433 618 508 618 q 258 425 258 618 l 258 0 l 140 0 z "},"i":{"ha":856,"x_min":190,"x_max":700,"o":"m 444 840 q 392 862 414 840 q 371 914 371 883 q 392 968 371 946 q 444 990 414 990 q 498 968 476 990 q 519 914 519 946 q 498 861 519 882 q 444 840 476 840 m 504 106 l 700 106 l 700 0 l 190 0 l 190 106 l 386 106 l 386 604 l 190 604 l 190 710 l 504 710 l 504 106 z "},"j":{"ha":856,"x_min":225,"x_max":565,"o":"m 544 861 q 533 851 544 861 q 490 840 522 840 q 438 862 458 840 q 417 914 417 883 q 438 968 417 946 q 490 990 460 990 q 544 968 522 990 q 565 914 565 946 q 544 861 565 882 m 550 710 l 550 -24 q 485 -221 550 -157 q 282 -296 421 -285 l 225 -199 q 390 -145 347 -183 q 432 -17 432 -107 l 432 604 l 236 604 l 236 710 l 550 710 z "},"k":{"ha":856,"x_min":143,"x_max":736,"o":"m 607 0 l 388 432 l 261 303 l 261 0 l 143 0 l 143 946 l 261 1003 l 261 438 l 519 710 l 658 710 l 471 518 l 736 0 l 607 0 z "},"l":{"ha":856,"x_min":144,"x_max":686,"o":"m 486 106 l 686 106 l 686 0 l 169 0 l 169 106 l 368 106 l 368 897 l 197 897 l 144 1003 l 486 1003 l 486 106 z "},"m":{"ha":856,"x_min":69,"x_max":786,"o":"m 613 726 q 744 668 701 726 q 786 481 786 610 l 786 0 l 671 0 l 671 435 q 654 574 671 532 q 588 615 638 615 q 511 564 536 615 q 486 428 486 513 l 486 0 l 371 0 l 371 447 q 355 572 371 528 q 292 615 339 615 q 213 563 240 615 q 185 428 185 511 l 185 0 l 69 0 l 69 710 l 178 710 l 178 618 q 315 726 219 726 q 404 694 368 726 q 454 618 440 663 q 613 726 514 726 z "},"n":{"ha":856,"x_min":140,"x_max":717,"o":"m 454 726 q 650 650 583 726 q 717 407 717 574 l 717 0 l 599 0 l 599 422 q 553 571 599 524 q 433 618 508 618 q 258 425 258 618 l 258 0 l 140 0 l 140 710 l 251 710 l 251 625 q 454 726 315 726 z "},"o":{"ha":856,"x_min":96,"x_max":760,"o":"m 669 83 q 624 33 669 83 q 428 -17 579 -17 q 186 82 276 -17 q 96 354 96 181 q 186 626 96 526 q 428 726 276 726 q 670 628 581 726 q 760 356 760 529 q 669 83 760 183 m 428 93 q 583 163 528 93 q 639 356 639 233 q 585 549 639 479 q 428 618 531 618 q 271 549 325 618 q 217 354 217 481 q 272 163 217 232 q 428 93 326 93 z "},"p":{"ha":856,"x_min":143,"x_max":760,"o":"m 143 -281 l 143 710 l 261 710 l 261 649 q 451 726 342 726 q 677 626 594 726 q 760 356 760 526 q 675 83 760 182 q 456 -17 590 -17 q 261 67 333 -17 l 261 -224 l 143 -281 m 440 93 q 587 161 535 93 q 639 356 639 229 q 585 547 639 476 q 436 618 532 618 q 261 521 318 618 l 261 189 q 440 93 332 93 z "},"q":{"ha":856,"x_min":97,"x_max":714,"o":"m 596 -278 l 596 67 q 406 -17 519 -17 q 181 82 265 -17 q 97 354 97 181 q 180 626 97 526 q 407 726 263 726 q 596 649 510 726 l 596 710 l 714 710 l 714 -224 l 596 -278 m 415 93 q 596 192 517 93 l 596 521 q 422 618 539 618 q 274 544 328 618 q 219 354 219 469 q 269 160 219 226 q 415 93 319 93 z "},"r":{"ha":856,"x_min":71,"x_max":758,"o":"m 603 726 q 758 693 701 726 l 758 447 l 640 447 l 640 608 q 597 610 626 610 q 415 557 489 610 q 340 408 340 504 l 340 106 l 547 106 l 547 0 l 71 0 l 71 106 l 219 106 l 219 604 l 71 604 l 71 710 l 332 710 l 332 586 q 445 688 368 650 q 603 726 522 726 z "},"s":{"ha":856,"x_min":160,"x_max":681,"o":"m 425 -17 q 277 17 347 -17 q 160 108 207 51 l 240 179 q 433 86 325 86 q 532 110 493 86 q 571 179 571 135 q 558 226 571 206 q 513 265 544 247 q 460 294 482 283 q 390 322 438 304 q 302 361 335 344 q 234 404 269 378 q 183 464 199 431 q 167 542 167 497 q 237 676 167 625 q 415 726 307 726 q 664 617 568 726 l 585 551 q 413 624 507 624 q 313 601 350 624 q 276 542 276 579 q 315 476 276 501 q 432 421 353 451 q 443 417 439 418 q 513 388 492 397 q 574 357 535 379 q 632 314 614 335 q 665 259 650 293 q 681 183 681 225 q 612 37 681 90 q 425 -17 543 -17 z "},"t":{"ha":856,"x_min":149,"x_max":668,"o":"m 492 -17 q 311 161 311 -17 l 311 604 l 149 604 l 149 710 l 311 710 l 311 944 l 429 1003 l 429 710 l 668 710 l 668 604 l 429 604 l 429 199 q 451 119 429 146 q 532 92 472 92 q 663 131 597 92 l 649 15 q 492 -17 588 -17 z "},"u":{"ha":856,"x_min":140,"x_max":715,"o":"m 407 -17 q 206 60 272 -17 q 140 310 140 138 l 140 710 l 260 710 l 260 294 q 303 142 260 190 q 421 94 347 94 q 594 292 594 94 l 594 710 l 715 710 l 715 0 l 594 0 l 594 69 q 407 -17 528 -17 z "},"v":{"ha":856,"x_min":108,"x_max":749,"o":"m 379 0 l 108 710 l 232 710 l 407 233 q 431 163 424 194 q 454 233 436 183 l 628 710 l 749 710 l 476 0 l 379 0 z "},"w":{"ha":856,"x_min":35,"x_max":821,"o":"m 213 0 l 35 710 l 150 710 l 257 249 l 268 190 q 279 253 279 249 l 381 710 l 475 710 l 578 251 q 590 186 583 225 q 603 251 593 215 l 706 710 l 821 710 l 643 0 l 542 0 l 442 440 l 426 515 q 413 443 422 490 l 315 0 l 213 0 z "},"x":{"ha":856,"x_min":100,"x_max":756,"o":"m 100 0 l 363 367 l 117 710 l 249 710 l 393 508 q 428 456 425 461 q 442 478 429 458 q 463 508 456 499 l 607 710 l 739 710 l 493 367 l 756 0 l 624 0 l 463 225 q 442 255 456 235 q 428 278 429 275 q 410 251 422 269 q 393 225 399 233 l 232 0 l 100 0 z "},"y":{"ha":856,"x_min":107,"x_max":747,"o":"m 263 -269 l 369 19 l 107 710 l 228 710 l 401 229 q 424 158 411 203 q 431 181 426 167 q 440 208 436 196 q 447 229 444 219 l 624 710 l 747 710 l 382 -269 l 263 -269 z "},"z":{"ha":856,"x_min":161,"x_max":694,"o":"m 161 0 l 161 81 l 540 604 l 189 604 l 189 710 l 694 710 l 694 632 l 314 106 l 693 106 l 693 0 l 161 0 z "},"{":{"ha":856,"x_min":211,"x_max":644,"o":"m 607 -181 q 406 -96 481 -178 q 332 142 332 -14 l 332 218 q 307 317 332 279 q 239 354 282 354 l 211 354 l 211 456 l 239 456 q 307 493 282 456 q 332 592 332 531 l 332 667 q 406 905 332 822 q 607 989 481 988 l 644 989 l 644 886 l 607 886 q 491 835 531 885 q 451 693 451 785 l 451 610 q 418 459 451 503 q 314 407 385 415 l 314 401 q 419 350 386 392 q 451 199 451 308 l 451 115 q 491 -27 451 24 q 607 -78 531 -78 l 644 -78 l 644 -181 l 607 -181 z "},"|":{"ha":856,"x_min":369,"x_max":488,"o":"m 369 -525 l 369 1475 l 488 1475 l 488 -525 l 369 -525 z "},"}":{"ha":856,"x_min":211,"x_max":644,"o":"m 211 -181 l 211 -78 l 249 -78 q 365 -27 325 -78 q 404 115 404 24 l 404 199 q 437 350 404 308 q 542 401 469 392 l 542 407 q 438 459 472 415 q 404 610 404 503 l 404 693 q 365 835 404 785 q 249 886 325 885 l 211 886 l 211 989 l 249 989 q 450 905 376 988 q 524 667 524 822 l 524 592 q 549 493 524 531 q 617 456 574 456 l 644 456 l 644 354 l 617 354 q 549 317 574 354 q 524 218 524 279 l 524 142 q 450 -96 524 -14 q 249 -181 376 -178 l 211 -181 z "},"~":{"ha":856,"x_min":149,"x_max":799,"o":"m 619 376 q 461 419 558 376 q 324 461 364 461 q 256 438 282 461 q 226 376 229 414 l 149 376 q 192 519 149 463 q 328 575 236 575 q 489 533 392 575 q 624 490 586 490 q 692 514 665 490 q 721 575 718 538 l 799 575 q 754 433 799 489 q 619 376 710 376 z "}," ":{"ha":856,"x_min":0,"x_max":0,"o":""},"¡":{"ha":856,"x_min":332,"x_max":524,"o":"m 496 565 q 482 550 496 565 q 428 536 468 536 q 360 565 388 536 q 332 632 332 593 q 360 698 332 669 q 428 726 388 726 q 496 698 468 726 q 524 632 524 669 q 496 565 524 593 m 367 -278 l 367 24 l 408 440 l 446 440 l 486 24 l 486 -278 l 367 -278 z "},"¢":{"ha":856,"x_min":151,"x_max":703,"o":"m 378 -17 l 378 121 q 211 240 271 144 q 151 486 151 335 q 211 730 151 636 q 378 849 271 824 l 378 989 l 493 989 l 493 854 q 700 692 649 838 l 586 650 q 457 742 551 742 q 320 675 367 742 q 274 486 274 608 q 319 297 274 364 q 451 229 365 229 q 539 258 501 229 q 590 336 576 286 l 703 297 q 493 117 657 136 l 493 -17 l 378 -17 z "},"£":{"ha":856,"x_min":147,"x_max":800,"o":"m 153 0 l 153 125 q 244 229 215 154 q 276 383 274 304 l 276 406 l 147 406 l 147 507 l 250 507 q 238 530 247 513 q 226 555 229 547 q 215 579 222 563 q 205 608 208 596 q 197 638 201 619 q 192 674 193 656 q 190 715 190 693 q 271 909 190 829 q 503 989 351 989 q 783 896 661 989 l 738 786 q 685 826 706 811 q 613 858 664 840 q 503 875 561 875 q 363 828 411 875 q 315 715 315 781 q 347 590 315 663 q 382 507 379 518 l 606 507 l 606 406 l 403 406 q 401 386 403 393 q 275 113 399 231 l 800 113 l 800 0 l 153 0 z "},"¤":{"ha":856,"x_min":50,"x_max":806,"o":"m 426 119 q 231 178 310 119 l 139 85 l 50 174 l 146 271 q 99 463 99 347 q 146 656 99 574 l 50 751 l 135 839 l 228 747 q 426 807 315 807 q 625 747 539 807 l 717 839 l 806 747 l 713 654 q 757 463 757 572 q 707 267 757 346 l 806 169 l 721 85 l 626 179 q 426 119 546 119 m 426 233 q 579 297 521 233 q 638 463 638 361 q 579 628 638 563 q 426 693 521 693 q 277 628 335 693 q 219 463 219 563 q 277 298 219 363 q 426 233 335 233 z "},"¥":{"ha":856,"x_min":68,"x_max":788,"o":"m 490 442 l 692 442 l 692 344 l 488 344 l 488 254 l 692 254 l 692 157 l 488 157 l 488 0 l 369 0 l 369 157 l 151 157 l 151 254 l 369 254 l 369 344 l 151 344 l 151 442 l 365 442 l 68 972 l 201 972 l 426 549 l 660 972 l 788 972 l 490 442 z "},"¦":{"ha":856,"x_min":369,"x_max":488,"o":"m 369 508 l 369 1146 l 488 1146 l 488 508 l 369 508 m 369 -312 l 369 325 l 488 325 l 488 -312 l 369 -312 z "},"§":{"ha":856,"x_min":138,"x_max":717,"o":"m 432 -167 q 255 -131 333 -167 q 138 -43 176 -96 l 225 33 q 429 -53 304 -53 q 594 58 594 -53 q 581 109 594 86 q 537 151 567 132 q 483 181 507 169 q 415 210 460 192 q 353 235 369 228 q 290 263 310 253 q 239 292 271 272 q 192 331 207 313 q 166 378 178 349 q 154 443 154 408 q 181 535 154 496 q 253 593 208 574 q 154 779 154 654 q 231 933 154 876 q 422 989 307 989 q 689 876 597 989 l 599 804 q 422 872 533 872 q 317 847 354 872 q 279 775 279 822 q 294 729 279 750 q 345 688 308 708 q 410 656 382 668 q 497 622 438 644 q 581 587 551 601 q 647 546 611 572 q 700 481 683 519 q 717 392 717 443 q 633 243 717 286 q 717 63 717 179 q 641 -106 717 -46 q 432 -167 565 -167 m 531 297 q 594 385 594 325 q 582 426 594 407 q 554 458 569 446 q 504 487 539 471 q 447 511 469 503 q 378 536 425 519 q 306 506 332 529 q 279 447 279 482 q 286 418 279 432 q 308 392 293 404 q 338 371 322 381 q 380 351 354 361 q 426 333 406 340 q 478 315 446 326 q 531 297 510 304 z "},"¨":{"ha":856,"x_min":235,"x_max":622,"o":"m 308 833 q 256 854 278 833 q 235 907 235 875 q 256 960 235 939 q 308 982 276 982 q 362 960 340 982 q 383 907 383 939 q 362 854 383 875 q 308 833 340 833 m 547 833 q 495 854 517 833 q 474 907 474 875 q 494 960 474 939 q 547 982 515 982 q 601 960 579 982 q 622 907 622 939 q 601 854 622 875 q 547 833 579 833 z "},"©":{"ha":856,"x_min":22,"x_max":833,"o":"m 717 128 q 658 56 717 128 q 428 -17 600 -17 q 139 128 256 -17 q 22 486 22 272 q 139 844 22 700 q 428 989 256 989 q 717 844 600 989 q 833 486 833 700 q 717 128 833 272 m 203 189 q 248 129 203 189 q 428 69 293 69 q 651 189 563 69 q 740 486 740 308 q 651 783 740 665 q 428 901 563 901 q 203 783 293 901 q 114 486 114 664 q 203 189 114 308 m 435 193 q 263 274 328 193 q 199 492 199 356 q 265 706 199 622 q 443 790 332 790 q 633 646 582 790 l 538 604 q 433 690 508 690 q 337 637 369 690 q 304 492 304 583 q 438 292 304 292 q 547 389 526 292 l 638 354 q 561 235 614 276 q 435 193 508 193 z "},"ª":{"ha":856,"x_min":189,"x_max":667,"o":"m 560 393 l 560 435 q 399 379 490 379 q 247 431 304 379 q 189 576 189 482 q 258 720 189 669 q 415 771 326 771 q 560 740 492 771 l 560 761 q 530 863 560 833 q 431 892 500 892 q 268 840 333 892 l 238 932 q 444 989 314 989 q 522 982 489 989 q 592 954 556 975 q 647 888 628 933 q 667 772 667 842 l 667 393 l 560 393 m 415 474 q 494 492 454 474 q 560 533 535 510 l 560 644 q 431 676 496 676 q 338 651 375 676 q 300 576 300 626 q 331 501 300 529 q 415 474 363 474 z "},"«":{"ha":856,"x_min":113,"x_max":742,"o":"m 324 0 l 113 356 l 324 710 l 454 710 l 243 356 l 454 0 l 324 0 m 610 0 l 399 356 l 610 710 l 742 710 l 531 356 l 742 0 l 610 0 z "},"¬":{"ha":856,"x_min":101,"x_max":754,"o":"m 635 239 l 635 536 l 101 536 l 101 649 l 754 649 l 754 239 l 635 239 z "},"­":{"ha":856,"x_min":101,"x_max":754,"o":"m 101 356 l 101 471 l 754 471 l 754 356 l 101 356 z "},"®":{"ha":856,"x_min":22,"x_max":833,"o":"m 139 844 q 197 917 139 844 q 428 989 256 989 q 717 844 600 989 q 833 486 833 700 q 717 128 833 272 q 428 -17 600 -17 q 139 128 256 -17 q 22 486 22 272 q 139 844 22 700 m 203 189 q 248 129 203 189 q 428 69 293 69 q 651 189 563 69 q 740 486 740 308 q 651 783 740 665 q 428 901 563 901 q 203 783 293 901 q 114 486 114 664 q 203 189 114 308 m 644 601 q 608 492 644 540 q 511 429 571 444 l 638 203 l 524 203 l 410 422 l 342 422 l 342 203 l 240 203 l 240 769 l 475 769 q 603 717 561 769 q 644 601 644 665 m 342 678 l 342 514 l 476 514 q 526 538 507 514 q 544 599 544 563 q 526 653 544 629 q 476 678 508 678 l 342 678 z "},"¯":{"ha":856,"x_min":199,"x_max":657,"o":"m 199 839 l 199 939 l 657 939 l 657 839 l 199 839 z "},"°":{"ha":856,"x_min":189,"x_max":667,"o":"m 429 624 q 258 692 328 624 q 189 861 189 760 q 258 1028 189 961 q 429 1096 328 1096 q 598 1028 529 1096 q 667 861 667 961 q 598 692 667 760 q 429 624 529 624 m 342 771 q 360 753 342 771 q 429 735 378 735 q 514 771 481 735 q 547 861 547 807 q 514 951 547 917 q 429 986 481 986 q 342 951 378 986 q 307 861 307 915 q 342 771 307 807 z "},"±":{"ha":856,"x_min":101,"x_max":754,"o":"m 488 506 l 488 281 l 367 281 l 367 506 l 101 506 l 101 619 l 367 619 l 367 844 l 488 844 l 488 619 l 754 619 l 754 506 l 488 506 m 101 0 l 101 114 l 754 114 l 754 0 l 101 0 z "},"²":{"ha":856,"x_min":243,"x_max":599,"o":"m 243 831 q 269 939 243 894 q 333 1003 296 983 q 407 1035 369 1022 q 471 1061 444 1047 q 497 1096 497 1075 q 435 1142 497 1142 q 365 1120 394 1142 q 328 1057 336 1099 l 244 1085 q 310 1181 260 1144 q 436 1218 360 1218 q 554 1185 510 1218 q 599 1090 599 1153 q 563 1021 599 1050 q 483 978 526 992 q 400 948 439 965 q 357 911 361 931 l 597 911 l 597 831 l 243 831 z "},"³":{"ha":856,"x_min":238,"x_max":611,"o":"m 431 815 q 238 919 292 815 l 328 950 q 436 890 360 890 q 490 906 469 890 q 510 946 510 922 q 436 988 510 988 l 392 988 l 392 1061 l 424 1061 q 473 1069 458 1061 q 488 1100 488 1078 q 472 1131 488 1118 q 428 1144 456 1144 q 335 1090 368 1144 l 250 1117 q 321 1190 272 1161 q 429 1218 369 1218 q 545 1188 501 1218 q 589 1108 589 1158 q 569 1058 589 1079 q 522 1031 549 1036 q 611 939 611 1015 q 563 851 611 886 q 431 815 515 815 z "},"´":{"ha":856,"x_min":297,"x_max":663,"o":"m 297 800 l 494 1017 l 663 1017 l 415 800 l 297 800 z "},"µ":{"ha":856,"x_min":150,"x_max":706,"o":"m 588 0 l 588 69 q 404 -17 510 -17 q 268 56 314 -17 l 268 -221 l 150 -278 l 150 710 l 268 710 l 268 281 q 306 133 268 172 q 422 93 344 93 q 588 278 588 93 l 588 710 l 706 710 l 706 0 l 588 0 z "},"¶":{"ha":856,"x_min":71,"x_max":785,"o":"m 665 -178 l 665 856 l 533 856 l 533 -224 l 414 -278 l 414 385 q 154 474 238 386 q 71 681 71 563 q 147 888 71 804 q 389 972 224 972 l 785 972 l 785 -124 l 665 -178 z "},"·":{"ha":856,"x_min":333,"x_max":522,"o":"m 495 419 q 482 405 495 419 q 428 390 468 390 q 360 419 388 390 q 333 485 333 447 q 360 551 333 522 q 428 579 388 579 q 495 551 468 579 q 522 485 522 522 q 495 419 522 447 z "},"¸":{"ha":856,"x_min":281,"x_max":575,"o":"m 410 -329 q 281 -283 329 -329 l 347 -237 q 399 -254 361 -254 q 450 -235 429 -254 q 471 -187 471 -217 q 447 -142 471 -161 q 390 -124 422 -124 q 338 -135 356 -124 l 317 -107 l 413 14 l 479 14 l 426 -74 q 539 -107 503 -74 q 575 -189 575 -140 q 528 -290 575 -250 q 410 -329 482 -329 z "},"¹":{"ha":856,"x_min":310,"x_max":476,"o":"m 376 829 l 376 1067 l 310 1067 l 310 1140 q 404 1207 381 1140 l 476 1207 l 476 829 l 376 829 z "},"º":{"ha":856,"x_min":163,"x_max":692,"o":"m 426 378 q 234 459 306 378 q 163 683 163 540 q 234 908 163 826 q 426 989 306 989 q 620 908 549 989 q 692 683 692 826 q 620 459 692 540 q 426 378 549 378 m 426 482 q 542 534 503 482 q 582 683 582 586 q 542 833 582 781 q 426 886 503 886 q 315 833 356 886 q 274 683 274 779 q 315 535 274 588 q 426 482 356 482 z "},"»":{"ha":856,"x_min":113,"x_max":742,"o":"m 113 0 l 324 356 l 113 710 l 243 710 l 454 356 l 243 0 l 113 0 m 399 0 l 610 356 l 399 710 l 531 710 l 742 356 l 531 0 l 399 0 z "},"¼":{"ha":856,"x_min":60,"x_max":797,"o":"m 376 600 l 376 838 l 310 838 l 310 911 q 404 978 381 911 l 476 978 l 476 600 l 376 600 m 60 446 l 60 538 l 797 538 l 797 446 l 60 446 m 457 0 l 457 79 l 211 79 l 211 136 l 463 378 l 554 378 l 554 157 l 628 157 l 628 79 l 554 79 l 554 0 l 457 0 m 457 157 l 457 276 l 336 157 l 457 157 z "},"½":{"ha":856,"x_min":60,"x_max":797,"o":"m 376 600 l 376 838 l 310 838 l 310 911 q 404 978 381 911 l 476 978 l 476 600 l 376 600 m 60 446 l 60 538 l 797 538 l 797 446 l 60 446 m 243 0 q 269 108 243 64 q 333 172 296 153 q 407 204 369 192 q 471 231 444 217 q 497 265 497 244 q 435 311 497 311 q 365 290 394 311 q 328 226 336 268 l 244 254 q 310 351 260 314 q 436 388 360 388 q 554 355 510 388 q 599 260 599 322 q 563 190 599 219 q 483 148 526 161 q 400 117 439 135 q 357 81 361 100 l 597 81 l 597 0 l 243 0 z "},"¾":{"ha":856,"x_min":60,"x_max":797,"o":"m 431 585 q 238 689 292 585 l 328 719 q 436 660 360 660 q 490 676 469 660 q 510 715 510 692 q 436 757 510 757 l 392 757 l 392 831 l 424 831 q 473 839 458 831 q 488 869 488 847 q 472 901 488 888 q 428 914 456 914 q 335 860 368 914 l 250 886 q 321 959 272 931 q 429 988 369 988 q 545 958 501 988 q 589 878 589 928 q 569 827 589 849 q 522 800 549 806 q 611 708 611 785 q 563 620 611 656 q 431 585 515 585 m 60 446 l 60 538 l 797 538 l 797 446 l 60 446 m 457 0 l 457 79 l 211 79 l 211 136 l 463 378 l 554 378 l 554 157 l 628 157 l 628 79 l 554 79 l 554 0 l 457 0 m 457 157 l 457 276 l 336 157 l 457 157 z "},"¿":{"ha":856,"x_min":119,"x_max":735,"o":"m 433 539 q 366 567 393 539 q 339 632 339 594 q 366 698 339 669 q 433 726 393 726 q 501 698 472 726 q 531 632 531 669 q 501 567 531 594 q 433 539 472 539 m 413 -278 q 197 -203 274 -278 q 119 -8 119 -128 q 145 102 119 54 q 208 183 171 150 q 282 247 244 215 q 345 326 319 279 q 371 433 371 374 l 371 468 l 490 468 l 490 433 q 472 321 490 371 q 425 242 453 271 q 365 185 397 214 q 304 133 332 156 q 258 73 276 110 q 239 -8 239 36 q 285 -125 239 -81 q 413 -169 331 -169 q 562 -115 508 -169 q 615 38 615 -60 l 735 38 q 645 -192 735 -106 q 413 -278 556 -278 z "},"À":{"ha":856,"x_min":56,"x_max":800,"o":"m 510 1064 l 392 1064 l 144 1281 l 313 1281 l 510 1064 m 675 0 l 600 239 l 257 239 l 183 0 l 56 0 l 376 972 l 478 972 l 800 0 l 675 0 m 290 346 l 565 346 l 453 701 q 426 796 436 756 q 401 701 421 763 l 290 346 z "},"Á":{"ha":856,"x_min":56,"x_max":800,"o":"m 711 1281 l 464 1064 l 346 1064 l 543 1281 l 711 1281 m 675 0 l 600 239 l 257 239 l 183 0 l 56 0 l 376 972 l 478 972 l 800 0 l 675 0 m 290 346 l 565 346 l 453 701 q 426 796 436 756 q 401 701 421 763 l 290 346 z "},"Â":{"ha":856,"x_min":56,"x_max":800,"o":"m 426 1193 l 276 1064 l 167 1064 l 364 1281 l 490 1281 l 686 1064 l 576 1064 l 426 1193 m 675 0 l 600 239 l 257 239 l 183 0 l 56 0 l 376 972 l 478 972 l 800 0 l 675 0 m 290 346 l 565 346 l 453 701 q 426 796 436 756 q 401 701 421 763 l 290 346 z "},"Ã":{"ha":856,"x_min":56,"x_max":800,"o":"m 308 1161 q 243 1099 247 1161 l 182 1099 q 318 1261 182 1261 q 444 1227 371 1261 q 547 1193 517 1193 q 593 1209 575 1193 q 613 1256 611 1225 l 674 1256 q 538 1093 674 1093 q 412 1127 485 1093 q 308 1161 339 1161 m 675 0 l 600 239 l 257 239 l 183 0 l 56 0 l 376 972 l 478 972 l 800 0 l 675 0 m 290 346 l 565 346 l 453 701 q 426 796 436 756 q 401 701 421 763 l 290 346 z "},"Ä":{"ha":856,"x_min":56,"x_max":800,"o":"m 360 1118 q 350 1108 360 1118 q 307 1097 339 1097 q 254 1118 275 1097 q 233 1171 233 1139 q 254 1224 233 1203 q 307 1246 275 1246 q 360 1224 339 1246 q 382 1171 382 1203 q 360 1118 382 1139 m 599 1118 q 589 1108 599 1118 q 546 1097 578 1097 q 493 1118 514 1097 q 472 1171 472 1139 q 493 1224 472 1203 q 546 1246 514 1246 q 599 1224 578 1246 q 621 1171 621 1203 q 599 1118 621 1139 m 675 0 l 600 239 l 257 239 l 183 0 l 56 0 l 376 972 l 478 972 l 800 0 l 675 0 m 290 346 l 565 346 l 453 701 q 426 796 436 756 q 401 701 421 763 l 290 346 z "},"Å":{"ha":856,"x_min":56,"x_max":800,"o":"m 675 0 l 600 239 l 257 239 l 183 0 l 56 0 l 354 907 q 288 967 314 928 q 263 1053 263 1007 q 311 1166 263 1119 q 428 1213 360 1213 q 544 1166 496 1213 q 593 1053 593 1119 q 567 966 593 1006 q 500 906 542 926 l 800 0 l 675 0 m 479 1107 q 469 1117 479 1107 q 428 1128 458 1128 q 376 1107 397 1128 q 356 1053 356 1086 q 377 997 356 1019 q 428 975 399 975 q 479 997 458 975 q 500 1053 500 1019 q 479 1107 500 1086 m 290 346 l 565 346 l 453 701 q 426 796 436 756 q 401 701 421 763 l 290 346 z "},"Æ":{"ha":856,"x_min":0,"x_max":853,"o":"m 586 114 l 853 114 l 853 0 l 471 0 l 471 239 l 229 239 l 131 0 l 0 0 l 419 972 l 822 972 l 822 860 l 586 860 l 586 558 l 769 558 l 769 447 l 586 447 l 586 114 m 274 346 l 471 347 l 471 833 q 447 768 461 804 l 274 346 z "},"Ç":{"ha":856,"x_min":97,"x_max":739,"o":"m 739 178 q 482 -17 661 -6 l 447 -74 q 560 -107 524 -74 q 596 -189 596 -140 q 549 -290 596 -250 q 431 -329 503 -329 q 301 -283 350 -329 l 368 -237 q 419 -254 382 -254 q 471 -235 450 -254 q 492 -187 492 -217 q 467 -142 492 -161 q 411 -124 443 -124 q 358 -135 376 -124 l 338 -107 l 411 -14 q 230 78 303 0 q 127 259 157 156 q 97 486 97 363 q 133 730 97 619 q 254 915 169 840 q 463 989 339 989 q 728 817 647 989 l 622 760 q 556 847 592 817 q 463 878 519 878 q 350 842 399 878 q 274 749 301 807 q 234 624 247 690 q 221 486 221 558 q 245 297 221 382 q 326 153 269 211 q 463 94 382 94 q 632 218 574 94 l 739 178 z "},"È":{"ha":856,"x_min":133,"x_max":732,"o":"m 408 1064 l 161 1281 l 329 1281 l 526 1064 l 408 1064 m 133 0 l 133 972 l 703 972 l 703 858 l 253 858 l 253 560 l 560 560 l 560 446 l 253 446 l 253 114 l 732 114 l 732 0 l 133 0 z "},"É":{"ha":856,"x_min":133,"x_max":732,"o":"m 315 1071 l 513 1288 l 681 1288 l 433 1071 l 315 1071 m 133 0 l 133 972 l 703 972 l 703 858 l 253 858 l 253 560 l 560 560 l 560 446 l 253 446 l 253 114 l 732 114 l 732 0 l 133 0 z "},"Ê":{"ha":856,"x_min":133,"x_max":732,"o":"m 565 1064 l 415 1193 l 265 1064 l 156 1064 l 353 1281 l 479 1281 l 675 1064 l 565 1064 m 133 0 l 133 972 l 703 972 l 703 858 l 253 858 l 253 560 l 560 560 l 560 446 l 253 446 l 253 114 l 732 114 l 732 0 l 133 0 z "},"Ë":{"ha":856,"x_min":133,"x_max":732,"o":"m 349 1118 q 339 1108 349 1118 q 296 1097 328 1097 q 243 1118 264 1097 q 222 1171 222 1139 q 243 1224 222 1203 q 296 1246 264 1246 q 349 1224 328 1246 q 371 1171 371 1203 q 349 1118 371 1139 m 588 1118 q 577 1108 588 1118 q 535 1097 567 1097 q 482 1118 503 1097 q 461 1171 461 1139 q 482 1224 461 1203 q 535 1246 503 1246 q 588 1224 567 1246 q 610 1171 610 1203 q 588 1118 610 1139 m 133 0 l 133 972 l 703 972 l 703 858 l 253 858 l 253 560 l 560 560 l 560 446 l 253 446 l 253 114 l 732 114 l 732 0 l 133 0 z "},"Ì":{"ha":856,"x_min":136,"x_max":710,"o":"m 501 1064 l 383 1064 l 136 1281 l 304 1281 l 501 1064 m 710 863 l 488 863 l 488 110 l 710 110 l 710 0 l 146 0 l 146 110 l 368 110 l 368 863 l 146 863 l 146 972 l 710 972 l 710 863 z "},"Í":{"ha":856,"x_min":146,"x_max":717,"o":"m 717 1288 l 469 1071 l 351 1071 l 549 1288 l 717 1288 m 710 972 l 710 863 l 488 863 l 488 110 l 710 110 l 710 0 l 146 0 l 146 110 l 368 110 l 368 863 l 146 863 l 146 972 l 710 972 z "},"Î":{"ha":856,"x_min":147,"x_max":711,"o":"m 428 1193 l 278 1064 l 168 1064 l 365 1281 l 492 1281 l 688 1064 l 578 1064 l 428 1193 m 711 863 l 489 863 l 489 110 l 711 110 l 711 0 l 147 0 l 147 110 l 369 110 l 369 863 l 147 863 l 147 972 l 711 972 l 711 863 z "},"Ï":{"ha":856,"x_min":147,"x_max":711,"o":"m 308 1097 q 256 1118 278 1097 q 235 1171 235 1139 q 256 1224 235 1203 q 308 1246 276 1246 q 362 1224 340 1246 q 383 1171 383 1203 q 362 1118 383 1139 q 308 1097 340 1097 m 547 1097 q 495 1118 517 1097 q 474 1171 474 1139 q 494 1224 474 1203 q 547 1246 515 1246 q 601 1224 579 1246 q 622 1171 622 1203 q 601 1118 622 1139 q 547 1097 579 1097 m 711 863 l 489 863 l 489 110 l 711 110 l 711 0 l 147 0 l 147 110 l 369 110 l 369 863 l 147 863 l 147 972 l 711 972 l 711 863 z "},"Ð":{"ha":856,"x_min":46,"x_max":760,"o":"m 361 972 q 547 931 467 972 q 672 818 626 889 q 738 664 717 747 q 760 486 760 581 q 740 315 760 396 q 676 160 719 233 q 549 44 632 88 q 356 0 467 0 l 132 0 l 132 431 l 46 431 l 46 539 l 132 539 l 132 972 l 361 972 m 360 110 q 492 142 436 110 q 577 232 547 175 q 621 351 607 289 q 635 486 635 414 q 570 753 635 644 q 375 863 506 863 l 253 863 l 253 539 l 456 539 l 456 431 l 253 431 l 253 110 l 360 110 z "},"Ñ":{"ha":856,"x_min":133,"x_max":722,"o":"m 538 1093 q 412 1127 485 1093 q 308 1161 339 1161 q 243 1099 247 1161 l 182 1099 q 318 1261 182 1261 q 444 1227 371 1261 q 547 1193 517 1193 q 593 1209 575 1193 q 613 1256 611 1225 l 674 1256 q 538 1093 674 1093 m 133 0 l 133 972 l 251 972 l 583 290 q 608 239 606 247 q 607 292 607 265 l 607 972 l 722 972 l 722 0 l 607 0 l 274 674 q 247 726 264 690 q 250 674 250 706 l 250 0 l 133 0 z "},"Ò":{"ha":856,"x_min":97,"x_max":760,"o":"m 407 1064 l 160 1281 l 328 1281 l 525 1064 l 407 1064 m 581 26 q 548 5 581 26 q 428 -17 515 -17 q 274 26 340 -17 q 171 143 208 69 q 115 303 133 217 q 97 486 97 389 q 115 669 97 583 q 171 829 133 756 q 274 946 208 903 q 428 989 340 989 q 581 946 515 989 q 685 829 647 903 q 742 669 724 756 q 760 486 760 583 q 742 303 760 389 q 685 143 724 217 q 581 26 647 69 m 428 94 q 547 156 499 94 q 615 301 596 217 q 635 486 635 386 q 584 766 635 654 q 428 878 533 878 q 308 817 356 878 q 240 672 260 757 q 221 486 221 588 q 272 206 221 318 q 428 94 322 94 z "},"Ó":{"ha":856,"x_min":97,"x_max":760,"o":"m 344 1064 l 542 1281 l 710 1281 l 463 1064 l 344 1064 m 581 26 q 548 5 581 26 q 428 -17 515 -17 q 274 26 340 -17 q 171 143 208 69 q 115 303 133 217 q 97 486 97 389 q 115 669 97 583 q 171 829 133 756 q 274 946 208 903 q 428 989 340 989 q 581 946 515 989 q 685 829 647 903 q 742 669 724 756 q 760 486 760 583 q 742 303 760 389 q 685 143 724 217 q 581 26 647 69 m 428 94 q 547 156 499 94 q 615 301 596 217 q 635 486 635 386 q 584 766 635 654 q 428 878 533 878 q 308 817 356 878 q 240 672 260 757 q 221 486 221 588 q 272 206 221 318 q 428 94 322 94 z "},"Ô":{"ha":856,"x_min":97,"x_max":760,"o":"m 578 1064 l 428 1193 l 278 1064 l 168 1064 l 365 1281 l 492 1281 l 688 1064 l 578 1064 m 581 26 q 548 5 581 26 q 428 -17 515 -17 q 274 26 340 -17 q 171 143 208 69 q 115 303 133 217 q 97 486 97 389 q 115 669 97 583 q 171 829 133 756 q 274 946 208 903 q 428 989 340 989 q 581 946 515 989 q 685 829 647 903 q 742 669 724 756 q 760 486 760 583 q 742 303 760 389 q 685 143 724 217 q 581 26 647 69 m 428 94 q 547 156 499 94 q 615 301 596 217 q 635 486 635 386 q 584 766 635 654 q 428 878 533 878 q 308 817 356 878 q 240 672 260 757 q 221 486 221 588 q 272 206 221 318 q 428 94 322 94 z "},"Õ":{"ha":856,"x_min":97,"x_max":760,"o":"m 539 1093 q 413 1127 486 1093 q 310 1161 340 1161 q 244 1099 249 1161 l 183 1099 q 319 1261 183 1261 q 445 1227 372 1261 q 549 1193 518 1193 q 594 1209 576 1193 q 614 1256 613 1225 l 675 1256 q 539 1093 675 1093 m 581 26 q 548 5 581 26 q 428 -17 515 -17 q 274 26 340 -17 q 171 143 208 69 q 115 303 133 217 q 97 486 97 389 q 115 669 97 583 q 171 829 133 756 q 274 946 208 903 q 428 989 340 989 q 581 946 515 989 q 685 829 647 903 q 742 669 724 756 q 760 486 760 583 q 742 303 760 389 q 685 143 724 217 q 581 26 647 69 m 428 94 q 547 156 499 94 q 615 301 596 217 q 635 486 635 386 q 584 766 635 654 q 428 878 533 878 q 308 817 356 878 q 240 672 260 757 q 221 486 221 588 q 272 206 221 318 q 428 94 322 94 z "},"Ö":{"ha":856,"x_min":97,"x_max":760,"o":"m 308 1097 q 256 1118 278 1097 q 235 1171 235 1139 q 256 1224 235 1203 q 308 1246 276 1246 q 362 1224 340 1246 q 383 1171 383 1203 q 362 1118 383 1139 q 308 1097 340 1097 m 547 1097 q 495 1118 517 1097 q 474 1171 474 1139 q 494 1224 474 1203 q 547 1246 515 1246 q 601 1224 579 1246 q 622 1171 622 1203 q 601 1118 622 1139 q 547 1097 579 1097 m 581 26 q 548 5 581 26 q 428 -17 515 -17 q 274 26 340 -17 q 171 143 208 69 q 115 303 133 217 q 97 486 97 389 q 115 669 97 583 q 171 829 133 756 q 274 946 208 903 q 428 989 340 989 q 581 946 515 989 q 685 829 647 903 q 742 669 724 756 q 760 486 760 583 q 742 303 760 389 q 685 143 724 217 q 581 26 647 69 m 428 94 q 547 156 499 94 q 615 301 596 217 q 635 486 635 386 q 584 766 635 654 q 428 878 533 878 q 308 817 356 878 q 240 672 260 757 q 221 486 221 588 q 272 206 221 318 q 428 94 322 94 z "},"×":{"ha":856,"x_min":114,"x_max":742,"o":"m 431 393 l 201 161 l 114 247 l 347 478 l 115 707 l 199 788 l 428 558 l 657 789 l 742 704 l 511 475 l 740 244 l 660 163 l 431 393 z "},"Ø":{"ha":856,"x_min":32,"x_max":825,"o":"m 825 989 l 700 801 q 760 486 760 672 q 742 303 760 389 q 685 143 724 217 q 581 26 647 69 q 428 -17 515 -17 q 215 79 297 -17 l 151 -17 l 32 -17 l 157 171 q 97 486 97 300 q 115 669 97 583 q 171 829 133 756 q 274 946 208 903 q 428 989 340 989 q 640 894 557 989 l 703 989 l 825 989 m 221 486 q 240 296 221 378 l 571 790 q 428 878 517 878 q 308 817 356 878 q 240 672 260 757 q 221 486 221 588 m 635 486 q 615 676 635 594 l 285 182 q 428 94 336 94 q 547 156 499 94 q 615 301 596 217 q 635 486 635 386 z "},"Ù":{"ha":856,"x_min":115,"x_max":742,"o":"m 422 1064 l 175 1281 l 343 1281 l 540 1064 l 422 1064 m 428 -17 q 115 368 115 -17 l 115 972 l 235 972 l 235 368 q 428 94 235 94 q 621 368 621 94 l 621 972 l 742 972 l 742 368 q 658 76 742 168 q 428 -17 575 -17 z "},"Ú":{"ha":856,"x_min":115,"x_max":742,"o":"m 326 1071 l 524 1288 l 692 1288 l 444 1071 l 326 1071 m 428 -17 q 115 368 115 -17 l 115 972 l 235 972 l 235 368 q 428 94 235 94 q 621 368 621 94 l 621 972 l 742 972 l 742 368 q 658 76 742 168 q 428 -17 575 -17 z "},"Û":{"ha":856,"x_min":115,"x_max":742,"o":"m 578 1064 l 428 1193 l 278 1064 l 168 1064 l 365 1281 l 492 1281 l 688 1064 l 578 1064 m 428 -17 q 115 368 115 -17 l 115 972 l 235 972 l 235 368 q 428 94 235 94 q 621 368 621 94 l 621 972 l 742 972 l 742 368 q 658 76 742 168 q 428 -17 575 -17 z "},"Ü":{"ha":856,"x_min":115,"x_max":742,"o":"m 308 1097 q 256 1118 278 1097 q 235 1171 235 1139 q 256 1224 235 1203 q 308 1246 276 1246 q 362 1224 340 1246 q 383 1171 383 1203 q 362 1118 383 1139 q 308 1097 340 1097 m 547 1097 q 495 1118 517 1097 q 474 1171 474 1139 q 494 1224 474 1203 q 547 1246 515 1246 q 601 1224 579 1246 q 622 1171 622 1203 q 601 1118 622 1139 q 547 1097 579 1097 m 428 -17 q 115 368 115 -17 l 115 972 l 235 972 l 235 368 q 428 94 235 94 q 621 368 621 94 l 621 972 l 742 972 l 742 368 q 658 76 742 168 q 428 -17 575 -17 z "},"Ý":{"ha":856,"x_min":89,"x_max":767,"o":"m 707 1288 l 460 1071 l 342 1071 l 539 1288 l 707 1288 m 639 972 l 767 972 l 489 383 l 489 0 l 369 0 l 369 383 l 89 972 l 222 972 l 429 501 l 639 972 z "},"Þ":{"ha":856,"x_min":133,"x_max":747,"o":"m 133 0 l 133 972 l 253 972 l 253 785 l 435 785 q 672 701 597 785 q 747 493 747 617 q 730 391 747 440 q 677 299 713 342 q 579 229 642 256 q 435 203 517 203 l 253 203 l 253 0 l 133 0 m 442 314 q 583 367 538 314 q 629 493 629 419 q 585 619 629 564 q 442 675 542 675 l 253 675 l 253 314 l 442 314 z "},"ß":{"ha":856,"x_min":131,"x_max":742,"o":"m 131 -281 l 131 661 q 213 908 131 828 q 413 989 296 989 q 615 919 538 989 q 692 735 692 849 q 659 612 692 665 q 561 535 626 558 q 694 442 647 506 q 742 292 742 378 q 660 67 742 151 q 451 -17 578 -17 q 332 8 378 -17 l 386 97 q 450 88 415 88 q 569 140 517 88 q 621 286 621 192 q 569 420 621 365 q 411 475 518 475 l 394 475 l 394 579 l 411 579 q 528 617 485 579 q 571 729 571 654 q 530 842 571 800 q 414 885 489 885 q 294 831 339 885 q 249 665 249 776 l 249 -222 l 131 -281 z "},"à":{"ha":856,"x_min":126,"x_max":703,"o":"m 422 800 l 175 1017 l 343 1017 l 540 800 l 422 800 m 381 -17 q 196 45 265 -17 q 126 222 126 107 q 205 397 126 338 q 399 457 283 457 q 590 411 504 457 l 590 465 q 440 624 590 624 q 215 549 331 624 l 181 647 q 451 726 308 726 q 538 716 497 726 q 617 680 578 706 q 680 601 657 654 q 703 474 703 549 l 703 0 l 590 0 l 590 65 q 381 -17 501 -17 m 396 86 q 590 183 507 86 l 590 306 q 413 356 508 356 q 288 322 338 356 q 238 222 238 288 q 279 124 238 161 q 396 86 321 86 z "},"á":{"ha":856,"x_min":126,"x_max":715,"o":"m 350 800 l 547 1017 l 715 1017 l 468 800 l 350 800 m 381 -17 q 196 45 265 -17 q 126 222 126 107 q 205 397 126 338 q 399 457 283 457 q 590 411 504 457 l 590 465 q 440 624 590 624 q 215 549 331 624 l 181 647 q 451 726 308 726 q 538 716 497 726 q 617 680 578 706 q 680 601 657 654 q 703 474 703 549 l 703 0 l 590 0 l 590 65 q 381 -17 501 -17 m 396 86 q 590 183 507 86 l 590 306 q 413 356 508 356 q 288 322 338 356 q 238 222 238 288 q 279 124 238 161 q 396 86 321 86 z "},"â":{"ha":856,"x_min":126,"x_max":703,"o":"m 588 800 l 438 929 l 288 800 l 178 800 l 375 1017 l 501 1017 l 697 800 l 588 800 m 381 -17 q 196 45 265 -17 q 126 222 126 107 q 205 397 126 338 q 399 457 283 457 q 590 411 504 457 l 590 465 q 440 624 590 624 q 215 549 331 624 l 181 647 q 451 726 308 726 q 538 716 497 726 q 617 680 578 706 q 680 601 657 654 q 703 474 703 549 l 703 0 l 590 0 l 590 65 q 381 -17 501 -17 m 396 86 q 590 183 507 86 l 590 306 q 413 356 508 356 q 288 322 338 356 q 238 222 238 288 q 279 124 238 161 q 396 86 321 86 z "},"ã":{"ha":856,"x_min":126,"x_max":703,"o":"m 558 829 q 433 863 506 829 q 329 897 360 897 q 264 835 268 897 l 203 835 q 339 997 203 997 q 465 963 392 997 q 568 929 538 929 q 614 945 596 929 q 633 992 632 961 l 694 992 q 558 829 694 829 m 381 -17 q 196 45 265 -17 q 126 222 126 107 q 205 397 126 338 q 399 457 283 457 q 590 411 504 457 l 590 465 q 440 624 590 624 q 215 549 331 624 l 181 647 q 451 726 308 726 q 538 716 497 726 q 617 680 578 706 q 680 601 657 654 q 703 474 703 549 l 703 0 l 590 0 l 590 65 q 381 -17 501 -17 m 396 86 q 590 183 507 86 l 590 306 q 413 356 508 356 q 288 322 338 356 q 238 222 238 288 q 279 124 238 161 q 396 86 321 86 z "},"ä":{"ha":856,"x_min":126,"x_max":703,"o":"m 391 854 q 380 844 391 854 q 338 833 369 833 q 285 854 306 833 q 264 907 264 875 q 285 960 264 939 q 338 982 306 982 q 391 960 369 982 q 413 907 413 939 q 391 854 413 875 m 630 854 q 619 844 630 854 q 576 833 608 833 q 524 854 544 833 q 503 907 503 875 q 524 960 503 939 q 576 982 544 982 q 630 960 608 982 q 651 907 651 939 q 630 854 651 875 m 381 -17 q 196 45 265 -17 q 126 222 126 107 q 205 397 126 338 q 399 457 283 457 q 590 411 504 457 l 590 465 q 440 624 590 624 q 215 549 331 624 l 181 647 q 451 726 308 726 q 538 716 497 726 q 617 680 578 706 q 680 601 657 654 q 703 474 703 549 l 703 0 l 590 0 l 590 65 q 381 -17 501 -17 m 396 86 q 590 183 507 86 l 590 306 q 413 356 508 356 q 288 322 338 356 q 238 222 238 288 q 279 124 238 161 q 396 86 321 86 z "},"å":{"ha":856,"x_min":126,"x_max":703,"o":"m 453 793 q 337 842 386 793 q 288 957 288 890 q 336 1070 288 1024 q 453 1117 385 1117 q 569 1070 521 1117 q 618 957 618 1024 q 569 842 618 890 q 453 793 521 793 m 453 879 q 504 901 483 879 q 525 957 525 924 q 504 1011 525 990 q 453 1032 483 1032 q 401 1011 422 1032 q 381 957 381 990 q 402 901 381 924 q 453 879 424 879 m 381 -17 q 196 45 265 -17 q 126 222 126 107 q 205 397 126 338 q 399 457 283 457 q 590 411 504 457 l 590 465 q 440 624 590 624 q 215 549 331 624 l 181 647 q 451 726 308 726 q 538 716 497 726 q 617 680 578 706 q 680 601 657 654 q 703 474 703 549 l 703 0 l 590 0 l 590 65 q 381 -17 501 -17 m 396 86 q 590 183 507 86 l 590 306 q 413 356 508 356 q 288 322 338 356 q 238 222 238 288 q 279 124 238 161 q 396 86 321 86 z "},"æ":{"ha":856,"x_min":38,"x_max":817,"o":"m 224 -17 q 88 45 139 -17 q 38 222 38 107 q 95 398 38 338 q 238 458 153 458 q 367 413 306 458 l 367 461 q 260 629 367 629 q 104 550 183 629 l 78 647 q 271 726 171 726 q 428 618 383 726 q 604 726 490 726 q 758 638 699 726 q 817 386 817 549 q 814 308 817 339 l 463 308 q 508 146 465 213 q 604 79 550 79 q 722 150 665 79 l 771 74 q 600 -17 696 -17 q 494 20 542 -17 q 418 119 446 57 q 330 17 383 51 q 224 -17 276 -17 m 461 406 l 717 406 q 681 575 715 522 q 600 628 646 628 q 505 571 543 628 q 461 406 467 514 m 236 79 q 316 116 278 79 q 379 201 354 153 q 367 307 367 246 q 247 363 311 363 q 169 327 200 363 q 138 222 138 292 q 163 118 138 157 q 236 79 189 79 z "},"ç":{"ha":856,"x_min":143,"x_max":714,"o":"m 714 161 q 627 38 689 83 q 476 -15 565 -8 l 442 -74 q 554 -107 518 -74 q 590 -189 590 -140 q 544 -290 590 -250 q 425 -329 497 -329 q 296 -283 344 -329 l 363 -237 q 414 -254 376 -254 q 465 -235 444 -254 q 486 -187 486 -217 q 462 -142 486 -161 q 406 -124 438 -124 q 353 -135 371 -124 l 332 -107 l 406 -15 q 213 95 282 -1 q 143 354 143 192 q 225 628 143 529 q 451 726 307 726 q 707 563 644 726 l 597 522 q 450 618 556 618 q 310 549 356 618 q 264 354 264 479 q 310 161 264 229 q 447 93 356 93 q 606 200 568 93 l 714 161 z "},"è":{"ha":856,"x_min":117,"x_max":739,"o":"m 611 800 l 493 800 l 246 1017 l 414 1017 l 611 800 m 739 386 q 735 308 739 340 l 239 308 q 306 148 253 206 q 446 90 360 90 q 611 151 536 90 l 678 74 q 442 -17 578 -17 q 205 89 293 -17 q 117 356 117 194 q 205 628 117 529 q 442 726 293 726 q 656 640 572 726 q 739 386 739 554 m 236 411 l 621 411 q 565 572 618 524 q 442 621 513 621 q 295 565 347 621 q 236 411 243 510 z "},"é":{"ha":856,"x_min":117,"x_max":739,"o":"m 690 1017 l 443 800 l 325 800 l 522 1017 l 690 1017 m 739 386 q 735 308 739 340 l 239 308 q 306 148 253 206 q 446 90 360 90 q 611 151 536 90 l 678 74 q 442 -17 578 -17 q 205 89 293 -17 q 117 356 117 194 q 205 628 117 529 q 442 726 293 726 q 656 640 572 726 q 739 386 739 554 m 236 411 l 621 411 q 565 572 618 524 q 442 621 513 621 q 295 565 347 621 q 236 411 243 510 z "},"ê":{"ha":856,"x_min":117,"x_max":739,"o":"m 439 929 l 289 800 l 179 800 l 376 1017 l 503 1017 l 699 800 l 589 800 l 439 929 m 739 386 q 735 308 739 340 l 239 308 q 306 148 253 206 q 446 90 360 90 q 611 151 536 90 l 678 74 q 442 -17 578 -17 q 205 89 293 -17 q 117 356 117 194 q 205 628 117 529 q 442 726 293 726 q 656 640 572 726 q 739 386 739 554 m 236 411 l 621 411 q 565 572 618 524 q 442 621 513 621 q 295 565 347 621 q 236 411 243 510 z "},"ë":{"ha":856,"x_min":117,"x_max":739,"o":"m 319 833 q 267 854 289 833 q 246 907 246 875 q 267 960 246 939 q 319 982 288 982 q 373 960 351 982 q 394 907 394 939 q 373 854 394 875 q 319 833 351 833 m 558 833 q 506 854 528 833 q 485 907 485 875 q 506 960 485 939 q 558 982 526 982 q 612 960 590 982 q 633 907 633 939 q 612 854 633 875 q 558 833 590 833 m 739 386 q 735 308 739 340 l 239 308 q 306 148 253 206 q 446 90 360 90 q 611 151 536 90 l 678 74 q 442 -17 578 -17 q 205 89 293 -17 q 117 356 117 194 q 205 628 117 529 q 442 726 293 726 q 656 640 572 726 q 739 386 739 554 m 236 411 l 621 411 q 565 572 618 524 q 442 621 513 621 q 295 565 347 621 q 236 411 243 510 z "},"ì":{"ha":856,"x_min":139,"x_max":700,"o":"m 504 800 l 386 800 l 139 1017 l 307 1017 l 504 800 m 504 106 l 700 106 l 700 0 l 190 0 l 190 106 l 386 106 l 386 622 l 190 622 l 190 728 l 504 728 l 504 106 z "},"í":{"ha":856,"x_min":190,"x_max":700,"o":"m 671 1017 l 424 800 l 306 800 l 503 1017 l 671 1017 m 504 106 l 700 106 l 700 0 l 190 0 l 190 106 l 386 106 l 386 622 l 190 622 l 190 728 l 504 728 l 504 106 z "},"î":{"ha":856,"x_min":161,"x_max":700,"o":"m 421 929 l 271 800 l 161 800 l 358 1017 l 485 1017 l 681 800 l 571 800 l 421 929 m 504 106 l 700 106 l 700 0 l 190 0 l 190 106 l 386 106 l 386 622 l 190 622 l 190 728 l 504 728 l 504 106 z "},"ï":{"ha":856,"x_min":190,"x_max":700,"o":"m 355 854 q 344 844 355 854 q 301 833 333 833 q 249 854 269 833 q 228 907 228 875 q 249 960 228 939 q 301 982 269 982 q 355 960 333 982 q 376 907 376 939 q 355 854 376 875 m 594 854 q 583 844 594 854 q 540 833 572 833 q 488 854 508 833 q 467 907 467 875 q 488 960 467 939 q 540 982 508 982 q 594 960 572 982 q 615 907 615 939 q 594 854 615 875 m 504 106 l 700 106 l 700 0 l 190 0 l 190 106 l 386 106 l 386 622 l 190 622 l 190 728 l 504 728 l 504 106 z "},"ð":{"ha":856,"x_min":118,"x_max":738,"o":"m 428 -17 q 204 74 290 -17 q 118 307 118 165 q 205 542 118 450 q 425 633 292 633 q 611 532 551 633 q 463 807 588 708 l 374 713 l 314 772 l 389 851 q 228 893 315 888 l 228 989 q 460 928 361 981 l 539 1013 l 600 953 l 532 881 q 683 673 629 803 q 738 374 738 543 q 657 88 738 193 q 428 -17 576 -17 m 428 93 q 562 154 507 93 q 617 306 617 215 q 563 463 617 400 q 428 525 508 525 q 293 463 347 525 q 239 307 239 401 q 294 155 239 217 q 428 93 350 93 z "},"ñ":{"ha":856,"x_min":140,"x_max":717,"o":"m 315 897 q 250 835 254 897 l 189 835 q 325 997 189 997 q 451 963 378 997 q 554 929 524 929 q 600 945 582 929 q 619 992 618 961 l 681 992 q 544 829 681 829 q 419 863 492 829 q 315 897 346 897 m 454 726 q 650 650 583 726 q 717 407 717 574 l 717 0 l 599 0 l 599 422 q 553 571 599 524 q 433 618 508 618 q 258 425 258 618 l 258 0 l 140 0 l 140 710 l 251 710 l 251 625 q 454 726 315 726 z "},"ò":{"ha":856,"x_min":96,"x_max":760,"o":"m 432 800 l 185 1017 l 353 1017 l 550 800 l 432 800 m 669 83 q 624 33 669 83 q 428 -17 579 -17 q 186 82 276 -17 q 96 354 96 181 q 186 626 96 526 q 428 726 276 726 q 670 628 581 726 q 760 356 760 529 q 669 83 760 183 m 428 93 q 583 163 528 93 q 639 356 639 233 q 585 549 639 479 q 428 618 531 618 q 271 549 325 618 q 217 354 217 481 q 272 163 217 232 q 428 93 326 93 z "},"ó":{"ha":856,"x_min":96,"x_max":760,"o":"m 329 800 l 526 1017 l 694 1017 l 447 800 l 329 800 m 669 83 q 624 33 669 83 q 428 -17 579 -17 q 186 82 276 -17 q 96 354 96 181 q 186 626 96 526 q 428 726 276 726 q 670 628 581 726 q 760 356 760 529 q 669 83 760 183 m 428 93 q 583 163 528 93 q 639 356 639 233 q 585 549 639 479 q 428 618 531 618 q 271 549 325 618 q 217 354 217 481 q 272 163 217 232 q 428 93 326 93 z "},"ô":{"ha":856,"x_min":96,"x_max":760,"o":"m 578 800 l 428 929 l 278 800 l 168 800 l 365 1017 l 492 1017 l 688 800 l 578 800 m 669 83 q 624 33 669 83 q 428 -17 579 -17 q 186 82 276 -17 q 96 354 96 181 q 186 626 96 526 q 428 726 276 726 q 670 628 581 726 q 760 356 760 529 q 669 83 760 183 m 428 93 q 583 163 528 93 q 639 356 639 233 q 585 549 639 479 q 428 618 531 618 q 271 549 325 618 q 217 354 217 481 q 272 163 217 232 q 428 93 326 93 z "},"õ":{"ha":856,"x_min":96,"x_max":760,"o":"m 539 829 q 413 863 486 829 q 310 897 340 897 q 244 835 249 897 l 183 835 q 319 997 183 997 q 445 963 372 997 q 549 929 518 929 q 594 945 576 929 q 614 992 613 961 l 675 992 q 539 829 675 829 m 669 83 q 624 33 669 83 q 428 -17 579 -17 q 186 82 276 -17 q 96 354 96 181 q 186 626 96 526 q 428 726 276 726 q 670 628 581 726 q 760 356 760 529 q 669 83 760 183 m 428 93 q 583 163 528 93 q 639 356 639 233 q 585 549 639 479 q 428 618 531 618 q 271 549 325 618 q 217 354 217 481 q 272 163 217 232 q 428 93 326 93 z "},"ö":{"ha":856,"x_min":96,"x_max":760,"o":"m 308 833 q 256 854 278 833 q 235 907 235 875 q 256 960 235 939 q 308 982 276 982 q 362 960 340 982 q 383 907 383 939 q 362 854 383 875 q 308 833 340 833 m 547 833 q 495 854 517 833 q 474 907 474 875 q 494 960 474 939 q 547 982 515 982 q 601 960 579 982 q 622 907 622 939 q 601 854 622 875 q 547 833 579 833 m 669 83 q 624 33 669 83 q 428 -17 579 -17 q 186 82 276 -17 q 96 354 96 181 q 186 626 96 526 q 428 726 276 726 q 670 628 581 726 q 760 356 760 529 q 669 83 760 183 m 428 93 q 583 163 528 93 q 639 356 639 233 q 585 549 639 479 q 428 618 531 618 q 271 549 325 618 q 217 354 217 481 q 272 163 217 232 q 428 93 326 93 z "},"÷":{"ha":856,"x_min":101,"x_max":754,"o":"m 425 676 q 369 699 392 676 q 347 753 347 721 q 369 808 347 785 q 425 831 392 831 q 482 808 458 831 q 506 753 506 785 q 483 699 506 721 q 425 676 460 676 m 101 418 l 101 533 l 754 533 l 754 418 l 101 418 m 425 122 q 369 144 392 122 q 347 197 347 165 q 369 251 347 229 q 425 274 392 274 q 483 251 460 274 q 506 197 506 229 q 483 144 506 165 q 425 122 460 122 z "},"ø":{"ha":856,"x_min":96,"x_max":760,"o":"m 669 629 q 760 356 760 528 q 669 83 760 183 q 428 -17 579 -17 q 256 26 331 -17 l 226 -17 l 118 -17 l 186 82 q 96 354 96 183 q 186 626 96 526 q 428 726 276 726 q 599 685 528 726 l 628 726 l 736 726 l 669 629 m 217 354 q 256 185 217 251 l 535 592 q 428 618 489 618 q 271 549 325 618 q 217 354 217 481 m 428 93 q 583 163 528 93 q 639 356 639 233 q 599 526 639 461 l 319 119 q 428 93 368 93 z "},"ù":{"ha":856,"x_min":140,"x_max":715,"o":"m 419 800 l 172 1017 l 340 1017 l 538 800 l 419 800 m 407 -17 q 206 60 272 -17 q 140 310 140 138 l 140 710 l 260 710 l 260 294 q 303 142 260 190 q 421 94 347 94 q 594 292 594 94 l 594 710 l 715 710 l 715 0 l 594 0 l 594 69 q 407 -17 528 -17 z "},"ú":{"ha":856,"x_min":140,"x_max":715,"o":"m 318 800 l 515 1017 l 683 1017 l 436 800 l 318 800 m 407 -17 q 206 60 272 -17 q 140 310 140 138 l 140 710 l 260 710 l 260 294 q 303 142 260 190 q 421 94 347 94 q 594 292 594 94 l 594 710 l 715 710 l 715 0 l 594 0 l 594 69 q 407 -17 528 -17 z "},"û":{"ha":856,"x_min":140,"x_max":715,"o":"m 574 800 l 424 929 l 274 800 l 164 800 l 361 1017 l 488 1017 l 683 800 l 574 800 m 407 -17 q 206 60 272 -17 q 140 310 140 138 l 140 710 l 260 710 l 260 294 q 303 142 260 190 q 421 94 347 94 q 594 292 594 94 l 594 710 l 715 710 l 715 0 l 594 0 l 594 69 q 407 -17 528 -17 z "},"ü":{"ha":856,"x_min":140,"x_max":715,"o":"m 358 854 q 347 844 358 854 q 304 833 336 833 q 251 854 272 833 q 231 907 231 875 q 251 960 231 939 q 304 982 272 982 q 358 960 336 982 q 379 907 379 939 q 358 854 379 875 m 597 854 q 586 844 597 854 q 543 833 575 833 q 490 854 511 833 q 469 907 469 875 q 490 960 469 939 q 543 982 511 982 q 597 960 575 982 q 618 907 618 939 q 597 854 618 875 m 407 -17 q 206 60 272 -17 q 140 310 140 138 l 140 710 l 260 710 l 260 294 q 303 142 260 190 q 421 94 347 94 q 594 292 594 94 l 594 710 l 715 710 l 715 0 l 594 0 l 594 69 q 407 -17 528 -17 z "},"ý":{"ha":856,"x_min":107,"x_max":747,"o":"m 332 800 l 529 1017 l 697 1017 l 450 800 l 332 800 m 263 -269 l 369 19 l 107 710 l 228 710 l 401 229 q 424 158 411 203 q 431 181 426 167 q 440 208 436 196 q 447 229 444 219 l 624 710 l 747 710 l 382 -269 l 263 -269 z "},"þ":{"ha":856,"x_min":143,"x_max":760,"o":"m 143 -289 l 143 932 l 263 990 l 263 665 q 456 744 347 744 q 678 642 596 744 q 760 365 760 539 q 676 85 760 186 q 456 -17 592 -17 q 263 69 336 -17 l 263 -231 l 143 -289 m 440 94 q 586 165 535 94 q 638 365 638 235 q 585 560 638 488 q 440 633 532 633 q 263 535 324 633 l 263 193 q 440 94 340 94 z "},"ÿ":{"ha":856,"x_min":107,"x_max":747,"o":"m 306 833 q 253 854 275 833 q 232 907 232 875 q 253 960 232 939 q 306 982 274 982 q 359 960 338 982 q 381 907 381 939 q 359 854 381 875 q 306 833 338 833 m 544 833 q 492 854 514 833 q 471 907 471 875 q 492 960 471 939 q 544 982 513 982 q 598 960 576 982 q 619 907 619 939 q 598 854 619 875 q 544 833 576 833 m 263 -269 l 369 19 l 107 710 l 228 710 l 401 229 q 424 158 411 203 q 431 181 426 167 q 440 208 436 196 q 447 229 444 219 l 624 710 l 747 710 l 382 -269 l 263 -269 z "},"Ā":{"ha":856,"x_min":56,"x_max":800,"o":"m 656 1203 l 656 1103 l 197 1103 l 197 1203 l 656 1203 m 675 0 l 600 239 l 257 239 l 183 0 l 56 0 l 376 972 l 478 972 l 800 0 l 675 0 m 290 346 l 565 346 l 453 701 q 426 796 436 756 q 401 701 421 763 l 290 346 z "},"ā":{"ha":856,"x_min":126,"x_max":703,"o":"m 215 839 l 215 939 l 674 939 l 674 839 l 215 839 m 381 -17 q 196 45 265 -17 q 126 222 126 107 q 205 397 126 338 q 399 457 283 457 q 590 411 504 457 l 590 465 q 440 624 590 624 q 215 549 331 624 l 181 647 q 451 726 308 726 q 538 716 497 726 q 617 680 578 706 q 680 601 657 654 q 703 474 703 549 l 703 0 l 590 0 l 590 65 q 381 -17 501 -17 m 396 86 q 590 183 507 86 l 590 306 q 413 356 508 356 q 288 322 338 356 q 238 222 238 288 q 279 124 238 161 q 396 86 321 86 z "},"Ă":{"ha":856,"x_min":56,"x_max":800,"o":"m 615 1132 q 583 1100 615 1132 q 426 1068 551 1068 q 238 1132 301 1068 q 174 1294 174 1196 l 279 1294 q 320 1201 279 1236 q 426 1165 361 1165 q 533 1201 492 1165 q 574 1294 574 1236 l 679 1294 q 615 1132 679 1196 m 675 0 l 600 239 l 257 239 l 183 0 l 56 0 l 376 972 l 478 972 l 800 0 l 675 0 m 290 346 l 565 346 l 453 701 q 426 796 436 756 q 401 701 421 763 l 290 346 z "},"ă":{"ha":856,"x_min":126,"x_max":703,"o":"m 633 868 q 601 836 633 868 q 444 804 569 804 q 256 868 319 804 q 192 1031 192 932 l 297 1031 q 338 937 297 972 q 444 901 379 901 q 551 937 510 901 q 592 1031 592 972 l 697 1031 q 633 868 697 932 m 381 -17 q 196 45 265 -17 q 126 222 126 107 q 205 397 126 338 q 399 457 283 457 q 590 411 504 457 l 590 465 q 440 624 590 624 q 215 549 331 624 l 181 647 q 451 726 308 726 q 538 716 497 726 q 617 680 578 706 q 680 601 657 654 q 703 474 703 549 l 703 0 l 590 0 l 590 65 q 381 -17 501 -17 m 396 86 q 590 183 507 86 l 590 306 q 413 356 508 356 q 288 322 338 356 q 238 222 238 288 q 279 124 238 161 q 396 86 321 86 z "},"Ą":{"ha":856,"x_min":56,"x_max":800,"o":"m 642 -343 q 529 -306 574 -343 q 485 -203 485 -268 q 535 -82 485 -135 q 675 0 585 -29 l 599 239 l 257 239 l 183 0 l 56 0 l 376 972 l 478 972 l 800 0 q 649 -69 713 -15 q 585 -190 585 -122 q 605 -246 585 -228 q 654 -264 625 -264 q 725 -233 697 -264 l 786 -279 q 642 -343 731 -343 m 290 346 l 565 346 l 453 701 q 426 796 432 772 q 401 701 422 772 l 290 346 z "},"ą":{"ha":856,"x_min":175,"x_max":771,"o":"m 625 -329 q 513 -292 558 -329 q 468 -189 468 -254 q 624 0 468 -67 l 624 65 q 422 -17 538 -17 q 242 45 310 -17 q 175 222 175 107 q 252 397 175 338 q 440 457 329 457 q 624 411 538 457 l 624 465 q 475 624 624 624 q 263 549 369 624 l 228 647 q 486 726 350 726 q 572 716 532 726 q 651 680 611 706 q 713 601 690 654 q 736 474 736 549 l 736 0 q 612 -81 654 -33 q 569 -176 569 -128 q 590 -232 569 -214 q 639 -250 610 -250 q 710 -219 679 -250 l 771 -265 q 625 -329 713 -329 m 438 86 q 624 183 540 86 l 624 306 q 454 356 542 356 q 335 322 382 356 q 288 222 288 288 q 327 124 288 161 q 438 86 367 86 z "},"Ć":{"ha":856,"x_min":97,"x_max":739,"o":"m 371 1064 l 568 1281 l 736 1281 l 489 1064 l 371 1064 m 463 -17 q 323 12 386 -17 q 219 88 260 40 q 150 201 178 136 q 110 338 122 267 q 97 486 97 408 q 133 730 97 619 q 254 915 169 840 q 463 989 339 989 q 728 817 647 989 l 622 760 q 556 847 592 817 q 463 878 519 878 q 350 842 399 878 q 274 749 301 807 q 234 624 247 690 q 221 486 221 558 q 245 297 221 382 q 326 153 269 211 q 463 94 382 94 q 632 218 574 94 l 739 178 q 634 38 703 92 q 463 -17 565 -17 z "},"ć":{"ha":856,"x_min":143,"x_max":729,"o":"m 364 800 l 561 1017 l 729 1017 l 482 800 l 364 800 m 443 -17 q 224 81 304 -17 q 143 354 143 179 q 225 628 143 529 q 451 726 307 726 q 707 563 644 726 l 597 522 q 450 618 556 618 q 310 549 356 618 q 264 354 264 479 q 310 161 264 229 q 447 93 356 93 q 606 200 568 93 l 714 161 q 615 30 686 76 q 443 -17 544 -17 z "},"Ĉ":{"ha":856,"x_min":97,"x_max":739,"o":"m 606 1064 l 456 1193 l 306 1064 l 196 1064 l 393 1281 l 519 1281 l 715 1064 l 606 1064 m 463 -17 q 323 12 386 -17 q 219 88 260 40 q 150 201 178 136 q 110 338 122 267 q 97 486 97 408 q 133 730 97 619 q 254 915 169 840 q 463 989 339 989 q 728 817 647 989 l 622 760 q 556 847 592 817 q 463 878 519 878 q 350 842 399 878 q 274 749 301 807 q 234 624 247 690 q 221 486 221 558 q 245 297 221 382 q 326 153 269 211 q 463 94 382 94 q 632 218 574 94 l 739 178 q 634 38 703 92 q 463 -17 565 -17 z "},"ĉ":{"ha":856,"x_min":143,"x_max":714,"o":"m 590 800 l 440 929 l 290 800 l 181 800 l 378 1017 l 504 1017 l 700 800 l 590 800 m 443 -17 q 224 81 304 -17 q 143 354 143 179 q 225 628 143 529 q 451 726 307 726 q 707 563 644 726 l 597 522 q 450 618 556 618 q 310 549 356 618 q 264 354 264 479 q 310 161 264 229 q 447 93 356 93 q 606 200 568 93 l 714 161 q 615 30 686 76 q 443 -17 544 -17 z "},"Ċ":{"ha":856,"x_min":97,"x_max":739,"o":"m 510 1118 q 500 1108 510 1118 q 457 1097 489 1097 q 404 1118 425 1097 q 383 1171 383 1139 q 404 1224 383 1203 q 457 1246 425 1246 q 510 1224 489 1246 q 532 1171 532 1203 q 510 1118 532 1139 m 463 -17 q 323 12 386 -17 q 219 88 260 40 q 150 201 178 136 q 110 338 122 267 q 97 486 97 408 q 133 730 97 619 q 254 915 169 840 q 463 989 339 989 q 728 817 647 989 l 622 760 q 556 847 592 817 q 463 878 519 878 q 350 842 399 878 q 274 749 301 807 q 234 624 247 690 q 221 486 221 558 q 245 297 221 382 q 326 153 269 211 q 463 94 382 94 q 632 218 574 94 l 739 178 q 634 38 703 92 q 463 -17 565 -17 z "},"ċ":{"ha":856,"x_min":143,"x_max":714,"o":"m 444 833 q 392 854 414 833 q 371 907 371 875 q 392 960 371 939 q 444 982 413 982 q 498 960 476 982 q 519 907 519 939 q 498 854 519 875 q 444 833 476 833 m 443 -17 q 224 81 304 -17 q 143 354 143 179 q 225 628 143 529 q 451 726 307 726 q 707 563 644 726 l 597 522 q 450 618 556 618 q 310 549 356 618 q 264 354 264 479 q 310 161 264 229 q 447 93 356 93 q 606 200 568 93 l 714 161 q 615 30 686 76 q 443 -17 544 -17 z "},"Č":{"ha":856,"x_min":97,"x_max":739,"o":"m 524 1064 l 396 1064 l 200 1281 l 310 1281 l 460 1151 l 610 1281 l 719 1281 l 524 1064 m 463 -17 q 323 12 386 -17 q 219 88 260 40 q 150 201 178 136 q 110 338 122 267 q 97 486 97 408 q 133 730 97 619 q 254 915 169 840 q 463 989 339 989 q 728 817 647 989 l 622 760 q 556 847 592 817 q 463 878 519 878 q 350 842 399 878 q 274 749 301 807 q 234 624 247 690 q 221 486 221 558 q 245 297 221 382 q 326 153 269 211 q 463 94 382 94 q 632 218 574 94 l 739 178 q 634 38 703 92 q 463 -17 565 -17 z "},"č":{"ha":856,"x_min":138,"x_max":708,"o":"m 507 800 l 379 800 l 183 1017 l 293 1017 l 443 888 l 593 1017 l 703 1017 l 507 800 m 438 -17 q 218 81 299 -17 q 138 354 138 179 q 219 628 138 529 q 446 726 301 726 q 701 563 639 726 l 592 522 q 444 618 550 618 q 304 549 350 618 q 258 354 258 479 q 304 161 258 229 q 442 93 350 93 q 600 200 563 93 l 708 161 q 610 30 681 76 q 438 -17 539 -17 z "},"Ď":{"ha":856,"x_min":114,"x_max":760,"o":"m 438 1064 l 310 1064 l 114 1281 l 224 1281 l 374 1151 l 524 1281 l 633 1281 l 438 1064 m 132 0 l 132 972 l 361 972 q 547 931 467 972 q 672 818 626 889 q 738 664 717 747 q 760 486 760 581 q 740 315 760 396 q 676 160 719 233 q 549 44 632 88 q 356 0 467 0 l 132 0 m 253 110 l 360 110 q 492 142 436 110 q 577 232 547 175 q 621 351 607 289 q 635 486 635 414 q 570 753 635 644 q 375 863 506 863 l 253 863 l 253 110 z "},"ď":{"ha":856,"x_min":26,"x_max":881,"o":"m 332 -17 q 108 83 190 -17 q 26 356 26 183 q 109 627 26 528 q 331 726 192 726 q 522 660 444 726 l 522 946 l 640 1003 l 640 0 l 522 0 l 522 58 q 332 -17 453 -17 m 758 661 l 724 688 q 753 815 742 726 q 765 989 765 903 l 881 989 l 881 978 q 758 661 881 782 m 347 93 q 522 190 467 93 l 522 526 q 346 618 461 618 q 199 550 250 618 q 147 356 147 482 q 201 167 147 242 q 347 93 256 93 z "},"Đ":{"ha":856,"x_min":46,"x_max":760,"o":"m 361 972 q 547 931 467 972 q 672 818 626 889 q 738 664 717 747 q 760 486 760 581 q 740 315 760 396 q 676 160 719 233 q 549 44 632 88 q 356 0 467 0 l 132 0 l 132 431 l 46 431 l 46 539 l 132 539 l 132 972 l 361 972 m 360 110 q 492 142 436 110 q 577 232 547 175 q 621 351 607 289 q 635 486 635 414 q 570 753 635 644 q 375 863 506 863 l 253 863 l 253 539 l 456 539 l 456 431 l 253 431 l 253 110 l 360 110 z "},"đ":{"ha":856,"x_min":96,"x_max":792,"o":"m 701 763 l 701 0 l 583 0 l 583 58 q 396 -17 508 -17 q 178 80 260 -17 q 96 333 96 176 q 178 587 96 493 q 396 681 261 681 q 583 613 513 681 l 583 763 l 394 763 l 394 863 l 583 863 l 583 946 l 701 1003 l 701 863 l 792 863 l 792 763 l 701 763 m 411 93 q 583 190 528 93 l 583 479 q 411 571 528 571 q 269 508 321 571 q 217 333 217 444 q 270 163 217 233 q 411 93 324 93 z "},"Ē":{"ha":856,"x_min":133,"x_max":732,"o":"m 189 1103 l 189 1203 l 647 1203 l 647 1103 l 189 1103 m 133 0 l 133 972 l 703 972 l 703 858 l 253 858 l 253 560 l 560 560 l 560 446 l 253 446 l 253 114 l 732 114 l 732 0 l 133 0 z "},"ē":{"ha":856,"x_min":117,"x_max":739,"o":"m 668 939 l 668 839 l 210 839 l 210 939 l 668 939 m 739 386 q 735 308 739 340 l 239 308 q 306 148 253 206 q 446 90 360 90 q 611 151 536 90 l 678 74 q 442 -17 578 -17 q 205 89 293 -17 q 117 356 117 194 q 205 628 117 529 q 442 726 293 726 q 656 640 572 726 q 739 386 739 554 m 236 411 l 621 411 q 565 572 618 524 q 442 621 513 621 q 295 565 347 621 q 236 411 243 510 z "},"Ĕ":{"ha":856,"x_min":133,"x_max":732,"o":"m 604 1132 q 572 1100 604 1132 q 415 1068 540 1068 q 226 1132 290 1068 q 163 1294 163 1196 l 268 1294 q 309 1201 268 1236 q 415 1165 350 1165 q 522 1201 481 1165 q 563 1294 563 1236 l 668 1294 q 604 1132 668 1196 m 133 0 l 133 972 l 703 972 l 703 858 l 253 858 l 253 560 l 560 560 l 560 446 l 253 446 l 253 114 l 732 114 l 732 0 l 133 0 z "},"ĕ":{"ha":856,"x_min":117,"x_max":739,"o":"m 628 868 q 596 836 628 868 q 439 804 564 804 q 250 868 314 804 q 186 1031 186 932 l 292 1031 q 333 937 292 972 q 439 901 374 901 q 545 937 504 901 q 586 1031 586 972 l 692 1031 q 628 868 692 932 m 739 386 q 735 308 739 340 l 239 308 q 306 148 253 206 q 446 90 360 90 q 611 151 536 90 l 678 74 q 442 -17 578 -17 q 205 89 293 -17 q 117 356 117 194 q 205 628 117 529 q 442 726 293 726 q 656 640 572 726 q 739 386 739 554 m 236 411 l 621 411 q 565 572 618 524 q 442 621 513 621 q 295 565 347 621 q 236 411 243 510 z "},"Ė":{"ha":856,"x_min":133,"x_max":732,"o":"m 469 1118 q 458 1108 469 1118 q 415 1097 447 1097 q 363 1118 383 1097 q 342 1171 342 1139 q 363 1224 342 1203 q 415 1246 383 1246 q 469 1224 447 1246 q 490 1171 490 1203 q 469 1118 490 1139 m 133 0 l 133 972 l 703 972 l 703 858 l 253 858 l 253 560 l 560 560 l 560 446 l 253 446 l 253 114 l 732 114 l 732 0 l 133 0 z "},"ė":{"ha":856,"x_min":117,"x_max":739,"o":"m 439 833 q 387 854 408 833 q 365 907 365 875 q 386 960 365 939 q 439 982 407 982 q 492 960 471 982 q 514 907 514 939 q 492 854 514 875 q 439 833 471 833 m 739 386 q 735 308 739 340 l 239 308 q 306 148 253 206 q 446 90 360 90 q 611 151 536 90 l 678 74 q 442 -17 578 -17 q 205 89 293 -17 q 117 356 117 194 q 205 628 117 529 q 442 726 293 726 q 656 640 572 726 q 739 386 739 554 m 236 411 l 621 411 q 565 572 618 524 q 442 621 513 621 q 295 565 347 621 q 236 411 243 510 z "},"Ę":{"ha":856,"x_min":167,"x_max":779,"o":"m 589 -329 q 477 -292 522 -329 q 432 -189 432 -254 q 585 0 432 -64 l 167 0 l 167 972 l 749 972 l 749 858 l 288 858 l 288 560 l 589 560 l 589 446 l 288 446 l 288 114 l 779 114 l 779 0 l 733 0 q 595 -56 657 0 q 533 -176 533 -112 q 553 -232 533 -214 q 603 -250 574 -250 q 674 -219 643 -250 l 735 -265 q 589 -329 676 -329 z "},"ę":{"ha":856,"x_min":117,"x_max":739,"o":"m 463 -329 q 351 -292 396 -329 q 306 -189 306 -254 q 425 -17 306 -81 q 200 94 283 -11 q 117 356 117 199 q 205 628 117 529 q 442 726 293 726 q 656 640 572 726 q 739 386 739 554 q 735 308 739 340 l 239 308 q 306 148 253 206 q 446 90 360 90 q 611 151 536 90 l 678 74 q 561 3 638 36 q 446 -78 486 -31 q 406 -176 406 -126 q 426 -231 406 -212 q 475 -250 447 -250 q 546 -219 518 -250 l 608 -265 q 463 -329 550 -329 m 238 411 l 621 411 q 565 572 618 524 q 442 621 513 621 q 296 565 347 621 q 238 411 244 510 z "},"Ě":{"ha":856,"x_min":133,"x_max":732,"o":"m 486 1064 l 358 1064 l 163 1281 l 272 1281 l 422 1151 l 572 1281 l 682 1281 l 486 1064 m 133 0 l 133 972 l 703 972 l 703 858 l 253 858 l 253 560 l 560 560 l 560 446 l 253 446 l 253 114 l 732 114 l 732 0 l 133 0 z "},"ě":{"ha":856,"x_min":117,"x_max":739,"o":"m 503 800 l 375 800 l 179 1017 l 289 1017 l 439 888 l 589 1017 l 699 1017 l 503 800 m 739 386 q 735 308 739 340 l 239 308 q 306 148 253 206 q 446 90 360 90 q 611 151 536 90 l 678 74 q 442 -17 578 -17 q 205 89 293 -17 q 117 356 117 194 q 205 628 117 529 q 442 726 293 726 q 656 640 572 726 q 739 386 739 554 m 236 411 l 621 411 q 565 572 618 524 q 442 621 513 621 q 295 565 347 621 q 236 411 243 510 z "},"Ĝ":{"ha":856,"x_min":100,"x_max":751,"o":"m 597 1064 l 447 1193 l 297 1064 l 188 1064 l 385 1281 l 511 1281 l 707 1064 l 597 1064 m 450 -17 q 251 58 332 -17 q 135 242 169 132 q 100 486 100 353 q 190 842 100 696 q 450 989 281 989 q 617 943 556 989 q 719 819 678 897 l 614 758 q 546 846 583 814 q 450 878 508 878 q 318 815 371 878 q 245 669 265 753 q 225 486 225 585 q 282 208 225 321 q 450 94 339 94 q 579 155 532 94 q 626 315 626 215 l 626 361 l 451 361 l 451 471 l 751 471 l 751 354 q 667 81 751 179 q 450 -17 582 -17 z "},"ĝ":{"ha":856,"x_min":99,"x_max":714,"o":"m 604 800 l 454 929 l 304 800 l 194 800 l 392 1017 l 518 1017 l 714 800 l 604 800 m 372 -292 l 314 -197 q 528 -142 469 -187 q 588 -17 588 -97 l 588 69 q 396 -17 525 -17 q 183 81 268 -17 q 99 356 99 178 q 182 626 99 526 q 401 726 265 726 q 588 650 522 726 l 588 710 l 706 710 l 706 32 q 619 -208 706 -135 q 372 -292 532 -282 m 421 93 q 516 120 471 93 q 588 196 561 147 l 588 522 q 515 592 561 567 q 421 618 468 618 q 271 551 322 618 q 219 356 219 483 q 275 163 219 233 q 421 93 331 93 z "},"Ğ":{"ha":856,"x_min":100,"x_max":751,"o":"m 636 1132 q 604 1100 636 1132 q 447 1068 572 1068 q 258 1132 322 1068 q 194 1294 194 1196 l 300 1294 q 341 1201 300 1236 q 447 1165 382 1165 q 553 1201 513 1165 q 594 1294 594 1236 l 700 1294 q 636 1132 700 1196 m 450 -17 q 251 58 332 -17 q 135 242 169 132 q 100 486 100 353 q 190 842 100 696 q 450 989 281 989 q 617 943 556 989 q 719 819 678 897 l 614 758 q 546 846 583 814 q 450 878 508 878 q 318 815 371 878 q 245 669 265 753 q 225 486 225 585 q 282 208 225 321 q 450 94 339 94 q 579 155 532 94 q 626 315 626 215 l 626 361 l 451 361 l 451 471 l 751 471 l 751 354 q 667 81 751 179 q 450 -17 582 -17 z "},"ğ":{"ha":856,"x_min":101,"x_max":708,"o":"m 640 868 q 608 836 640 868 q 451 804 576 804 q 263 868 326 804 q 199 1031 199 932 l 304 1031 q 345 937 304 972 q 451 901 386 901 q 558 937 517 901 q 599 1031 599 972 l 704 1031 q 640 868 704 932 m 375 -292 l 317 -197 q 531 -142 472 -187 q 590 -17 590 -97 l 590 69 q 399 -17 528 -17 q 186 81 271 -17 q 101 356 101 178 q 185 626 101 526 q 404 726 268 726 q 590 650 525 726 l 590 710 l 708 710 l 708 32 q 622 -208 708 -135 q 375 -292 535 -282 m 424 93 q 519 120 474 93 q 590 196 564 147 l 590 522 q 517 592 564 567 q 424 618 471 618 q 274 551 325 618 q 222 356 222 483 q 278 163 222 233 q 424 93 333 93 z "},"Ġ":{"ha":856,"x_min":100,"x_max":751,"o":"m 444 1097 q 392 1118 414 1097 q 371 1171 371 1139 q 392 1224 371 1203 q 444 1246 413 1246 q 498 1224 476 1246 q 519 1171 519 1203 q 498 1118 519 1139 q 444 1097 476 1097 m 450 -17 q 251 58 332 -17 q 135 242 169 132 q 100 486 100 353 q 190 842 100 696 q 450 989 281 989 q 617 943 556 989 q 719 819 678 897 l 614 758 q 546 846 583 814 q 450 878 508 878 q 318 815 371 878 q 245 669 265 753 q 225 486 225 585 q 282 208 225 321 q 450 94 339 94 q 579 155 532 94 q 626 315 626 215 l 626 361 l 451 361 l 451 471 l 751 471 l 751 354 q 667 81 751 179 q 450 -17 582 -17 z "},"ġ":{"ha":856,"x_min":107,"x_max":714,"o":"m 508 854 q 497 844 508 854 q 454 833 486 833 q 401 854 422 833 q 381 907 381 875 q 401 960 381 939 q 454 982 422 982 q 508 960 486 982 q 529 907 529 939 q 508 854 529 875 m 381 -292 l 322 -197 q 537 -142 478 -187 q 596 -17 596 -97 l 596 69 q 404 -17 533 -17 q 192 81 276 -17 q 107 356 107 178 q 190 626 107 526 q 410 726 274 726 q 596 650 531 726 l 596 710 l 714 710 l 714 32 q 627 -208 714 -135 q 381 -292 540 -282 m 429 93 q 524 120 479 93 q 596 196 569 147 l 596 522 q 523 592 569 567 q 429 618 476 618 q 279 551 331 618 q 228 356 228 483 q 283 163 228 233 q 429 93 339 93 z "},"Ģ":{"ha":856,"x_min":100,"x_max":751,"o":"m 450 -17 q 251 58 332 -17 q 135 242 169 132 q 100 486 100 353 q 190 842 100 696 q 450 989 281 989 q 617 943 556 989 q 719 819 678 897 l 614 758 q 546 846 583 814 q 450 878 508 878 q 318 815 371 878 q 245 669 265 753 q 225 486 225 585 q 282 208 225 321 q 450 94 339 94 q 579 155 532 94 q 626 315 626 215 l 626 361 l 451 361 l 451 471 l 751 471 l 751 354 q 667 81 751 179 q 450 -17 582 -17 m 418 -362 l 383 -346 q 442 -243 432 -310 q 389 -219 407 -242 q 371 -165 371 -197 q 394 -109 371 -131 q 447 -87 417 -87 q 504 -112 481 -87 q 528 -175 528 -136 q 418 -362 528 -297 z "},"ģ":{"ha":856,"x_min":103,"x_max":710,"o":"m 432 811 q 375 835 399 811 q 351 899 351 860 q 463 1086 351 1018 l 496 1069 q 438 967 446 1024 q 491 943 472 965 q 510 889 510 921 q 486 833 510 856 q 432 811 463 811 m 376 -292 l 318 -197 q 533 -142 474 -187 q 592 -17 592 -97 l 592 69 q 400 -17 529 -17 q 188 81 272 -17 q 103 356 103 178 q 186 626 103 526 q 406 726 269 726 q 592 650 525 726 l 592 710 l 710 710 l 710 32 q 623 -208 710 -135 q 376 -292 536 -282 m 425 93 q 520 120 475 93 q 592 196 565 147 l 592 522 q 519 592 565 567 q 425 618 472 618 q 275 551 326 618 q 224 356 224 483 q 279 163 224 233 q 425 93 335 93 z "},"Ĥ":{"ha":856,"x_min":133,"x_max":722,"o":"m 578 1064 l 428 1193 l 278 1064 l 168 1064 l 365 1281 l 492 1281 l 688 1064 l 578 1064 m 133 0 l 133 972 l 253 972 l 253 561 l 603 561 l 603 972 l 722 972 l 722 0 l 603 0 l 603 447 l 253 447 l 253 0 l 133 0 z "},"ĥ":{"ha":856,"x_min":140,"x_max":717,"o":"m 589 1063 l 439 1192 l 289 1063 l 179 1063 l 376 1279 l 503 1279 l 699 1063 l 589 1063 m 140 0 l 140 947 l 258 1003 l 258 633 q 454 726 325 726 q 650 650 583 726 q 717 407 717 574 l 717 0 l 599 0 l 599 422 q 553 571 599 524 q 433 618 508 618 q 258 425 258 618 l 258 0 l 140 0 z "},"Ħ":{"ha":856,"x_min":21,"x_max":835,"o":"m 603 0 l 603 447 l 253 447 l 253 0 l 133 0 l 133 726 l 21 726 l 21 840 l 133 840 l 133 972 l 253 972 l 253 840 l 603 840 l 603 972 l 722 972 l 722 840 l 835 840 l 835 726 l 722 726 l 722 0 l 603 0 m 603 561 l 603 726 l 253 726 l 253 561 l 603 561 z "},"ħ":{"ha":856,"x_min":151,"x_max":796,"o":"m 239 0 l 239 763 l 151 763 l 151 863 l 239 863 l 239 947 l 357 1003 l 357 863 l 565 863 l 565 763 l 357 763 l 357 588 q 543 681 424 681 q 732 604 668 681 q 796 361 796 528 l 796 0 l 678 0 l 678 383 q 636 526 678 481 q 524 572 594 572 q 357 386 357 572 l 357 0 l 239 0 z "},"Ĩ":{"ha":856,"x_min":144,"x_max":708,"o":"m 308 1161 q 243 1099 247 1161 l 182 1099 q 318 1261 182 1261 q 444 1227 371 1261 q 547 1193 517 1193 q 593 1209 575 1193 q 613 1256 611 1225 l 674 1256 q 538 1093 674 1093 q 412 1127 485 1093 q 308 1161 339 1161 m 708 863 l 486 863 l 486 110 l 708 110 l 708 0 l 144 0 l 144 110 l 367 110 l 367 863 l 144 863 l 144 972 l 708 972 l 708 863 z "},"ĩ":{"ha":856,"x_min":164,"x_max":700,"o":"m 290 897 q 225 835 229 897 l 164 835 q 300 997 164 997 q 426 963 353 997 q 529 929 499 929 q 575 945 557 929 q 594 992 593 961 l 656 992 q 519 829 656 829 q 394 863 467 829 q 290 897 321 897 m 504 106 l 700 106 l 700 0 l 190 0 l 190 106 l 386 106 l 386 622 l 190 622 l 190 728 l 504 728 l 504 106 z "},"Ī":{"ha":856,"x_min":146,"x_max":710,"o":"m 657 1203 l 657 1103 l 199 1103 l 199 1203 l 657 1203 m 710 863 l 488 863 l 488 110 l 710 110 l 710 0 l 146 0 l 146 110 l 368 110 l 368 863 l 146 863 l 146 972 l 710 972 l 710 863 z "},"ī":{"ha":856,"x_min":164,"x_max":700,"o":"m 622 939 l 622 839 l 164 839 l 164 939 l 622 939 m 504 106 l 700 106 l 700 0 l 190 0 l 190 106 l 386 106 l 386 622 l 190 622 l 190 728 l 504 728 l 504 106 z "},"Ĭ":{"ha":856,"x_min":146,"x_max":710,"o":"m 617 1132 q 585 1100 617 1132 q 428 1068 553 1068 q 239 1132 303 1068 q 175 1294 175 1196 l 281 1294 q 322 1201 281 1236 q 428 1165 363 1165 q 534 1201 493 1165 q 575 1294 575 1236 l 681 1294 q 617 1132 681 1196 m 710 863 l 488 863 l 488 110 l 710 110 l 710 0 l 146 0 l 146 110 l 368 110 l 368 863 l 146 863 l 146 972 l 710 972 l 710 863 z "},"ĭ":{"ha":856,"x_min":147,"x_max":700,"o":"m 589 868 q 557 836 589 868 q 400 804 525 804 q 211 868 275 804 q 147 1031 147 932 l 253 1031 q 294 937 253 972 q 400 901 335 901 q 506 937 465 901 q 547 1031 547 972 l 653 1031 q 589 868 653 932 m 504 106 l 700 106 l 700 0 l 190 0 l 190 106 l 386 106 l 386 622 l 190 622 l 190 728 l 504 728 l 504 106 z "},"Į":{"ha":856,"x_min":146,"x_max":710,"o":"m 485 -329 q 372 -292 417 -329 q 328 -189 328 -254 q 481 0 328 -64 l 146 0 l 146 110 l 368 110 l 368 863 l 146 863 l 146 972 l 710 972 l 710 863 l 488 863 l 488 110 l 710 110 l 710 0 l 646 0 q 490 -56 553 0 q 428 -176 428 -112 q 448 -232 428 -214 q 497 -250 468 -250 q 568 -219 540 -250 l 629 -265 q 485 -329 574 -329 z "},"į":{"ha":856,"x_min":190,"x_max":700,"o":"m 444 840 q 392 862 414 840 q 371 914 371 883 q 392 968 371 946 q 444 990 414 990 q 498 968 476 990 q 519 914 519 946 q 498 861 519 882 q 444 840 476 840 m 463 -329 q 351 -292 396 -329 q 306 -189 306 -254 q 458 0 306 -67 l 190 0 l 190 106 l 386 106 l 386 604 l 190 604 l 190 710 l 504 710 l 504 106 l 700 106 l 700 0 l 621 0 q 467 -57 528 0 q 407 -176 407 -114 q 427 -232 407 -214 q 476 -250 447 -250 q 547 -219 517 -250 l 608 -265 q 463 -329 550 -329 z "},"İ":{"ha":856,"x_min":146,"x_max":710,"o":"m 428 1097 q 376 1118 397 1097 q 354 1171 354 1139 q 375 1224 354 1203 q 428 1246 396 1246 q 481 1224 460 1246 q 503 1171 503 1203 q 481 1118 503 1139 q 428 1097 460 1097 m 710 863 l 488 863 l 488 110 l 710 110 l 710 0 l 146 0 l 146 110 l 368 110 l 368 863 l 146 863 l 146 972 l 710 972 l 710 863 z "},"ı":{"ha":856,"x_min":190,"x_max":700,"o":"m 504 106 l 700 106 l 700 0 l 190 0 l 190 106 l 386 106 l 386 622 l 190 622 l 190 728 l 504 728 l 504 106 z "},"Ĳ":{"ha":1711,"x_min":146,"x_max":1571,"o":"m 710 972 l 710 863 l 488 863 l 488 110 l 710 110 l 710 0 l 146 0 l 146 110 l 368 110 l 368 863 l 146 863 l 146 972 l 710 972 m 1451 972 l 1571 972 l 1571 315 q 1551 178 1571 238 q 1502 82 1532 118 q 1431 23 1472 46 q 1350 -8 1390 0 q 1267 -17 1310 -17 q 988 161 1061 -17 l 1086 211 q 1153 122 1115 149 q 1268 94 1192 94 q 1399 144 1346 94 q 1451 307 1451 193 l 1451 972 z "},"ĳ":{"ha":1711,"x_min":190,"x_max":1421,"o":"m 444 840 q 392 862 414 840 q 371 914 371 883 q 392 968 371 946 q 444 990 414 990 q 498 968 476 990 q 519 914 519 946 q 498 861 519 882 q 444 840 476 840 m 1399 861 q 1389 851 1399 861 q 1346 840 1378 840 q 1293 862 1314 840 q 1272 914 1272 883 q 1294 968 1272 946 q 1346 990 1315 990 q 1399 968 1378 990 q 1421 914 1421 946 q 1399 861 1421 882 m 504 710 l 504 106 l 700 106 l 700 0 l 190 0 l 190 106 l 386 106 l 386 604 l 190 604 l 190 710 l 504 710 m 1406 710 l 1406 -24 q 1341 -221 1406 -157 q 1138 -296 1276 -285 l 1081 -199 q 1245 -145 1203 -183 q 1288 -17 1288 -107 l 1288 604 l 1092 604 l 1092 710 l 1406 710 z "},"Ĵ":{"ha":856,"x_min":56,"x_max":839,"o":"m 729 1064 l 579 1193 l 429 1064 l 319 1064 l 517 1281 l 643 1281 l 839 1064 l 729 1064 m 335 -17 q 56 161 129 -17 l 154 211 q 222 122 183 149 q 336 94 260 94 q 467 144 414 94 q 519 307 519 193 l 519 972 l 639 972 l 639 315 q 619 178 639 238 q 570 82 600 118 q 499 23 540 46 q 418 -8 458 0 q 335 -17 378 -17 z "},"ĵ":{"ha":856,"x_min":179,"x_max":699,"o":"m 503 1017 l 699 800 l 589 800 l 439 929 l 289 800 l 179 800 l 376 1017 l 503 1017 m 550 710 l 550 -24 q 490 -215 550 -151 q 282 -296 422 -285 l 225 -199 q 390 -145 347 -183 q 432 -17 432 -107 l 432 604 l 236 604 l 236 710 l 550 710 z "},"Ķ":{"ha":856,"x_min":133,"x_max":781,"o":"m 446 632 l 781 0 l 643 0 l 364 529 l 253 389 l 253 0 l 133 0 l 133 972 l 253 972 l 253 554 l 578 972 l 715 972 l 446 632 m 440 -87 q 497 -112 474 -87 q 521 -175 521 -136 q 411 -362 521 -297 l 376 -346 q 435 -243 425 -310 q 382 -219 400 -242 q 364 -165 364 -197 q 387 -109 364 -131 q 440 -87 410 -87 z "},"ķ":{"ha":856,"x_min":143,"x_max":736,"o":"m 471 518 l 736 0 l 607 0 l 388 432 l 261 303 l 261 0 l 143 0 l 143 946 l 261 1003 l 261 438 l 519 710 l 658 710 l 471 518 m 414 -87 q 471 -112 447 -87 q 494 -175 494 -136 q 385 -362 494 -297 l 350 -346 q 408 -243 399 -310 q 356 -219 374 -242 q 338 -165 338 -197 q 360 -109 338 -131 q 414 -87 383 -87 z "},"ĸ":{"ha":856,"x_min":182,"x_max":765,"o":"m 632 0 l 443 350 l 300 172 l 300 0 l 182 0 l 182 710 l 300 710 l 300 328 l 601 710 l 732 710 l 522 447 l 765 0 l 632 0 z "},"Ĺ":{"ha":856,"x_min":117,"x_max":740,"o":"m 117 1071 l 314 1288 l 482 1288 l 235 1071 l 117 1071 m 158 0 l 158 972 l 278 972 l 278 115 l 740 115 l 740 0 l 158 0 z "},"ĺ":{"ha":856,"x_min":144,"x_max":686,"o":"m 667 1267 l 419 1050 l 301 1050 l 499 1267 l 667 1267 m 486 106 l 686 106 l 686 0 l 169 0 l 169 106 l 368 106 l 368 897 l 197 897 l 144 1003 l 486 1003 l 486 106 z "},"Ļ":{"ha":856,"x_min":133,"x_max":715,"o":"m 133 0 l 133 972 l 253 972 l 253 115 l 715 115 l 715 0 l 133 0 m 393 -362 l 358 -346 q 417 -243 407 -310 q 364 -219 382 -242 q 346 -165 346 -197 q 369 -109 346 -131 q 422 -87 392 -87 q 479 -112 456 -87 q 503 -175 503 -136 q 393 -362 503 -297 z "},"ļ":{"ha":856,"x_min":144,"x_max":686,"o":"m 486 106 l 686 106 l 686 0 l 169 0 l 169 106 l 368 106 l 368 897 l 197 897 l 144 1003 l 486 1003 l 486 106 m 426 -87 q 483 -112 460 -87 q 507 -175 507 -136 q 397 -362 507 -297 l 363 -346 q 421 -243 411 -310 q 368 -219 386 -242 q 350 -165 350 -197 q 373 -109 350 -131 q 426 -87 396 -87 z "},"Ľ":{"ha":856,"x_min":210,"x_max":792,"o":"m 210 0 l 210 972 l 329 972 l 329 115 l 792 115 l 792 0 l 210 0 m 471 644 l 436 671 q 466 798 454 710 q 478 972 478 886 l 593 972 l 593 961 q 471 644 593 765 z "},"ľ":{"ha":856,"x_min":144,"x_max":740,"o":"m 486 1003 l 486 106 l 686 106 l 686 0 l 169 0 l 169 106 l 368 106 l 368 897 l 197 897 l 144 1003 l 486 1003 m 625 1003 l 740 1003 l 740 992 q 618 675 740 796 l 583 701 q 613 828 601 740 q 625 1003 625 917 z "},"Ŀ":{"ha":856,"x_min":133,"x_max":715,"o":"m 133 0 l 133 972 l 253 972 l 253 115 l 715 115 l 715 0 l 133 0 m 688 419 q 675 405 688 419 q 621 390 661 390 q 553 419 581 390 q 526 485 526 447 q 553 551 526 522 q 621 579 581 579 q 688 551 661 579 q 715 485 715 522 q 688 419 715 447 z "},"ŀ":{"ha":856,"x_min":144,"x_max":950,"o":"m 486 1003 l 486 106 l 686 106 l 686 0 l 169 0 l 169 106 l 368 106 l 368 897 l 197 897 l 144 1003 l 486 1003 m 788 551 q 802 565 788 551 q 856 579 815 579 q 923 551 896 579 q 950 485 950 522 q 923 419 950 447 q 856 390 896 390 q 788 419 815 390 q 761 485 761 447 q 788 551 761 522 z "},"Ł":{"ha":856,"x_min":78,"x_max":771,"o":"m 179 0 l 179 356 l 78 281 l 78 411 l 179 488 l 179 972 l 299 972 l 299 585 l 461 708 l 461 578 l 299 451 l 299 115 l 771 115 l 771 0 l 179 0 z "},"ł":{"ha":856,"x_min":144,"x_max":686,"o":"m 486 106 l 686 106 l 686 0 l 169 0 l 169 106 l 368 106 l 368 360 l 264 279 l 264 385 l 368 465 l 368 897 l 197 897 l 144 1003 l 486 1003 l 486 557 l 592 639 l 592 532 l 486 450 l 486 106 z "},"Ń":{"ha":856,"x_min":133,"x_max":722,"o":"m 338 1071 l 535 1288 l 703 1288 l 456 1071 l 338 1071 m 133 0 l 133 972 l 251 972 l 583 290 q 608 239 606 247 q 607 292 607 265 l 607 972 l 722 972 l 722 0 l 607 0 l 274 674 q 247 726 264 690 q 250 674 250 706 l 250 0 l 133 0 z "},"ń":{"ha":856,"x_min":140,"x_max":717,"o":"m 678 1017 l 431 800 l 313 800 l 510 1017 l 678 1017 m 454 726 q 650 650 583 726 q 717 407 717 574 l 717 0 l 599 0 l 599 422 q 553 571 599 524 q 433 618 508 618 q 258 425 258 618 l 258 0 l 140 0 l 140 710 l 251 710 l 251 625 q 454 726 315 726 z "},"Ņ":{"ha":856,"x_min":133,"x_max":722,"o":"m 133 0 l 133 972 l 251 972 l 583 290 q 608 239 606 247 q 607 292 607 265 l 607 972 l 722 972 l 722 0 l 607 0 l 274 674 q 247 726 264 690 q 250 674 250 706 l 250 0 l 133 0 m 400 -362 l 365 -346 q 424 -243 414 -310 q 371 -219 389 -242 q 353 -165 353 -197 q 376 -109 353 -131 q 429 -87 399 -87 q 486 -112 463 -87 q 510 -175 510 -136 q 400 -362 510 -297 z "},"ņ":{"ha":856,"x_min":140,"x_max":717,"o":"m 454 726 q 650 650 583 726 q 717 407 717 574 l 717 0 l 599 0 l 599 422 q 553 571 599 524 q 433 618 508 618 q 258 425 258 618 l 258 0 l 140 0 l 140 710 l 251 710 l 251 625 q 454 726 315 726 m 426 -87 q 483 -112 460 -87 q 507 -175 507 -136 q 397 -362 507 -297 l 363 -346 q 421 -243 411 -310 q 368 -219 386 -242 q 350 -165 350 -197 q 373 -109 350 -131 q 426 -87 396 -87 z "},"Ň":{"ha":856,"x_min":133,"x_max":722,"o":"m 501 1064 l 374 1064 l 178 1281 l 288 1281 l 438 1151 l 588 1281 l 697 1281 l 501 1064 m 133 0 l 133 972 l 251 972 l 583 290 q 608 239 606 247 q 607 292 607 265 l 607 972 l 722 972 l 722 0 l 607 0 l 274 674 q 247 726 264 690 q 250 674 250 706 l 250 0 l 133 0 z "},"ň":{"ha":856,"x_min":135,"x_max":711,"o":"m 508 800 l 381 800 l 185 1017 l 294 1017 l 444 888 l 594 1017 l 704 1017 l 508 800 m 449 726 q 644 650 578 726 q 711 407 711 574 l 711 0 l 593 0 l 593 422 q 548 571 593 524 q 428 618 503 618 q 253 425 253 618 l 253 0 l 135 0 l 135 710 l 246 710 l 246 625 q 449 726 310 726 z "},"ŉ":{"ha":856,"x_min":-40,"x_max":857,"o":"m 54 1038 q 127 1006 97 1038 q 157 915 157 974 q 115 749 157 829 q 19 626 74 668 l -40 651 q 20 744 -6 690 q 47 849 46 799 q -16 877 8 853 q -40 942 -40 901 q -12 1010 -40 983 q 54 1038 15 1038 m 594 726 q 790 650 724 726 q 857 407 857 574 l 857 0 l 739 0 l 739 422 q 694 571 739 524 q 574 618 649 618 q 399 425 399 618 l 399 0 l 281 0 l 281 710 l 392 710 l 392 625 q 594 726 456 726 z "},"Ŋ":{"ha":856,"x_min":121,"x_max":735,"o":"m 493 -339 l 436 -246 q 615 -72 615 -224 l 615 7 l 264 674 q 238 726 254 690 q 240 674 240 706 l 240 0 l 121 0 l 121 972 l 239 972 l 593 290 q 618 239 615 247 q 617 256 618 247 q 616 270 617 265 q 615 281 615 275 q 615 292 615 288 l 615 972 l 735 972 l 735 -47 q 493 -339 735 -303 z "},"ŋ":{"ha":856,"x_min":140,"x_max":717,"o":"m 478 -307 l 421 -214 q 559 -167 519 -201 q 599 -75 599 -132 l 599 422 q 553 571 599 524 q 433 618 508 618 q 258 425 258 618 l 258 0 l 140 0 l 140 710 l 258 710 l 258 635 q 454 726 326 726 q 650 650 583 726 q 717 407 717 574 l 717 -35 q 668 -210 717 -144 q 478 -307 608 -294 z "},"Ō":{"ha":856,"x_min":97,"x_max":760,"o":"m 200 1103 l 200 1203 l 658 1203 l 658 1103 l 200 1103 m 581 26 q 548 5 581 26 q 428 -17 515 -17 q 274 26 340 -17 q 171 143 208 69 q 115 303 133 217 q 97 486 97 389 q 115 669 97 583 q 171 829 133 756 q 274 946 208 903 q 428 989 340 989 q 581 946 515 989 q 685 829 647 903 q 742 669 724 756 q 760 486 760 583 q 742 303 760 389 q 685 143 724 217 q 581 26 647 69 m 428 94 q 547 156 499 94 q 615 301 596 217 q 635 486 635 386 q 584 766 635 654 q 428 878 533 878 q 308 817 356 878 q 240 672 260 757 q 221 486 221 588 q 272 206 221 318 q 428 94 322 94 z "},"ō":{"ha":856,"x_min":96,"x_max":760,"o":"m 199 839 l 199 939 l 657 939 l 657 839 l 199 839 m 669 83 q 624 33 669 83 q 428 -17 579 -17 q 186 82 276 -17 q 96 354 96 181 q 186 626 96 526 q 428 726 276 726 q 670 628 581 726 q 760 356 760 529 q 669 83 760 183 m 428 93 q 583 163 528 93 q 639 356 639 233 q 585 549 639 479 q 428 618 531 618 q 271 549 325 618 q 217 354 217 481 q 272 163 217 232 q 428 93 326 93 z "},"Ŏ":{"ha":856,"x_min":97,"x_max":760,"o":"m 617 1132 q 585 1100 617 1132 q 428 1068 553 1068 q 239 1132 303 1068 q 175 1294 175 1196 l 281 1294 q 322 1201 281 1236 q 428 1165 363 1165 q 534 1201 493 1165 q 575 1294 575 1236 l 681 1294 q 617 1132 681 1196 m 581 26 q 548 5 581 26 q 428 -17 515 -17 q 274 26 340 -17 q 171 143 208 69 q 115 303 133 217 q 97 486 97 389 q 115 669 97 583 q 171 829 133 756 q 274 946 208 903 q 428 989 340 989 q 581 946 515 989 q 685 829 647 903 q 742 669 724 756 q 760 486 760 583 q 742 303 760 389 q 685 143 724 217 q 581 26 647 69 m 428 94 q 547 156 499 94 q 615 301 596 217 q 635 486 635 386 q 584 766 635 654 q 428 878 533 878 q 308 817 356 878 q 240 672 260 757 q 221 486 221 588 q 272 206 221 318 q 428 94 322 94 z "},"ŏ":{"ha":856,"x_min":96,"x_max":760,"o":"m 617 868 q 585 836 617 868 q 428 804 553 804 q 239 868 303 804 q 175 1031 175 932 l 281 1031 q 322 937 281 972 q 428 901 363 901 q 534 937 493 901 q 575 1031 575 972 l 681 1031 q 617 868 681 932 m 669 83 q 624 33 669 83 q 428 -17 579 -17 q 186 82 276 -17 q 96 354 96 181 q 186 626 96 526 q 428 726 276 726 q 670 628 581 726 q 760 356 760 529 q 669 83 760 183 m 428 93 q 583 163 528 93 q 639 356 639 233 q 585 549 639 479 q 428 618 531 618 q 271 549 325 618 q 217 354 217 481 q 272 163 217 232 q 428 93 326 93 z "},"Ő":{"ha":856,"x_min":97,"x_max":856,"o":"m 325 1064 l 208 1064 l 406 1281 l 572 1281 l 325 1064 m 608 1064 l 490 1064 l 688 1281 l 856 1281 l 608 1064 m 581 26 q 548 5 581 26 q 428 -17 515 -17 q 274 26 340 -17 q 171 143 208 69 q 115 303 133 217 q 97 486 97 389 q 115 669 97 583 q 171 829 133 756 q 274 946 208 903 q 428 989 340 989 q 581 946 515 989 q 685 829 647 903 q 742 669 724 756 q 760 486 760 583 q 742 303 760 389 q 685 143 724 217 q 581 26 647 69 m 428 94 q 547 156 499 94 q 615 301 596 217 q 635 486 635 386 q 584 766 635 654 q 428 878 533 878 q 308 817 356 878 q 240 672 260 757 q 221 486 221 588 q 272 206 221 318 q 428 94 322 94 z "},"ő":{"ha":856,"x_min":96,"x_max":831,"o":"m 300 800 l 183 800 l 381 1017 l 547 1017 l 300 800 m 583 800 l 465 800 l 663 1017 l 831 1017 l 583 800 m 669 83 q 624 33 669 83 q 428 -17 579 -17 q 186 82 276 -17 q 96 354 96 181 q 186 626 96 526 q 428 726 276 726 q 670 628 581 726 q 760 356 760 529 q 669 83 760 183 m 428 93 q 583 163 528 93 q 639 356 639 233 q 585 549 639 479 q 428 618 531 618 q 271 549 325 618 q 217 354 217 481 q 272 163 217 232 q 428 93 326 93 z "},"Œ":{"ha":856,"x_min":22,"x_max":839,"o":"m 839 114 l 839 0 l 432 0 q 340 -17 390 -17 q 155 60 229 -17 q 51 245 81 136 q 22 489 22 354 q 51 731 22 622 q 155 917 81 840 q 340 993 229 993 q 431 976 392 993 l 825 976 l 825 863 l 547 863 l 547 583 l 754 583 l 754 469 l 547 469 l 547 114 l 839 114 m 144 489 q 163 294 144 379 q 226 152 181 210 q 340 94 271 94 q 428 131 389 94 l 428 847 q 340 882 390 882 q 249 848 289 882 q 188 756 210 814 q 155 631 165 697 q 144 489 144 564 z "},"œ":{"ha":856,"x_min":32,"x_max":822,"o":"m 254 -17 q 92 79 151 -17 q 32 354 32 175 q 92 630 32 533 q 256 726 151 726 q 433 589 371 726 q 617 726 492 726 q 764 640 706 726 q 822 386 822 554 q 818 308 822 354 l 478 308 q 522 142 485 206 q 617 79 558 79 q 729 151 674 79 l 776 74 q 613 -17 706 -17 q 432 114 494 -17 q 254 -17 372 -17 m 254 79 q 348 153 314 79 q 382 356 382 228 q 349 558 382 485 q 254 631 315 631 q 163 558 196 631 q 131 354 131 486 q 163 153 131 226 q 254 79 196 79 m 478 403 l 725 403 q 692 577 725 524 q 613 631 660 631 q 519 573 556 631 q 478 403 482 515 z "},"Ŕ":{"ha":856,"x_min":133,"x_max":738,"o":"m 686 1281 l 439 1064 l 321 1064 l 518 1281 l 686 1281 m 738 696 q 685 526 738 601 q 525 426 633 450 l 733 0 l 601 0 l 399 417 l 253 417 l 253 0 l 133 0 l 133 972 l 432 972 q 666 894 594 972 q 738 696 738 815 m 253 863 l 253 526 l 435 526 q 576 574 532 526 q 619 693 619 622 q 576 811 619 760 q 435 863 533 863 l 253 863 z "},"ŕ":{"ha":856,"x_min":71,"x_max":758,"o":"m 682 1017 l 435 800 l 317 800 l 514 1017 l 682 1017 m 603 726 q 758 693 701 726 l 758 447 l 640 447 l 640 608 q 597 610 626 610 q 415 557 489 610 q 340 408 340 504 l 340 106 l 547 106 l 547 0 l 71 0 l 71 106 l 219 106 l 219 604 l 71 604 l 71 710 l 332 710 l 332 586 q 445 688 368 650 q 603 726 522 726 z "},"Ŗ":{"ha":856,"x_min":133,"x_max":738,"o":"m 738 696 q 685 526 738 601 q 525 426 633 450 l 733 0 l 601 0 l 399 417 l 253 417 l 253 0 l 133 0 l 133 972 l 432 972 q 666 894 594 972 q 738 696 738 815 m 253 863 l 253 526 l 435 526 q 576 574 532 526 q 619 693 619 622 q 576 811 619 760 q 435 863 533 863 l 253 863 m 424 -87 q 481 -112 457 -87 q 504 -175 504 -136 q 394 -362 504 -297 l 360 -346 q 418 -243 408 -310 q 365 -219 383 -242 q 347 -165 347 -197 q 370 -109 347 -131 q 424 -87 393 -87 z "},"ŗ":{"ha":856,"x_min":79,"x_max":767,"o":"m 611 726 q 767 693 710 726 l 767 447 l 649 447 l 649 608 q 606 610 635 610 q 423 557 497 610 q 349 408 349 504 l 349 106 l 556 106 l 556 0 l 79 0 l 79 106 l 228 106 l 228 604 l 79 604 l 79 710 l 340 710 l 340 586 q 453 688 376 650 q 611 726 531 726 m 315 -108 q 372 -133 349 -108 q 396 -196 396 -157 q 286 -383 396 -318 l 251 -367 q 310 -264 300 -331 q 257 -241 275 -262 q 239 -186 239 -219 q 262 -130 239 -151 q 315 -108 285 -108 z "},"Ř":{"ha":856,"x_min":133,"x_max":738,"o":"m 492 1054 l 364 1054 l 168 1271 l 278 1271 l 428 1142 l 578 1271 l 688 1271 l 492 1054 m 738 696 q 685 526 738 601 q 525 426 633 450 l 733 0 l 601 0 l 399 417 l 253 417 l 253 0 l 133 0 l 133 972 l 432 972 q 666 894 594 972 q 738 696 738 815 m 253 863 l 253 526 l 435 526 q 576 574 532 526 q 619 693 619 622 q 576 811 619 760 q 435 863 533 863 l 253 863 z "},"ř":{"ha":856,"x_min":65,"x_max":753,"o":"m 492 800 l 364 800 l 168 1017 l 278 1017 l 428 888 l 578 1017 l 688 1017 l 492 800 m 597 726 q 753 693 696 726 l 753 447 l 635 447 l 635 608 q 592 610 621 610 q 409 557 483 610 q 335 408 335 504 l 335 106 l 542 106 l 542 0 l 65 0 l 65 106 l 214 106 l 214 604 l 65 604 l 65 710 l 326 710 l 326 586 q 440 688 363 650 q 597 726 517 726 z "},"Ś":{"ha":856,"x_min":125,"x_max":728,"o":"m 329 1064 l 526 1281 l 694 1281 l 447 1064 l 329 1064 m 435 -17 q 240 44 324 -17 q 125 199 156 106 l 236 239 q 318 133 264 172 q 440 93 372 93 q 561 135 517 93 q 606 256 606 178 q 410 467 606 382 q 317 512 354 490 q 238 567 279 533 q 176 648 197 601 q 154 753 154 694 q 228 921 154 853 q 424 989 301 989 q 592 941 522 989 q 683 817 663 893 l 574 781 q 515 851 556 824 q 419 879 475 879 q 315 845 354 879 q 276 753 276 811 q 291 693 276 719 q 338 644 306 667 q 395 608 369 622 q 469 574 421 594 q 560 526 522 550 q 641 465 599 503 q 706 376 683 428 q 728 260 728 324 q 646 57 728 131 q 435 -17 564 -17 z "},"ś":{"ha":856,"x_min":160,"x_max":683,"o":"m 318 800 l 515 1017 l 683 1017 l 436 800 l 318 800 m 425 -17 q 277 17 347 -17 q 160 108 207 51 l 240 179 q 433 86 325 86 q 532 110 493 86 q 571 179 571 135 q 558 226 571 206 q 513 265 544 247 q 460 294 482 283 q 390 322 438 304 q 302 361 335 344 q 234 404 269 378 q 183 464 199 431 q 167 542 167 497 q 237 676 167 625 q 415 726 307 726 q 664 617 568 726 l 585 551 q 413 624 507 624 q 313 601 350 624 q 276 542 276 579 q 315 476 276 501 q 432 421 353 451 q 443 417 439 418 q 513 388 492 397 q 574 357 535 379 q 632 314 614 335 q 665 259 650 293 q 681 183 681 225 q 612 37 681 90 q 425 -17 543 -17 z "},"Ŝ":{"ha":856,"x_min":125,"x_max":728,"o":"m 579 1064 l 429 1193 l 279 1064 l 169 1064 l 367 1281 l 493 1281 l 689 1064 l 579 1064 m 435 -17 q 240 44 324 -17 q 125 199 156 106 l 236 239 q 318 133 264 172 q 440 93 372 93 q 561 135 517 93 q 606 256 606 178 q 410 467 606 382 q 317 512 354 490 q 238 567 279 533 q 176 648 197 601 q 154 753 154 694 q 228 921 154 853 q 424 989 301 989 q 592 941 522 989 q 683 817 663 893 l 574 781 q 515 851 556 824 q 419 879 475 879 q 315 845 354 879 q 276 753 276 811 q 291 693 276 719 q 338 644 306 667 q 395 608 369 622 q 469 574 421 594 q 560 526 522 550 q 641 465 599 503 q 706 376 683 428 q 728 260 728 324 q 646 57 728 131 q 435 -17 564 -17 z "},"ŝ":{"ha":856,"x_min":161,"x_max":688,"o":"m 578 800 l 428 929 l 278 800 l 168 800 l 365 1017 l 492 1017 l 688 800 l 578 800 m 426 -17 q 278 17 349 -17 q 161 108 208 51 l 242 179 q 435 86 326 86 q 533 110 494 86 q 572 179 572 135 q 559 226 572 206 q 515 265 546 247 q 461 294 483 283 q 392 322 439 304 q 303 361 336 344 q 235 404 271 378 q 184 464 200 431 q 168 542 168 497 q 238 676 168 625 q 417 726 308 726 q 665 617 569 726 l 586 551 q 414 624 508 624 q 315 601 351 624 q 278 542 278 579 q 316 476 278 501 q 433 421 354 451 q 444 417 440 418 q 515 388 493 397 q 576 357 536 379 q 633 314 615 335 q 667 259 651 293 q 682 183 682 225 q 613 37 682 90 q 426 -17 544 -17 z "},"Ş":{"ha":856,"x_min":146,"x_max":801,"o":"m 476 -329 q 346 -283 394 -329 l 414 -237 q 465 -254 428 -254 q 517 -235 496 -254 q 538 -187 538 -217 q 513 -142 538 -161 q 457 -124 489 -124 q 404 -135 422 -124 l 382 -107 l 454 -15 q 259 51 342 -8 q 146 199 176 111 l 257 239 q 347 134 288 172 q 486 96 407 96 q 627 137 576 96 q 678 257 678 178 q 465 464 678 388 q 360 508 401 488 q 271 562 318 528 q 199 644 224 596 q 175 753 175 692 q 256 921 175 853 q 472 989 336 989 q 658 941 582 989 q 756 817 735 893 l 646 781 q 581 849 626 822 q 467 876 535 876 q 342 844 386 876 q 299 753 299 811 q 353 653 299 692 q 510 576 407 615 q 614 531 571 554 q 704 472 657 508 q 776 381 751 435 q 801 260 801 328 q 726 68 801 140 q 528 -15 651 -4 l 493 -74 q 606 -107 569 -74 q 642 -189 642 -140 q 595 -290 642 -250 q 476 -329 549 -329 z "},"ş":{"ha":856,"x_min":222,"x_max":725,"o":"m 451 -329 q 322 -283 371 -329 l 389 -237 q 440 -254 403 -254 q 492 -235 471 -254 q 513 -187 513 -217 q 488 -142 513 -161 q 432 -124 464 -124 q 379 -135 397 -124 l 358 -107 l 432 -12 q 222 108 301 10 l 303 178 q 483 86 383 86 q 577 110 540 86 q 614 179 614 135 q 601 228 614 207 q 560 268 589 250 q 510 297 532 286 q 444 324 488 307 q 283 413 338 367 q 229 542 229 458 q 296 676 229 625 q 467 726 363 726 q 704 617 613 726 l 626 551 q 464 624 551 624 q 374 601 407 624 q 340 540 340 579 q 365 487 340 511 q 418 449 390 463 q 497 417 446 436 q 581 382 549 397 q 650 340 613 367 q 706 274 688 313 q 725 183 725 235 q 665 44 725 96 q 503 -15 606 -8 l 468 -74 q 581 -107 544 -74 q 617 -189 617 -140 q 570 -290 617 -250 q 451 -329 524 -329 z "},"Š":{"ha":856,"x_min":125,"x_max":728,"o":"m 364 1054 l 168 1271 l 278 1271 l 428 1142 l 578 1271 l 688 1271 l 492 1054 l 364 1054 m 435 -17 q 240 44 324 -17 q 125 199 156 106 l 236 239 q 318 133 264 172 q 440 93 372 93 q 561 135 517 93 q 606 256 606 178 q 410 467 606 382 q 317 512 354 490 q 238 567 279 533 q 176 648 197 601 q 154 753 154 694 q 228 921 154 853 q 424 989 301 989 q 592 941 522 989 q 683 817 663 893 l 574 781 q 515 851 556 824 q 419 879 475 879 q 315 845 354 879 q 276 753 276 811 q 291 693 276 719 q 338 644 306 667 q 395 608 369 622 q 469 574 421 594 q 560 526 522 550 q 641 465 599 503 q 706 376 683 428 q 728 260 728 324 q 646 57 728 131 q 435 -17 564 -17 z "},"š":{"ha":856,"x_min":160,"x_max":688,"o":"m 492 800 l 364 800 l 168 1017 l 278 1017 l 428 888 l 578 1017 l 688 1017 l 492 800 m 425 -17 q 277 17 347 -17 q 160 108 207 51 l 240 179 q 433 86 325 86 q 532 110 493 86 q 571 179 571 135 q 558 226 571 206 q 513 265 544 247 q 460 294 482 283 q 390 322 438 304 q 302 361 335 344 q 234 404 269 378 q 183 464 199 431 q 167 542 167 497 q 237 676 167 625 q 415 726 307 726 q 664 617 568 726 l 585 551 q 413 624 507 624 q 313 601 350 624 q 276 542 276 579 q 315 476 276 501 q 432 421 353 451 q 443 417 439 418 q 513 388 492 397 q 574 357 535 379 q 632 314 614 335 q 665 259 650 293 q 681 183 681 225 q 612 37 681 90 q 425 -17 543 -17 z "},"Ţ":{"ha":856,"x_min":143,"x_max":803,"o":"m 446 -329 q 317 -283 365 -329 l 383 -237 q 435 -254 397 -254 q 486 -235 465 -254 q 507 -187 507 -217 q 483 -142 507 -161 q 426 -124 458 -124 q 374 -135 392 -124 l 353 -107 l 439 0 l 413 0 l 413 860 l 143 860 l 143 972 l 803 972 l 803 860 l 532 860 l 532 0 l 507 0 l 463 -74 q 575 -107 539 -74 q 611 -189 611 -140 q 565 -290 611 -250 q 446 -329 518 -329 z "},"ţ":{"ha":856,"x_min":267,"x_max":679,"o":"m 479 -329 q 349 -283 397 -329 l 417 -237 q 468 -254 431 -254 q 519 -235 499 -254 q 540 -187 540 -217 q 516 -142 540 -161 q 460 -124 492 -124 q 407 -135 425 -124 l 385 -107 l 465 -4 q 382 153 382 28 l 382 604 l 267 604 l 267 710 l 382 710 l 382 944 l 500 1003 l 500 710 l 675 710 l 675 604 l 500 604 l 500 190 q 515 117 500 143 q 571 92 529 92 q 679 131 617 92 l 667 15 q 547 -15 611 -14 q 529 -15 536 -18 l 494 -74 q 607 -107 571 -74 q 643 -189 643 -140 q 597 -290 643 -250 q 479 -329 551 -329 z "},"Ť":{"ha":856,"x_min":89,"x_max":767,"o":"m 364 1054 l 168 1271 l 278 1271 l 428 1142 l 578 1271 l 688 1271 l 492 1054 l 364 1054 m 368 0 l 368 857 l 89 857 l 89 972 l 767 972 l 767 857 l 488 857 l 488 0 l 368 0 z "},"ť":{"ha":856,"x_min":110,"x_max":678,"o":"m 556 839 l 521 865 q 551 992 539 904 q 563 1167 563 1081 l 678 1167 l 678 1156 q 556 839 678 960 m 453 -17 q 272 161 272 -17 l 272 604 l 110 604 l 110 710 l 272 710 l 272 944 l 390 1003 l 390 710 l 629 710 l 629 604 l 390 604 l 390 199 q 412 119 390 146 q 493 92 433 92 q 624 131 558 92 l 610 15 q 453 -17 549 -17 z "},"Ŧ":{"ha":856,"x_min":97,"x_max":757,"o":"m 367 0 l 367 385 l 193 385 l 193 497 l 367 497 l 367 857 l 97 857 l 97 972 l 757 972 l 757 857 l 486 857 l 486 497 l 660 497 l 660 385 l 486 385 l 486 0 l 367 0 z "},"ŧ":{"ha":856,"x_min":149,"x_max":668,"o":"m 668 604 l 429 604 l 429 421 l 668 421 l 668 315 l 429 315 l 429 199 q 451 119 429 146 q 532 92 472 92 q 663 131 597 92 l 649 15 q 492 -17 588 -17 q 311 161 311 -17 l 311 315 l 149 315 l 149 421 l 311 421 l 311 604 l 149 604 l 149 710 l 311 710 l 311 944 l 429 1003 l 429 710 l 668 710 l 668 604 z "},"Ũ":{"ha":856,"x_min":115,"x_max":742,"o":"m 538 1093 q 412 1127 485 1093 q 308 1161 339 1161 q 243 1099 247 1161 l 182 1099 q 318 1261 182 1261 q 444 1227 371 1261 q 547 1193 517 1193 q 593 1209 575 1193 q 613 1256 611 1225 l 674 1256 q 538 1093 674 1093 m 428 -17 q 115 368 115 -17 l 115 972 l 235 972 l 235 368 q 428 94 235 94 q 621 368 621 94 l 621 972 l 742 972 l 742 368 q 658 76 742 168 q 428 -17 575 -17 z "},"ũ":{"ha":856,"x_min":140,"x_max":715,"o":"m 538 829 q 412 863 485 829 q 308 897 339 897 q 243 835 247 897 l 182 835 q 318 997 182 997 q 444 963 371 997 q 547 929 517 929 q 593 945 575 929 q 613 992 611 961 l 674 992 q 538 829 674 829 m 407 -17 q 206 60 272 -17 q 140 310 140 138 l 140 710 l 260 710 l 260 294 q 303 142 260 190 q 421 94 347 94 q 594 292 594 94 l 594 710 l 715 710 l 715 0 l 594 0 l 594 69 q 407 -17 528 -17 z "},"Ū":{"ha":856,"x_min":115,"x_max":742,"o":"m 199 1103 l 199 1203 l 657 1203 l 657 1103 l 199 1103 m 428 -17 q 115 368 115 -17 l 115 972 l 235 972 l 235 368 q 428 94 235 94 q 621 368 621 94 l 621 972 l 742 972 l 742 368 q 658 76 742 168 q 428 -17 575 -17 z "},"ū":{"ha":856,"x_min":140,"x_max":715,"o":"m 197 839 l 197 939 l 656 939 l 656 839 l 197 839 m 407 -17 q 206 60 272 -17 q 140 310 140 138 l 140 710 l 260 710 l 260 294 q 303 142 260 190 q 421 94 347 94 q 594 292 594 94 l 594 710 l 715 710 l 715 0 l 594 0 l 594 69 q 407 -17 528 -17 z "},"Ŭ":{"ha":856,"x_min":115,"x_max":742,"o":"m 617 1132 q 585 1100 617 1132 q 428 1068 553 1068 q 239 1132 303 1068 q 175 1294 175 1196 l 281 1294 q 322 1201 281 1236 q 428 1165 363 1165 q 534 1201 493 1165 q 575 1294 575 1236 l 681 1294 q 617 1132 681 1196 m 428 -17 q 115 368 115 -17 l 115 972 l 235 972 l 235 368 q 428 94 235 94 q 621 368 621 94 l 621 972 l 742 972 l 742 368 q 658 76 742 168 q 428 -17 575 -17 z "},"ŭ":{"ha":856,"x_min":140,"x_max":715,"o":"m 615 868 q 583 836 615 868 q 426 804 551 804 q 238 868 301 804 q 174 1031 174 932 l 279 1031 q 320 937 279 972 q 426 901 361 901 q 533 937 492 901 q 574 1031 574 972 l 679 1031 q 615 868 679 932 m 407 -17 q 206 60 272 -17 q 140 310 140 138 l 140 710 l 260 710 l 260 294 q 303 142 260 190 q 421 94 347 94 q 594 292 594 94 l 594 710 l 715 710 l 715 0 l 594 0 l 594 69 q 407 -17 528 -17 z "},"Ů":{"ha":856,"x_min":115,"x_max":742,"o":"m 428 1008 q 312 1057 361 1008 q 263 1172 263 1106 q 311 1285 263 1239 q 428 1332 360 1332 q 544 1285 496 1332 q 593 1172 593 1239 q 544 1057 593 1106 q 428 1008 496 1008 m 428 1094 q 479 1117 458 1094 q 500 1172 500 1139 q 479 1226 500 1206 q 428 1247 458 1247 q 376 1226 397 1247 q 356 1172 356 1206 q 377 1117 356 1139 q 428 1094 399 1094 m 428 -17 q 115 368 115 -17 l 115 972 l 235 972 l 235 368 q 428 94 235 94 q 621 368 621 94 l 621 972 l 742 972 l 742 368 q 658 76 742 168 q 428 -17 575 -17 z "},"ů":{"ha":856,"x_min":140,"x_max":715,"o":"m 428 744 q 312 793 361 744 q 263 908 263 842 q 311 1022 263 975 q 428 1068 360 1068 q 544 1022 496 1068 q 593 908 593 975 q 544 793 593 842 q 428 744 496 744 m 428 831 q 479 853 458 831 q 500 908 500 875 q 479 963 500 942 q 428 983 458 983 q 376 963 397 983 q 356 908 356 942 q 377 853 356 875 q 428 831 399 831 m 407 -17 q 206 60 272 -17 q 140 310 140 138 l 140 710 l 260 710 l 260 294 q 303 142 260 190 q 421 94 347 94 q 594 292 594 94 l 594 710 l 715 710 l 715 0 l 594 0 l 594 69 q 407 -17 528 -17 z "},"Ű":{"ha":856,"x_min":99,"x_max":818,"o":"m 288 1064 l 171 1064 l 368 1281 l 535 1281 l 288 1064 m 571 1064 l 453 1064 l 650 1281 l 818 1281 l 571 1064 m 411 -17 q 99 368 99 -17 l 99 972 l 218 972 l 218 368 q 411 94 218 94 q 604 368 604 94 l 604 972 l 725 972 l 725 368 q 642 76 725 168 q 411 -17 558 -17 z "},"ű":{"ha":856,"x_min":96,"x_max":799,"o":"m 268 800 l 151 800 l 349 1017 l 515 1017 l 268 800 m 551 800 l 433 800 l 631 1017 l 799 1017 l 551 800 m 363 -17 q 162 60 228 -17 q 96 310 96 138 l 96 710 l 215 710 l 215 294 q 259 142 215 190 q 376 94 303 94 q 550 292 550 94 l 550 710 l 671 710 l 671 0 l 550 0 l 550 69 q 363 -17 483 -17 z "},"Ų":{"ha":856,"x_min":115,"x_max":742,"o":"m 621 972 l 742 972 l 742 368 q 551 3 742 71 q 397 -176 397 -69 q 417 -232 397 -214 q 467 -250 438 -250 q 538 -219 510 -250 l 599 -265 q 454 -329 543 -329 q 342 -292 386 -329 q 297 -189 297 -254 q 417 -17 297 -83 q 115 368 115 -10 l 115 972 l 235 972 l 235 368 q 428 94 235 94 q 621 368 621 94 l 621 972 z "},"ų":{"ha":856,"x_min":140,"x_max":722,"o":"m 579 -343 q 465 -306 510 -343 q 421 -203 421 -268 q 467 -84 421 -137 q 594 0 513 -31 l 594 69 q 407 -17 528 -17 q 206 60 272 -17 q 140 310 140 138 l 140 710 l 260 710 l 260 294 q 303 142 260 190 q 421 94 347 94 q 594 292 594 94 l 594 710 l 715 710 l 715 0 q 572 -76 624 -21 q 521 -190 521 -132 q 541 -246 521 -228 q 590 -264 561 -264 q 661 -233 633 -264 l 722 -279 q 579 -343 667 -343 z "},"Ŵ":{"ha":856,"x_min":54,"x_max":801,"o":"m 578 1064 l 428 1193 l 278 1064 l 168 1064 l 365 1281 l 492 1281 l 688 1064 l 578 1064 m 207 0 l 54 972 l 168 972 l 258 331 q 262 298 260 319 q 265 268 264 276 q 276 331 269 300 l 388 972 l 471 972 l 582 338 q 592 281 586 315 q 599 336 593 308 l 686 972 l 801 972 l 649 0 l 551 0 l 438 638 q 433 669 436 647 q 428 703 429 690 q 418 640 422 658 l 304 0 l 207 0 z "},"ŵ":{"ha":856,"x_min":35,"x_max":821,"o":"m 578 800 l 428 929 l 278 800 l 168 800 l 365 1017 l 492 1017 l 688 800 l 578 800 m 213 0 l 35 710 l 150 710 l 257 249 l 268 190 q 279 253 279 249 l 381 710 l 475 710 l 578 251 q 590 186 583 225 q 603 251 593 215 l 706 710 l 821 710 l 643 0 l 542 0 l 442 440 l 426 515 q 413 443 422 490 l 315 0 l 213 0 z "},"Ŷ":{"ha":856,"x_min":89,"x_max":767,"o":"m 428 1193 l 278 1064 l 168 1064 l 365 1281 l 492 1281 l 688 1064 l 578 1064 l 428 1193 m 639 972 l 767 972 l 489 383 l 489 0 l 369 0 l 369 383 l 89 972 l 222 972 l 429 501 l 639 972 z "},"ŷ":{"ha":856,"x_min":107,"x_max":747,"o":"m 574 800 l 424 929 l 274 800 l 164 800 l 361 1017 l 488 1017 l 683 800 l 574 800 m 263 -269 l 369 19 l 107 710 l 228 710 l 401 229 q 424 158 411 203 q 431 181 426 167 q 440 208 436 196 q 447 229 444 219 l 624 710 l 747 710 l 382 -269 l 263 -269 z "},"Ÿ":{"ha":856,"x_min":89,"x_max":767,"o":"m 308 1097 q 256 1118 278 1097 q 235 1171 235 1139 q 256 1224 235 1203 q 308 1246 276 1246 q 362 1224 340 1246 q 383 1171 383 1203 q 362 1118 383 1139 q 308 1097 340 1097 m 547 1097 q 495 1118 517 1097 q 474 1171 474 1139 q 494 1224 474 1203 q 547 1246 515 1246 q 601 1224 579 1246 q 622 1171 622 1203 q 601 1118 622 1139 q 547 1097 579 1097 m 639 972 l 767 972 l 489 383 l 489 0 l 369 0 l 369 383 l 89 972 l 222 972 l 429 501 l 639 972 z "},"Ź":{"ha":856,"x_min":115,"x_max":743,"o":"m 707 1288 l 460 1071 l 342 1071 l 539 1288 l 707 1288 m 743 972 l 743 883 l 268 114 l 739 114 l 739 0 l 115 0 l 115 88 l 590 860 l 146 860 l 146 972 l 743 972 z "},"ź":{"ha":856,"x_min":161,"x_max":707,"o":"m 342 800 l 539 1017 l 707 1017 l 460 800 l 342 800 m 161 0 l 161 81 l 540 604 l 189 604 l 189 710 l 694 710 l 694 632 l 314 106 l 693 106 l 693 0 l 161 0 z "},"Ż":{"ha":856,"x_min":115,"x_max":743,"o":"m 442 1097 q 390 1118 411 1097 q 368 1171 368 1139 q 389 1224 368 1203 q 442 1246 410 1246 q 495 1224 474 1246 q 517 1171 517 1203 q 495 1118 517 1139 q 442 1097 474 1097 m 743 972 l 743 883 l 268 114 l 739 114 l 739 0 l 115 0 l 115 88 l 590 860 l 146 860 l 146 972 l 743 972 z "},"ż":{"ha":856,"x_min":161,"x_max":694,"o":"m 488 854 q 477 844 488 854 q 435 833 467 833 q 382 854 403 833 q 361 907 361 875 q 382 960 361 939 q 435 982 403 982 q 488 960 467 982 q 510 907 510 939 q 488 854 510 875 m 161 0 l 161 81 l 540 604 l 189 604 l 189 710 l 694 710 l 694 632 l 314 106 l 693 106 l 693 0 l 161 0 z "},"Ž":{"ha":856,"x_min":115,"x_max":743,"o":"m 510 1064 l 382 1064 l 186 1281 l 296 1281 l 446 1151 l 596 1281 l 706 1281 l 510 1064 m 743 972 l 743 883 l 268 114 l 739 114 l 739 0 l 115 0 l 115 88 l 590 860 l 146 860 l 146 972 l 743 972 z "},"ž":{"ha":856,"x_min":140,"x_max":674,"o":"m 475 800 l 347 800 l 151 1017 l 261 1017 l 411 888 l 561 1017 l 671 1017 l 475 800 m 140 0 l 140 81 l 519 604 l 168 604 l 168 710 l 674 710 l 674 632 l 293 106 l 672 106 l 672 0 l 140 0 z "},"ſ":{"ha":856,"x_min":331,"x_max":615,"o":"m 331 0 l 331 828 q 375 951 331 913 q 485 989 419 989 q 615 956 556 989 l 615 856 q 514 882 563 882 q 463 863 476 882 q 449 807 449 844 l 449 0 l 331 0 z "},"Ə":{"ha":856,"x_min":96,"x_max":760,"o":"m 426 989 q 669 853 578 989 q 760 485 760 718 q 666 117 760 251 q 417 -17 572 -17 q 185 108 274 -17 q 96 450 96 232 q 99 540 96 503 l 633 540 q 567 788 622 701 q 422 875 511 875 q 236 789 325 875 l 165 876 q 426 989 278 989 m 417 94 q 636 431 625 94 l 222 431 q 273 183 221 271 q 417 94 325 94 z "},"ƒ":{"ha":856,"x_min":197,"x_max":658,"o":"m 253 -307 l 197 -214 q 334 -167 294 -201 q 374 -75 374 -132 l 374 604 l 264 604 l 264 710 l 374 710 l 374 828 q 418 951 374 913 q 528 989 463 989 q 658 956 599 989 l 658 856 q 557 882 601 882 q 505 863 518 882 q 492 807 492 843 l 492 710 l 658 710 l 658 604 l 492 604 l 492 -36 q 253 -307 492 -276 z "},"Ǎ":{"ha":856,"x_min":56,"x_max":800,"o":"m 488 1064 l 360 1064 l 164 1281 l 274 1281 l 424 1151 l 574 1281 l 683 1281 l 488 1064 m 675 0 l 600 239 l 257 239 l 183 0 l 56 0 l 376 972 l 478 972 l 800 0 l 675 0 m 290 346 l 565 346 l 453 701 q 426 796 436 756 q 401 701 421 763 l 290 346 z "},"ǎ":{"ha":856,"x_min":121,"x_max":707,"o":"m 511 800 l 383 800 l 188 1017 l 297 1017 l 447 888 l 597 1017 l 707 1017 l 511 800 m 375 -17 q 190 45 260 -17 q 121 222 121 107 q 199 397 121 338 q 393 457 278 457 q 585 411 499 457 l 585 465 q 435 624 585 624 q 210 549 325 624 l 175 647 q 446 726 303 726 q 532 716 492 726 q 612 680 572 706 q 674 601 651 654 q 697 474 697 549 l 697 0 l 585 0 l 585 65 q 375 -17 496 -17 m 390 86 q 585 183 501 86 l 585 306 q 407 356 503 356 q 282 322 332 356 q 232 222 232 288 q 274 124 232 161 q 390 86 315 86 z "},"Ǐ":{"ha":856,"x_min":146,"x_max":710,"o":"m 492 1064 l 364 1064 l 168 1281 l 278 1281 l 428 1151 l 578 1281 l 688 1281 l 492 1064 m 710 863 l 488 863 l 488 110 l 710 110 l 710 0 l 146 0 l 146 110 l 368 110 l 368 863 l 146 863 l 146 972 l 710 972 l 710 863 z "},"ǐ":{"ha":856,"x_min":168,"x_max":700,"o":"m 492 800 l 364 800 l 168 1017 l 278 1017 l 428 888 l 578 1017 l 688 1017 l 492 800 m 504 106 l 700 106 l 700 0 l 190 0 l 190 106 l 386 106 l 386 622 l 190 622 l 190 728 l 504 728 l 504 106 z "},"Ǒ":{"ha":856,"x_min":97,"x_max":760,"o":"m 492 1064 l 364 1064 l 168 1281 l 278 1281 l 428 1151 l 578 1281 l 688 1281 l 492 1064 m 581 26 q 548 5 581 26 q 428 -17 515 -17 q 274 26 340 -17 q 171 143 208 69 q 115 303 133 217 q 97 486 97 389 q 115 669 97 583 q 171 829 133 756 q 274 946 208 903 q 428 989 340 989 q 581 946 515 989 q 685 829 647 903 q 742 669 724 756 q 760 486 760 583 q 742 303 760 389 q 685 143 724 217 q 581 26 647 69 m 428 94 q 547 156 499 94 q 615 301 596 217 q 635 486 635 386 q 584 766 635 654 q 428 878 533 878 q 308 817 356 878 q 240 672 260 757 q 221 486 221 588 q 272 206 221 318 q 428 94 322 94 z "},"ǒ":{"ha":856,"x_min":94,"x_max":758,"o":"m 492 800 l 364 800 l 168 1017 l 278 1017 l 428 888 l 578 1017 l 688 1017 l 492 800 m 668 83 q 623 33 668 83 q 426 -17 578 -17 q 185 82 275 -17 q 94 354 94 181 q 185 626 94 526 q 426 726 275 726 q 669 628 579 726 q 758 356 758 529 q 668 83 758 183 m 426 93 q 582 163 526 93 q 638 356 638 233 q 583 549 638 479 q 426 618 529 618 q 269 549 324 618 q 215 354 215 481 q 270 163 215 232 q 426 93 325 93 z "},"Ǔ":{"ha":856,"x_min":115,"x_max":742,"o":"m 492 1064 l 364 1064 l 168 1281 l 278 1281 l 428 1151 l 578 1281 l 688 1281 l 492 1064 m 428 -17 q 115 368 115 -17 l 115 972 l 235 972 l 235 368 q 428 94 235 94 q 621 368 621 94 l 621 972 l 742 972 l 742 368 q 658 76 742 168 q 428 -17 575 -17 z "},"ǔ":{"ha":856,"x_min":140,"x_max":715,"o":"m 490 800 l 363 800 l 167 1017 l 276 1017 l 426 888 l 576 1017 l 686 1017 l 490 800 m 407 -17 q 206 60 272 -17 q 140 310 140 138 l 140 710 l 260 710 l 260 294 q 303 142 260 190 q 421 94 347 94 q 594 292 594 94 l 594 710 l 715 710 l 715 0 l 594 0 l 594 69 q 407 -17 528 -17 z "},"Ǻ":{"ha":856,"x_min":56,"x_max":800,"o":"m 721 1475 l 474 1258 l 356 1258 l 553 1475 l 721 1475 m 675 0 l 600 239 l 257 239 l 183 0 l 56 0 l 354 907 q 288 967 314 928 q 263 1053 263 1007 q 311 1166 263 1119 q 428 1213 360 1213 q 544 1166 496 1213 q 593 1053 593 1119 q 567 966 593 1006 q 500 906 542 926 l 800 0 l 675 0 m 479 1107 q 469 1117 479 1107 q 428 1128 458 1128 q 376 1107 397 1128 q 356 1053 356 1086 q 377 997 356 1019 q 428 975 399 975 q 479 997 458 975 q 500 1053 500 1019 q 479 1107 500 1086 m 290 346 l 565 346 l 453 701 q 426 796 436 756 q 401 701 421 763 l 290 346 z "},"ǻ":{"ha":856,"x_min":126,"x_max":732,"o":"m 367 1189 l 564 1406 l 732 1406 l 485 1189 l 367 1189 m 453 793 q 337 842 386 793 q 288 957 288 890 q 336 1070 288 1024 q 453 1117 385 1117 q 569 1070 521 1117 q 618 957 618 1024 q 569 842 618 890 q 453 793 521 793 m 453 879 q 504 901 483 879 q 525 957 525 924 q 504 1011 525 990 q 453 1032 483 1032 q 401 1011 422 1032 q 381 957 381 990 q 402 901 381 924 q 453 879 424 879 m 381 -17 q 196 45 265 -17 q 126 222 126 107 q 205 397 126 338 q 399 457 283 457 q 590 411 504 457 l 590 465 q 440 624 590 624 q 215 549 331 624 l 181 647 q 451 726 308 726 q 538 716 497 726 q 617 680 578 706 q 680 601 657 654 q 703 474 703 549 l 703 0 l 590 0 l 590 65 q 381 -17 501 -17 m 396 86 q 590 183 507 86 l 590 306 q 413 356 508 356 q 288 322 338 356 q 238 222 238 288 q 279 124 238 161 q 396 86 321 86 z "},"Ǽ":{"ha":856,"x_min":0,"x_max":861,"o":"m 861 1288 l 614 1071 l 496 1071 l 693 1288 l 861 1288 m 586 447 l 586 114 l 853 114 l 853 0 l 471 0 l 471 239 l 229 239 l 131 0 l 0 0 l 419 972 l 822 972 l 822 860 l 586 860 l 586 558 l 769 558 l 769 447 l 586 447 m 274 346 l 471 347 l 471 833 q 447 768 461 804 l 274 346 z "},"ǽ":{"ha":856,"x_min":38,"x_max":817,"o":"m 354 800 l 551 1017 l 719 1017 l 472 800 l 354 800 m 224 -17 q 88 45 139 -17 q 38 222 38 107 q 95 398 38 338 q 238 458 153 458 q 367 413 306 458 l 367 461 q 260 629 367 629 q 104 550 183 629 l 78 647 q 271 726 171 726 q 428 618 383 726 q 604 726 490 726 q 758 638 699 726 q 817 386 817 549 q 814 308 817 339 l 463 308 q 508 146 465 213 q 604 79 550 79 q 722 150 665 79 l 771 74 q 600 -17 696 -17 q 494 20 542 -17 q 418 119 446 57 q 330 17 383 51 q 224 -17 276 -17 m 461 406 l 717 406 q 681 575 715 522 q 600 628 646 628 q 505 571 543 628 q 461 406 467 514 m 236 79 q 316 116 278 79 q 379 201 354 153 q 367 307 367 246 q 247 363 311 363 q 169 327 200 363 q 138 222 138 292 q 163 118 138 157 q 236 79 189 79 z "},"Ǿ":{"ha":856,"x_min":32,"x_max":825,"o":"m 701 1288 l 454 1071 l 336 1071 l 533 1288 l 701 1288 m 825 989 l 700 801 q 760 486 760 672 q 742 303 760 389 q 685 143 724 217 q 581 26 647 69 q 428 -17 515 -17 q 215 79 297 -17 l 151 -17 l 32 -17 l 157 171 q 97 486 97 300 q 115 669 97 583 q 171 829 133 756 q 274 946 208 903 q 428 989 340 989 q 640 894 557 989 l 703 989 l 825 989 m 221 486 q 240 296 221 378 l 571 790 q 428 878 517 878 q 308 817 356 878 q 240 672 260 757 q 221 486 221 588 m 635 486 q 615 676 635 594 l 285 182 q 428 94 336 94 q 547 156 499 94 q 615 301 596 217 q 635 486 635 386 z "},"ǿ":{"ha":856,"x_min":96,"x_max":760,"o":"m 690 1017 l 443 800 l 325 800 l 522 1017 l 690 1017 m 669 629 q 760 356 760 528 q 669 83 760 183 q 428 -17 579 -17 q 256 26 331 -17 l 226 -17 l 118 -17 l 186 82 q 96 354 96 183 q 186 626 96 526 q 428 726 276 726 q 599 685 528 726 l 628 726 l 736 726 l 669 629 m 217 354 q 256 185 217 251 l 535 592 q 428 618 489 618 q 271 549 325 618 q 217 354 217 481 m 428 93 q 583 163 528 93 q 639 356 639 233 q 599 526 639 461 l 319 119 q 428 93 368 93 z "},"Ș":{"ha":856,"x_min":125,"x_max":728,"o":"m 435 -17 q 240 44 324 -17 q 125 199 156 106 l 236 239 q 318 133 264 172 q 440 93 372 93 q 561 135 517 93 q 606 256 606 178 q 410 467 606 382 q 317 512 354 490 q 238 567 279 533 q 176 648 197 601 q 154 753 154 694 q 228 921 154 853 q 424 989 301 989 q 592 941 522 989 q 683 817 663 893 l 574 781 q 515 851 556 824 q 419 879 475 879 q 315 845 354 879 q 276 753 276 811 q 291 693 276 719 q 338 644 306 667 q 395 608 369 622 q 469 574 421 594 q 560 526 522 550 q 641 465 599 503 q 706 376 683 428 q 728 260 728 324 q 646 57 728 131 q 435 -17 564 -17 m 399 -362 l 364 -346 q 422 -243 413 -310 q 369 -219 388 -242 q 351 -165 351 -197 q 374 -109 351 -131 q 428 -87 397 -87 q 485 -112 461 -87 q 508 -175 508 -136 q 399 -362 508 -297 z "},"ș":{"ha":856,"x_min":160,"x_max":681,"o":"m 425 -17 q 277 17 347 -17 q 160 108 207 51 l 240 179 q 433 86 325 86 q 532 110 493 86 q 571 179 571 135 q 558 226 571 206 q 513 265 544 247 q 460 294 482 283 q 390 322 438 304 q 302 361 335 344 q 234 404 269 378 q 183 464 199 431 q 167 542 167 497 q 237 676 167 625 q 415 726 307 726 q 664 617 568 726 l 585 551 q 413 624 507 624 q 313 601 350 624 q 276 542 276 579 q 315 476 276 501 q 432 421 353 451 q 443 417 439 418 q 513 388 492 397 q 574 357 535 379 q 632 314 614 335 q 665 259 650 293 q 681 183 681 225 q 612 37 681 90 q 425 -17 543 -17 m 389 -362 l 354 -346 q 413 -243 403 -310 q 360 -219 378 -242 q 342 -165 342 -197 q 365 -109 342 -131 q 418 -87 388 -87 q 475 -112 451 -87 q 499 -175 499 -136 q 389 -362 499 -297 z "},"Ț":{"ha":856,"x_min":89,"x_max":767,"o":"m 368 0 l 368 857 l 89 857 l 89 972 l 767 972 l 767 857 l 488 857 l 488 0 l 368 0 m 397 -362 l 363 -346 q 421 -243 411 -310 q 368 -219 386 -242 q 350 -165 350 -197 q 373 -109 350 -131 q 426 -87 396 -87 q 483 -112 460 -87 q 507 -175 507 -136 q 397 -362 507 -297 z "},"ț":{"ha":856,"x_min":149,"x_max":668,"o":"m 492 -17 q 311 161 311 -17 l 311 604 l 149 604 l 149 710 l 311 710 l 311 944 l 429 1003 l 429 710 l 668 710 l 668 604 l 429 604 l 429 199 q 451 119 429 146 q 532 92 472 92 q 663 131 597 92 l 649 15 q 492 -17 588 -17 m 439 -362 l 404 -346 q 463 -243 453 -310 q 410 -219 428 -242 q 392 -165 392 -197 q 415 -109 392 -131 q 468 -87 438 -87 q 525 -112 501 -87 q 549 -175 549 -136 q 439 -362 549 -297 z "},"ȷ":{"ha":856,"x_min":225,"x_max":550,"o":"m 550 710 l 550 -24 q 490 -215 550 -151 q 282 -296 422 -285 l 225 -199 q 390 -145 347 -183 q 432 -17 432 -107 l 432 604 l 236 604 l 236 710 l 550 710 z "},"ə":{"ha":856,"x_min":118,"x_max":739,"o":"m 422 726 q 655 625 571 726 q 739 354 739 524 q 652 82 739 181 q 422 -17 565 -17 q 203 73 289 -17 q 118 326 118 163 q 121 403 118 369 l 618 403 q 419 619 593 619 q 246 560 321 619 l 178 636 q 422 726 283 726 m 422 89 q 562 144 511 89 q 619 299 613 200 l 236 299 q 292 139 238 189 q 422 89 347 89 z "},"ʰ":{"ha":856,"x_min":194,"x_max":674,"o":"m 456 989 q 617 927 560 989 q 674 744 674 865 l 674 390 l 571 390 l 571 725 q 536 851 571 808 q 439 894 501 894 q 297 739 297 894 l 297 390 l 194 390 l 194 1178 l 293 1222 l 293 913 q 456 989 349 989 z "},"ʲ":{"ha":856,"x_min":206,"x_max":493,"o":"m 474 1095 q 465 1086 474 1095 q 428 1076 456 1076 q 381 1095 400 1076 q 363 1142 363 1114 q 381 1189 363 1169 q 428 1208 400 1208 q 474 1189 456 1208 q 493 1142 493 1169 q 474 1095 493 1114 m 478 972 l 479 365 q 431 206 479 256 q 253 138 371 146 l 206 222 q 342 266 307 235 q 376 372 376 297 l 376 882 l 217 882 l 217 972 l 478 972 z "},"ʷ":{"ha":856,"x_min":99,"x_max":756,"o":"m 244 390 l 99 972 l 200 972 l 286 599 l 294 551 q 299 576 296 560 q 304 601 301 593 l 385 972 l 471 972 l 551 600 q 558 572 554 592 q 563 547 561 551 q 572 600 567 575 l 657 972 l 756 972 l 610 390 l 519 390 l 439 757 q 426 818 436 769 q 414 758 418 774 l 336 390 l 244 390 z "},"ʸ":{"ha":856,"x_min":163,"x_max":708,"o":"m 603 972 l 708 972 l 408 167 l 303 167 l 385 388 l 163 972 l 274 972 l 435 521 l 603 972 z "},"ˆ":{"ha":856,"x_min":168,"x_max":688,"o":"m 578 800 l 428 929 l 278 800 l 168 800 l 365 1017 l 492 1017 l 688 800 l 578 800 z "},"ˇ":{"ha":856,"x_min":168,"x_max":688,"o":"m 492 800 l 364 800 l 168 1017 l 278 1017 l 428 888 l 578 1017 l 688 1017 l 492 800 z "},"ˉ":{"ha":856,"x_min":244,"x_max":703,"o":"m 244 839 l 244 939 l 703 939 l 703 839 l 244 839 z "},"˖":{"ha":856,"x_min":164,"x_max":692,"o":"m 475 731 l 475 514 l 378 514 l 378 731 l 164 731 l 164 824 l 378 824 l 378 1042 l 475 1042 l 475 824 l 692 824 l 692 731 l 475 731 z "},"˘":{"ha":856,"x_min":175,"x_max":681,"o":"m 617 868 q 585 836 617 868 q 428 804 553 804 q 239 868 303 804 q 175 1031 175 932 l 281 1031 q 322 937 281 972 q 428 901 363 901 q 534 937 493 901 q 575 1031 575 972 l 681 1031 q 617 868 681 932 z "},"˙":{"ha":856,"x_min":354,"x_max":503,"o":"m 428 833 q 376 854 397 833 q 354 907 354 875 q 375 960 354 939 q 428 982 396 982 q 481 960 460 982 q 503 907 503 939 q 481 854 503 875 q 428 833 460 833 z "},"˚":{"ha":856,"x_min":263,"x_max":593,"o":"m 428 744 q 312 793 361 744 q 263 908 263 842 q 311 1022 263 975 q 428 1068 360 1068 q 544 1022 496 1068 q 593 908 593 975 q 544 793 593 842 q 428 744 496 744 m 428 831 q 479 853 458 831 q 500 908 500 875 q 479 963 500 942 q 428 983 458 983 q 376 963 397 983 q 356 908 356 942 q 377 853 356 875 q 428 831 399 831 z "},"˛":{"ha":856,"x_min":276,"x_max":578,"o":"m 433 -329 q 321 -292 365 -329 q 276 -189 276 -254 q 326 -68 276 -121 q 467 14 376 -15 l 556 14 q 421 -74 465 -24 q 376 -176 376 -124 q 397 -232 376 -214 q 446 -250 417 -250 q 517 -219 489 -250 l 578 -265 q 433 -329 522 -329 z "},"˜":{"ha":856,"x_min":182,"x_max":674,"o":"m 538 829 q 412 863 485 829 q 308 897 339 897 q 243 835 247 897 l 182 835 q 318 997 182 997 q 444 963 371 997 q 547 929 517 929 q 593 945 575 929 q 613 992 611 961 l 674 992 q 538 829 674 829 z "},"˝":{"ha":856,"x_min":58,"x_max":706,"o":"m 175 800 l 58 800 l 256 1017 l 422 1017 l 175 800 m 458 800 l 340 800 l 538 1017 l 706 1017 l 458 800 z "},"ˡ":{"ha":856,"x_min":204,"x_max":654,"o":"m 492 483 l 654 483 l 654 390 l 225 390 l 225 483 l 388 483 l 388 1111 l 249 1111 l 204 1203 l 492 1203 l 492 483 z "},"ˢ":{"ha":856,"x_min":211,"x_max":644,"o":"m 431 375 q 211 478 292 375 l 278 538 q 438 460 356 460 q 517 480 486 460 q 547 536 547 500 q 526 582 547 561 q 483 615 506 603 q 411 647 460 626 q 352 673 369 665 q 302 700 335 681 q 256 735 269 719 q 229 778 242 751 q 217 836 217 804 q 275 947 217 906 q 424 989 333 989 q 631 899 551 989 l 564 842 q 421 904 496 904 q 342 885 372 904 q 313 836 313 867 q 322 806 313 819 q 356 778 332 792 q 397 757 381 764 q 450 735 413 750 q 522 703 497 715 q 580 667 546 690 q 629 612 614 643 q 644 540 644 581 q 587 419 644 464 q 431 375 529 375 z "},"ˣ":{"ha":856,"x_min":153,"x_max":703,"o":"m 703 390 l 586 390 l 425 614 l 269 390 l 153 390 l 368 693 l 167 972 l 283 972 l 428 771 l 571 972 l 688 972 l 486 692 l 703 390 z "},"́":{"ha":0,"x_min":-562,"x_max":-197,"o":"m -562 800 l -365 1017 l -197 1017 l -444 800 l -562 800 z "},"̂":{"ha":0,"x_min":-687,"x_max":-168,"o":"m -278 800 l -428 929 l -578 800 l -687 800 l -490 1017 l -364 1017 l -168 800 l -278 800 z "},"̃":{"ha":0,"x_min":-674,"x_max":-182,"o":"m -318 829 q -444 863 -371 829 q -547 897 -517 897 q -612 835 -608 897 l -674 835 q -537 997 -674 997 q -412 963 -485 997 q -308 929 -339 929 q -262 945 -281 929 q -243 992 -244 961 l -182 992 q -318 829 -182 829 z "},"̄":{"ha":0,"x_min":-657,"x_max":-199,"o":"m -657 839 l -657 939 l -199 939 l -199 839 l -657 839 z "},"̆":{"ha":0,"x_min":-681,"x_max":-175,"o":"m -239 868 q -271 836 -239 868 q -428 804 -303 804 q -617 868 -553 804 q -681 1031 -681 932 l -575 1031 q -534 937 -575 972 q -428 901 -493 901 q -322 937 -362 901 q -281 1031 -281 972 l -175 1031 q -239 868 -175 932 z "},"̇":{"ha":0,"x_min":-501,"x_max":-353,"o":"m -428 833 q -480 854 -458 833 q -501 907 -501 875 q -481 960 -501 939 q -428 982 -460 982 q -374 960 -396 982 q -353 907 -353 939 q -374 854 -353 875 q -428 833 -396 833 z "},"̈":{"ha":0,"x_min":-621,"x_max":-233,"o":"m -547 833 q -599 854 -578 833 q -621 907 -621 875 q -600 960 -621 939 q -547 982 -579 982 q -494 960 -515 982 q -472 907 -472 939 q -494 854 -472 875 q -547 833 -515 833 m -308 833 q -360 854 -339 833 q -382 907 -382 875 q -361 960 -382 939 q -308 982 -340 982 q -255 960 -276 982 q -233 907 -233 939 q -255 854 -233 875 q -308 833 -276 833 z "},"̊":{"ha":0,"x_min":-593,"x_max":-262,"o":"m -428 744 q -544 793 -494 744 q -593 908 -593 842 q -544 1022 -593 975 q -428 1068 -496 1068 q -311 1022 -360 1068 q -262 908 -262 975 q -311 793 -262 842 q -428 744 -360 744 m -428 831 q -376 853 -397 831 q -356 908 -356 875 q -376 963 -356 942 q -428 983 -397 983 q -479 963 -458 983 q -500 908 -500 942 q -478 853 -500 875 q -428 831 -457 831 z "},"̋":{"ha":0,"x_min":-751,"x_max":-104,"o":"m -635 800 l -751 800 l -554 1017 l -387 1017 l -635 800 m -351 800 l -469 800 l -272 1017 l -104 1017 l -351 800 z "},"̌":{"ha":0,"x_min":-687,"x_max":-168,"o":"m -364 800 l -492 800 l -687 1017 l -578 1017 l -428 888 l -278 1017 l -168 1017 l -364 800 z "},"̒":{"ha":0,"x_min":-507,"x_max":-349,"o":"m -426 811 q -483 835 -460 811 q -507 899 -507 860 q -396 1086 -507 1018 l -362 1069 q -421 967 -412 1024 q -367 943 -386 965 q -349 889 -349 921 q -372 833 -349 856 q -426 811 -396 811 z "},"̦":{"ha":0,"x_min":-506,"x_max":-349,"o":"m -458 -362 l -493 -346 q -435 -243 -444 -310 q -487 -219 -469 -242 q -506 -165 -506 -197 q -483 -109 -506 -131 q -429 -87 -460 -87 q -372 -112 -396 -87 q -349 -175 -349 -136 q -458 -362 -349 -297 z "},"̧":{"ha":0,"x_min":-529,"x_max":-235,"o":"m -400 -329 q -529 -283 -481 -329 l -462 -237 q -411 -254 -449 -254 q -360 -235 -381 -254 q -339 -187 -339 -217 q -363 -142 -339 -161 q -419 -124 -387 -124 q -472 -135 -454 -124 l -493 -107 l -397 14 l -331 14 l -383 -74 q -271 -107 -307 -74 q -235 -189 -235 -140 q -281 -290 -235 -250 q -400 -329 -328 -329 z "},"̨":{"ha":0,"x_min":-533,"x_max":-232,"o":"m -376 -329 q -489 -292 -444 -329 q -533 -189 -533 -254 q -483 -68 -533 -121 q -343 14 -433 -15 l -254 14 q -389 -74 -344 -24 q -433 -176 -433 -124 q -413 -232 -433 -214 q -364 -250 -393 -250 q -293 -219 -321 -250 l -232 -265 q -376 -329 -287 -329 z "},"̷":{"ha":0,"x_min":151,"x_max":703,"o":"m 151 164 l 589 808 l 703 808 l 265 164 l 151 164 z "},"μ":{"ha":856,"x_min":150,"x_max":706,"o":"m 588 0 l 588 69 q 404 -17 510 -17 q 268 56 314 -17 l 268 -221 l 150 -278 l 150 710 l 268 710 l 268 281 q 306 133 268 172 q 422 93 344 93 q 588 278 588 93 l 588 710 l 706 710 l 706 0 l 588 0 z "},"π":{"ha":856,"x_min":33,"x_max":822,"o":"m 675 -17 q 526 153 526 -17 l 526 585 l 317 585 l 317 513 q 280 163 317 294 q 135 -29 243 31 l 33 50 q 98 98 72 74 q 151 167 124 122 q 191 283 178 211 q 204 456 204 356 l 204 585 l 69 585 l 69 710 l 818 710 l 818 585 l 646 585 l 646 192 q 660 117 646 143 q 715 92 674 92 q 822 131 765 92 l 810 15 q 675 -17 749 -17 z "},"Ẁ":{"ha":856,"x_min":54,"x_max":801,"o":"m 390 1064 l 143 1281 l 311 1281 l 508 1064 l 390 1064 m 207 0 l 54 972 l 168 972 l 258 331 q 262 298 260 319 q 265 268 264 276 q 276 331 269 300 l 388 972 l 471 972 l 582 338 q 592 281 586 315 q 599 336 593 308 l 686 972 l 801 972 l 649 0 l 551 0 l 438 638 q 433 669 436 647 q 428 703 429 690 q 418 640 422 658 l 304 0 l 207 0 z "},"ẁ":{"ha":856,"x_min":35,"x_max":821,"o":"m 413 800 l 165 1017 l 333 1017 l 531 800 l 413 800 m 213 0 l 35 710 l 150 710 l 257 249 l 268 190 q 279 253 279 249 l 381 710 l 475 710 l 578 251 q 590 186 583 225 q 603 251 593 215 l 706 710 l 821 710 l 643 0 l 542 0 l 442 440 l 426 515 q 413 443 422 490 l 315 0 l 213 0 z "},"Ẃ":{"ha":856,"x_min":46,"x_max":793,"o":"m 358 1064 l 556 1281 l 724 1281 l 476 1064 l 358 1064 m 199 0 l 46 972 l 160 972 l 250 331 q 253 298 251 319 q 257 268 256 276 q 268 331 261 300 l 379 972 l 463 972 l 574 338 q 583 281 578 315 q 590 336 585 308 l 678 972 l 793 972 l 640 0 l 543 0 l 429 638 q 424 669 428 647 q 419 703 421 690 q 410 640 414 658 l 296 0 l 199 0 z "},"ẃ":{"ha":856,"x_min":35,"x_max":821,"o":"m 322 800 l 519 1017 l 688 1017 l 440 800 l 322 800 m 213 0 l 35 710 l 150 710 l 257 249 l 268 190 q 279 253 279 249 l 381 710 l 475 710 l 578 251 q 590 186 583 225 q 603 251 593 215 l 706 710 l 821 710 l 643 0 l 542 0 l 442 440 l 426 515 q 413 443 422 490 l 315 0 l 213 0 z "},"Ẅ":{"ha":856,"x_min":54,"x_max":801,"o":"m 308 1097 q 256 1118 278 1097 q 235 1171 235 1139 q 256 1224 235 1203 q 308 1246 276 1246 q 362 1224 340 1246 q 383 1171 383 1203 q 362 1118 383 1139 q 308 1097 340 1097 m 547 1097 q 495 1118 517 1097 q 474 1171 474 1139 q 494 1224 474 1203 q 547 1246 515 1246 q 601 1224 579 1246 q 622 1171 622 1203 q 601 1118 622 1139 q 547 1097 579 1097 m 207 0 l 54 972 l 168 972 l 258 331 q 262 298 260 319 q 265 268 264 276 q 276 331 269 300 l 388 972 l 471 972 l 582 338 q 592 281 586 315 q 599 336 593 308 l 686 972 l 801 972 l 649 0 l 551 0 l 438 638 q 433 669 436 647 q 428 703 429 690 q 418 640 422 658 l 304 0 l 207 0 z "},"ẅ":{"ha":856,"x_min":33,"x_max":819,"o":"m 308 833 q 256 854 278 833 q 235 907 235 875 q 256 960 235 939 q 308 982 276 982 q 362 960 340 982 q 383 907 383 939 q 362 854 383 875 q 308 833 340 833 m 547 833 q 495 854 517 833 q 474 907 474 875 q 494 960 474 939 q 547 982 515 982 q 601 960 579 982 q 622 907 622 939 q 601 854 622 875 q 547 833 579 833 m 211 0 l 33 710 l 149 710 l 256 249 l 267 190 q 278 253 276 249 l 379 710 l 474 710 l 576 251 q 589 186 582 225 q 601 251 592 215 l 704 710 l 819 710 l 642 0 l 540 0 l 440 440 l 425 515 q 411 443 421 490 l 314 0 l 211 0 z "},"Ỳ":{"ha":856,"x_min":89,"x_max":767,"o":"m 533 1064 l 415 1064 l 168 1281 l 336 1281 l 533 1064 m 639 972 l 767 972 l 489 383 l 489 0 l 369 0 l 369 383 l 89 972 l 222 972 l 429 501 l 639 972 z "},"ỳ":{"ha":856,"x_min":107,"x_max":747,"o":"m 425 800 l 178 1017 l 346 1017 l 543 800 l 425 800 m 263 -269 l 369 19 l 107 710 l 228 710 l 401 229 q 424 158 411 203 q 431 181 426 167 q 440 208 436 196 q 447 229 444 219 l 624 710 l 747 710 l 382 -269 l 263 -269 z "},"–":{"ha":856,"x_min":153,"x_max":701,"o":"m 153 347 l 153 450 l 701 450 l 701 347 l 153 347 z "},"—":{"ha":856,"x_min":7,"x_max":849,"o":"m 7 347 l 7 450 l 849 450 l 849 347 l 7 347 z "},"―":{"ha":856,"x_min":7,"x_max":849,"o":"m 7 347 l 7 450 l 849 450 l 849 347 l 7 347 z "},"‗":{"ha":856,"x_min":56,"x_max":800,"o":"m 56 -144 l 56 -29 l 800 -29 l 800 -144 l 56 -144 m 56 -347 l 56 -232 l 800 -232 l 800 -347 l 56 -347 z "},"‘":{"ha":856,"x_min":326,"x_max":524,"o":"m 429 626 q 356 658 386 626 q 326 749 326 690 q 368 915 326 835 q 464 1038 410 996 l 524 1013 q 463 919 489 974 q 436 815 438 865 q 499 787 475 811 q 524 722 524 763 q 496 653 524 681 q 429 626 468 626 z "},"’":{"ha":856,"x_min":331,"x_max":528,"o":"m 390 626 l 331 651 q 391 744 365 690 q 418 849 417 799 q 355 877 379 853 q 331 942 331 901 q 358 1010 331 983 q 425 1038 386 1038 q 498 1006 468 1038 q 528 915 528 974 q 486 749 528 829 q 390 626 444 668 z "},"‚":{"ha":856,"x_min":331,"x_max":528,"o":"m 390 -244 l 331 -219 q 391 -126 365 -181 q 419 -22 417 -72 q 355 6 379 -18 q 331 71 331 31 q 359 140 331 113 q 426 167 388 167 q 499 135 469 167 q 528 44 528 103 q 486 -122 528 -42 q 390 -244 444 -203 z "},"‛":{"ha":856,"x_min":328,"x_max":525,"o":"m 464 626 q 369 749 411 668 q 328 915 328 829 q 357 1006 328 974 q 429 1038 386 1038 q 497 1010 468 1038 q 525 942 525 983 q 501 878 525 903 q 436 849 476 853 q 465 744 439 799 q 524 651 490 690 l 464 626 z "},"“":{"ha":856,"x_min":183,"x_max":668,"o":"m 286 626 q 213 658 243 626 q 183 749 183 690 q 225 915 183 835 q 321 1038 267 996 l 381 1013 q 320 919 346 974 q 293 815 294 865 q 356 787 332 811 q 381 722 381 763 q 353 653 381 681 q 286 626 325 626 m 572 626 q 500 658 529 626 q 471 749 471 690 q 513 915 471 835 q 608 1038 554 996 l 668 1013 q 608 919 633 974 q 579 815 582 865 q 644 786 619 811 q 668 722 668 761 q 640 653 668 681 q 572 626 611 626 z "},"”":{"ha":856,"x_min":188,"x_max":671,"o":"m 247 626 l 188 651 q 248 744 222 690 q 276 849 274 799 q 212 878 236 853 q 188 942 188 903 q 216 1010 188 983 q 283 1038 244 1038 q 356 1006 326 1038 q 385 915 385 974 q 343 749 385 829 q 247 626 301 668 m 533 626 l 474 651 q 534 744 508 690 q 563 849 560 799 q 498 878 522 853 q 474 942 474 903 q 502 1010 474 983 q 569 1038 531 1038 q 642 1006 613 1038 q 671 915 671 974 q 629 749 671 829 q 533 626 588 668 z "},"„":{"ha":856,"x_min":188,"x_max":671,"o":"m 247 -244 l 188 -219 q 248 -126 222 -181 q 276 -22 274 -72 q 212 6 236 -18 q 188 71 188 31 q 216 140 188 113 q 283 167 244 167 q 356 135 326 167 q 385 44 385 103 q 343 -122 385 -42 q 247 -244 301 -203 m 533 -244 l 474 -219 q 534 -126 508 -181 q 563 -22 560 -72 q 498 6 522 -18 q 474 71 474 31 q 502 140 474 113 q 569 167 531 167 q 642 135 613 167 q 671 44 671 103 q 629 -122 671 -42 q 533 -244 588 -203 z "},"†":{"ha":856,"x_min":140,"x_max":715,"o":"m 471 624 l 488 468 l 444 -196 l 415 -196 l 367 468 l 381 624 l 201 599 l 140 599 l 140 714 l 201 714 l 378 688 l 367 815 l 367 989 l 488 989 l 488 815 l 474 688 l 653 714 l 715 714 l 715 599 l 653 599 l 471 624 z "},"‡":{"ha":856,"x_min":140,"x_max":715,"o":"m 367 -196 l 367 -22 l 378 106 l 201 78 l 140 78 l 140 194 l 201 194 l 381 168 l 367 324 l 367 468 l 381 624 l 201 599 l 140 599 l 140 714 l 201 714 l 378 688 l 367 815 l 367 989 l 488 989 l 488 815 l 474 688 l 653 714 l 715 714 l 715 599 l 653 599 l 471 624 l 488 468 l 488 324 l 471 168 l 653 194 l 715 194 l 715 78 l 653 78 l 474 106 l 488 -22 l 488 -196 l 367 -196 z "},"•":{"ha":856,"x_min":238,"x_max":618,"o":"m 426 296 q 292 351 347 296 q 238 486 238 407 q 292 622 238 567 q 426 676 347 676 q 563 622 507 676 q 618 486 618 567 q 563 351 618 407 q 426 296 507 296 z "},"…":{"ha":856,"x_min":49,"x_max":808,"o":"m 210 9 q 197 -5 210 9 q 143 -19 183 -19 q 76 9 103 -19 q 49 75 49 38 q 76 142 49 114 q 143 169 103 169 q 210 142 183 169 q 238 75 238 114 q 210 9 238 38 m 495 9 q 482 -5 495 9 q 428 -19 468 -19 q 360 9 388 -19 q 333 75 333 38 q 360 142 333 114 q 428 169 388 169 q 495 142 468 169 q 522 75 522 114 q 495 9 522 38 m 781 9 q 767 -5 781 9 q 713 -19 753 -19 q 645 9 672 -19 q 618 75 618 38 q 645 142 618 114 q 713 169 672 169 q 781 141 753 169 q 808 75 808 113 q 781 9 808 38 z "},"‰":{"ha":856,"x_min":0,"x_max":839,"o":"m 86 -17 l 0 -17 l 465 989 l 551 989 l 86 -17 m 151 540 q 50 607 83 540 q 17 765 17 674 q 50 919 17 850 q 151 989 83 989 q 251 922 217 989 q 286 765 286 854 q 252 610 286 679 q 151 540 218 540 m 151 614 q 189 658 174 614 q 204 765 204 703 q 190 874 204 832 q 151 915 175 915 q 112 873 125 915 q 99 765 99 831 q 113 656 99 697 q 151 614 126 614 m 400 -17 q 299 50 332 -17 q 265 207 265 117 q 299 362 265 292 q 400 432 333 432 q 500 365 465 432 q 535 207 535 297 q 501 53 535 122 q 400 -17 467 -17 m 704 -17 q 604 51 639 -17 q 569 207 569 118 q 583 308 569 258 q 628 394 596 357 q 704 432 660 432 q 804 365 769 432 q 839 207 839 297 q 805 53 839 122 q 704 -17 771 -17 m 400 57 q 438 101 422 57 q 453 207 453 146 q 438 316 453 274 q 400 358 424 358 q 360 315 374 358 q 347 207 347 272 q 361 99 347 140 q 400 57 375 57 m 704 57 q 742 101 726 57 q 757 207 757 146 q 742 316 757 274 q 704 358 728 358 q 666 315 681 358 q 651 207 651 271 q 666 99 651 142 q 704 57 681 57 z "},"′":{"ha":856,"x_min":336,"x_max":518,"o":"m 364 1014 l 518 1014 l 433 581 l 336 581 l 364 1014 z "},"″":{"ha":856,"x_min":197,"x_max":657,"o":"m 225 1014 l 379 1014 l 294 581 l 197 581 l 225 1014 m 503 1014 l 657 1014 l 572 581 l 475 581 l 503 1014 z "},"‹":{"ha":856,"x_min":257,"x_max":599,"o":"m 468 0 l 257 356 l 468 710 l 599 710 l 388 356 l 599 0 l 468 0 z "},"›":{"ha":856,"x_min":257,"x_max":599,"o":"m 257 0 l 468 356 l 257 710 l 388 710 l 599 356 l 388 0 l 257 0 z "},"‼":{"ha":856,"x_min":118,"x_max":738,"o":"m 181 268 l 156 685 l 156 989 l 276 989 l 276 685 l 250 268 l 181 268 m 608 268 l 583 685 l 583 989 l 704 989 l 704 685 l 678 268 l 608 268 m 282 9 q 268 -5 282 9 q 214 -19 254 -19 q 146 9 174 -19 q 118 76 118 38 q 146 144 118 115 q 214 172 174 172 q 282 144 254 172 q 310 76 310 115 q 282 9 310 38 m 710 9 q 696 -5 710 9 q 642 -19 682 -19 q 574 9 601 -19 q 546 76 546 38 q 574 144 546 115 q 642 172 601 172 q 710 144 682 172 q 738 76 738 115 q 710 9 738 38 z "},"‾":{"ha":856,"x_min":56,"x_max":800,"o":"m 56 1042 l 56 1157 l 800 1157 l 800 1042 l 56 1042 z "},"⁄":{"ha":0,"x_min":-393,"x_max":392,"o":"m -393 -17 l 272 989 l 392 989 l -272 -17 l -393 -17 z "},"⁰":{"ha":856,"x_min":240,"x_max":613,"o":"m 426 817 q 315 850 358 817 q 256 925 271 883 q 240 1015 240 967 q 284 1158 240 1097 q 426 1219 328 1219 q 569 1158 525 1219 q 613 1015 613 1097 q 604 947 613 979 q 576 884 596 915 q 518 835 557 853 q 426 817 479 817 m 360 935 q 369 916 360 935 q 426 897 379 897 q 493 934 474 897 q 513 1019 513 971 q 493 1103 513 1067 q 426 1139 474 1139 q 360 1102 379 1139 q 340 1019 340 1065 q 360 935 340 972 z "},"ⁱ":{"ha":856,"x_min":229,"x_max":653,"o":"m 438 1083 q 392 1103 411 1083 q 372 1149 372 1122 q 391 1196 372 1176 q 438 1215 410 1215 q 484 1196 465 1215 q 503 1149 503 1176 q 484 1102 503 1121 q 438 1083 465 1083 m 493 483 l 653 483 l 653 390 l 229 390 l 229 483 l 389 483 l 389 888 l 229 888 l 229 979 l 493 979 l 493 483 z "},"⁴":{"ha":856,"x_min":211,"x_max":628,"o":"m 457 829 l 457 908 l 211 908 l 211 965 l 463 1207 l 554 1207 l 554 986 l 628 986 l 628 908 l 554 908 l 554 829 l 457 829 m 457 986 l 457 1106 l 336 986 l 457 986 z "},"⁵":{"ha":856,"x_min":253,"x_max":610,"o":"m 415 815 q 253 874 317 815 l 306 936 q 419 889 349 889 q 486 906 461 889 q 511 953 511 924 q 438 1003 511 1003 q 343 964 378 1003 l 264 993 l 301 1208 l 578 1208 l 578 1131 l 376 1131 l 357 1047 q 458 1076 397 1076 q 567 1043 525 1076 q 610 960 610 1010 q 560 856 610 897 q 415 815 510 815 z "},"⁶":{"ha":856,"x_min":257,"x_max":600,"o":"m 426 817 q 301 858 344 817 q 257 964 257 899 q 333 1128 257 1060 q 547 1214 408 1197 l 547 1142 q 356 1025 396 1115 q 457 1061 392 1061 q 560 1027 521 1061 q 600 942 600 993 q 551 853 600 889 q 426 817 503 817 m 432 889 q 485 903 463 889 q 507 940 507 917 q 486 976 507 963 q 432 990 465 990 q 374 976 396 990 q 351 940 351 963 q 374 903 351 917 q 432 889 396 889 z "},"⁷":{"ha":856,"x_min":254,"x_max":600,"o":"m 332 829 q 378 1002 333 921 q 490 1128 424 1083 l 254 1128 l 254 1207 l 600 1207 l 600 1128 q 475 990 514 1074 q 436 829 436 906 l 332 829 z "},"⁸":{"ha":856,"x_min":243,"x_max":604,"o":"m 424 817 q 294 851 344 817 q 243 935 243 885 q 321 1031 243 1003 q 285 1063 300 1040 q 271 1110 271 1085 q 314 1188 271 1157 q 424 1219 357 1219 q 534 1188 490 1219 q 578 1110 578 1157 q 563 1064 578 1088 q 526 1031 547 1040 q 604 935 604 1003 q 554 850 604 883 q 424 817 504 817 m 358 1106 q 424 1058 358 1058 q 489 1106 489 1058 q 424 1151 489 1151 q 376 1139 393 1151 q 358 1106 358 1126 m 338 940 q 424 885 338 885 q 510 940 510 885 q 487 981 510 967 q 424 996 464 996 q 361 981 385 996 q 338 940 338 967 z "},"⁹":{"ha":856,"x_min":249,"x_max":607,"o":"m 314 818 l 314 889 q 497 997 460 908 q 406 972 464 972 q 293 1007 338 972 q 249 1092 249 1042 q 298 1182 249 1146 q 428 1218 347 1218 q 561 1178 515 1218 q 607 1072 607 1139 q 528 898 607 964 q 314 818 449 832 m 426 1044 q 489 1058 465 1044 q 513 1094 513 1072 q 488 1132 513 1118 q 426 1146 464 1146 q 369 1132 393 1146 q 344 1096 344 1118 q 367 1058 344 1072 q 426 1044 390 1044 z "},"⁺":{"ha":856,"x_min":256,"x_max":608,"o":"m 467 985 l 467 842 l 397 842 l 397 985 l 256 985 l 256 1051 l 397 1051 l 397 1194 l 467 1194 l 467 1051 l 608 1051 l 608 985 l 467 985 z "},"⁻":{"ha":856,"x_min":251,"x_max":604,"o":"m 251 985 l 251 1051 l 604 1051 l 604 985 l 251 985 z "},"⁼":{"ha":856,"x_min":253,"x_max":603,"o":"m 253 1064 l 253 1131 l 603 1131 l 603 1064 l 253 1064 m 253 910 l 253 976 l 603 976 l 603 910 l 253 910 z "},"⁽":{"ha":856,"x_min":393,"x_max":576,"o":"m 508 765 q 393 1010 393 864 q 515 1264 393 1164 l 576 1264 q 499 1163 538 1231 q 460 1010 460 1096 q 569 765 460 875 l 508 765 z "},"⁾":{"ha":856,"x_min":279,"x_max":463,"o":"m 347 765 l 286 765 q 396 1010 396 875 q 357 1163 396 1096 q 279 1264 318 1231 l 340 1264 q 463 1010 463 1164 q 347 765 463 864 z "},"ⁿ":{"ha":856,"x_min":194,"x_max":674,"o":"m 454 989 q 617 927 560 989 q 674 744 674 865 l 674 390 l 571 390 l 571 725 q 535 851 571 808 q 438 894 500 894 q 297 739 297 894 l 297 390 l 194 390 l 194 972 l 288 972 l 288 906 q 454 989 342 989 z "},"₀":{"ha":856,"x_min":240,"x_max":613,"o":"m 426 -247 q 315 -214 358 -247 q 256 -139 271 -181 q 240 -49 240 -97 q 284 94 240 33 q 426 156 328 156 q 569 94 525 156 q 613 -49 613 33 q 604 -117 613 -85 q 576 -180 596 -149 q 518 -229 557 -211 q 426 -247 479 -247 m 360 -129 q 369 -148 360 -129 q 426 -167 379 -167 q 493 -130 474 -167 q 513 -44 513 -93 q 493 39 513 3 q 426 75 474 75 q 360 38 379 75 q 340 -44 340 1 q 360 -129 340 -92 z "},"₁":{"ha":856,"x_min":310,"x_max":476,"o":"m 376 -235 l 376 3 l 310 3 l 310 76 q 404 143 381 76 l 476 143 l 476 -235 l 376 -235 z "},"₂":{"ha":856,"x_min":243,"x_max":599,"o":"m 243 -235 q 269 -126 243 -171 q 333 -62 296 -82 q 407 -31 369 -43 q 471 -4 444 -18 q 497 31 497 10 q 435 76 497 76 q 365 55 394 76 q 328 -8 336 33 l 244 19 q 310 117 260 81 q 436 153 360 153 q 554 120 510 153 q 599 25 599 88 q 563 -44 599 -15 q 483 -87 526 -74 q 400 -117 439 -100 q 357 -154 361 -135 l 597 -154 l 597 -235 l 243 -235 z "},"₃":{"ha":856,"x_min":238,"x_max":611,"o":"m 431 -249 q 238 -144 292 -249 l 328 -114 q 436 -174 360 -174 q 490 -158 469 -174 q 510 -118 510 -142 q 436 -76 510 -76 l 392 -76 l 392 -3 l 424 -3 q 473 6 458 -3 q 488 36 488 14 q 472 67 488 54 q 428 81 456 81 q 335 26 368 81 l 250 53 q 321 126 272 97 q 429 154 369 154 q 545 124 501 154 q 589 44 589 94 q 569 -6 589 15 q 522 -33 549 -28 q 611 -125 611 -49 q 563 -213 611 -178 q 431 -249 515 -249 z "},"₄":{"ha":856,"x_min":211,"x_max":628,"o":"m 457 -235 l 457 -156 l 211 -156 l 211 -99 l 463 143 l 554 143 l 554 -78 l 628 -78 l 628 -156 l 554 -156 l 554 -235 l 457 -235 m 457 -78 l 457 42 l 336 -78 l 457 -78 z "},"₅":{"ha":856,"x_min":253,"x_max":610,"o":"m 415 -250 q 253 -192 317 -250 l 306 -129 q 419 -176 349 -176 q 486 -159 461 -176 q 511 -112 511 -142 q 438 -62 511 -62 q 343 -101 378 -62 l 264 -72 l 301 143 l 578 143 l 578 65 l 376 65 l 357 -18 q 458 11 397 11 q 567 -22 525 11 q 610 -106 610 -56 q 560 -209 610 -168 q 415 -250 510 -250 z "},"₆":{"ha":856,"x_min":257,"x_max":600,"o":"m 426 -249 q 301 -208 344 -249 q 257 -101 257 -167 q 333 63 257 -6 q 547 149 408 132 l 547 76 q 356 -40 396 50 q 457 -4 392 -4 q 560 -38 521 -4 q 600 -124 600 -72 q 551 -212 600 -176 q 426 -249 503 -249 m 432 -176 q 485 -162 463 -176 q 507 -125 507 -149 q 486 -89 507 -103 q 432 -75 465 -75 q 374 -89 396 -75 q 351 -125 351 -103 q 374 -162 351 -149 q 432 -176 396 -176 z "},"₇":{"ha":856,"x_min":254,"x_max":600,"o":"m 332 -235 q 378 -62 333 -143 q 490 64 424 19 l 254 64 l 254 143 l 600 143 l 600 64 q 475 -74 514 10 q 436 -235 436 -158 l 332 -235 z "},"₈":{"ha":856,"x_min":243,"x_max":604,"o":"m 424 -247 q 294 -213 344 -247 q 243 -129 243 -179 q 321 -33 243 -61 q 285 -1 300 -24 q 271 46 271 21 q 314 124 271 93 q 424 156 357 156 q 534 124 490 156 q 578 46 578 93 q 563 0 578 24 q 526 -33 547 -24 q 604 -129 604 -61 q 554 -214 604 -181 q 424 -247 504 -247 m 358 42 q 424 -6 358 -6 q 489 42 489 -6 q 424 88 489 88 q 376 75 393 88 q 358 42 358 63 m 338 -124 q 424 -179 338 -179 q 510 -124 510 -179 q 487 -83 510 -97 q 424 -68 464 -68 q 361 -83 385 -68 q 338 -124 338 -97 z "},"₉":{"ha":856,"x_min":249,"x_max":607,"o":"m 314 -244 l 314 -174 q 497 -65 460 -154 q 406 -90 464 -90 q 293 -56 338 -90 q 249 29 249 -21 q 298 119 249 83 q 428 156 347 156 q 561 116 515 156 q 607 10 607 76 q 528 -165 607 -99 q 314 -244 449 -231 m 426 -18 q 489 -4 465 -18 q 513 32 513 10 q 488 69 513 56 q 426 83 464 83 q 369 69 393 83 q 344 33 344 56 q 367 -4 344 10 q 426 -18 390 -18 z "},"₊":{"ha":856,"x_min":251,"x_max":604,"o":"m 463 -79 l 463 -222 l 393 -222 l 393 -79 l 251 -79 l 251 -12 l 393 -12 l 393 131 l 463 131 l 463 -12 l 604 -12 l 604 -79 l 463 -79 z "},"₋":{"ha":856,"x_min":253,"x_max":606,"o":"m 253 -78 l 253 -11 l 606 -11 l 606 -78 l 253 -78 z "},"₌":{"ha":856,"x_min":253,"x_max":603,"o":"m 253 0 l 253 67 l 603 67 l 603 0 l 253 0 m 253 -154 l 253 -87 l 603 -87 l 603 -154 l 253 -154 z "},"₍":{"ha":856,"x_min":393,"x_max":576,"o":"m 508 -287 q 393 -43 393 -189 q 515 211 393 111 l 576 211 q 499 110 538 178 q 460 -43 460 43 q 569 -287 460 -178 l 508 -287 z "},"₎":{"ha":856,"x_min":279,"x_max":463,"o":"m 347 -287 l 286 -287 q 396 -43 396 -178 q 357 110 396 43 q 279 211 318 178 l 340 211 q 463 -43 463 111 q 347 -287 463 -189 z "},"ₐ":{"ha":856,"x_min":175,"x_max":658,"o":"m 444 364 q 517 355 483 364 q 585 325 551 346 q 639 260 619 304 q 658 154 658 217 l 658 -235 l 560 -235 l 560 -181 q 386 -250 490 -250 q 233 -199 290 -250 q 175 -54 175 -149 q 241 90 175 42 q 401 139 307 139 q 560 101 490 139 l 560 146 q 436 272 560 272 q 249 211 344 272 l 221 299 q 444 364 331 364 m 403 -160 q 560 -81 492 -160 l 560 8 q 415 50 494 50 q 315 24 354 50 q 275 -54 275 -3 q 308 -131 275 -103 q 403 -160 342 -160 z "},"ₑ":{"ha":856,"x_min":169,"x_max":689,"o":"m 689 82 q 686 17 689 44 l 279 17 q 336 -110 290 -62 q 446 -157 382 -157 q 581 -108 521 -157 l 639 -175 q 443 -250 554 -250 q 244 -163 318 -250 q 169 56 169 -76 q 244 282 169 200 q 443 364 318 364 q 620 292 551 364 q 689 82 689 221 m 443 272 q 326 228 368 272 q 278 103 285 183 l 586 103 q 542 232 585 192 q 443 272 500 272 z "},"ₒ":{"ha":856,"x_min":153,"x_max":704,"o":"m 629 -168 q 592 -209 629 -168 q 428 -250 554 -250 q 227 -169 301 -250 q 153 56 153 -87 q 228 281 153 197 q 428 364 303 364 q 629 281 554 364 q 704 56 704 199 q 629 -168 704 -86 m 428 -153 q 553 -97 508 -153 q 597 56 597 -42 q 553 210 597 154 q 428 267 508 267 q 302 212 346 267 q 258 56 258 157 q 302 -98 258 -43 q 428 -153 346 -153 z "},"ₓ":{"ha":856,"x_min":153,"x_max":703,"o":"m 703 -235 l 586 -235 l 425 -11 l 269 -235 l 153 -235 l 368 68 l 167 347 l 283 347 l 428 146 l 571 347 l 688 347 l 486 67 l 703 -235 z "},"ₔ":{"ha":856,"x_min":167,"x_max":686,"o":"m 413 361 q 612 274 538 361 q 686 56 686 188 q 612 -171 686 -89 q 413 -253 538 -253 q 235 -181 304 -253 q 167 29 167 -110 q 169 94 167 67 l 576 94 q 519 221 565 174 q 410 268 474 268 q 275 219 335 268 l 217 286 q 413 361 301 361 m 413 -161 q 529 -117 488 -161 q 578 8 571 -72 l 269 8 q 313 -121 271 -81 q 413 -161 356 -161 z "},"ₕ":{"ha":856,"x_min":194,"x_max":674,"o":"m 456 364 q 617 302 560 364 q 674 119 674 240 l 674 -235 l 571 -235 l 571 100 q 536 226 571 183 q 439 269 501 269 q 297 114 297 269 l 297 -235 l 194 -235 l 194 553 l 293 597 l 293 288 q 456 364 349 364 z "},"ₖ":{"ha":856,"x_min":207,"x_max":704,"o":"m 590 -235 l 411 114 l 310 13 l 310 -235 l 207 -235 l 207 550 l 310 597 l 310 131 l 522 347 l 642 347 l 486 190 l 704 -235 l 590 -235 z "},"ₗ":{"ha":856,"x_min":204,"x_max":654,"o":"m 492 -142 l 654 -142 l 654 -235 l 225 -235 l 225 -142 l 388 -142 l 388 486 l 249 486 l 204 578 l 492 578 l 492 -142 z "},"ₘ":{"ha":856,"x_min":131,"x_max":726,"o":"m 582 361 q 692 313 657 361 q 726 157 726 264 l 726 -235 l 629 -235 l 629 131 q 616 236 629 203 q 564 269 603 269 q 500 226 522 269 q 478 113 478 182 l 478 -235 l 381 -235 l 381 131 q 367 233 381 197 q 315 269 354 269 q 251 225 275 269 q 228 113 228 181 l 228 -235 l 131 -235 l 131 347 l 222 347 l 222 274 q 336 361 257 361 q 454 268 418 361 q 582 361 494 361 z "},"ₙ":{"ha":856,"x_min":194,"x_max":674,"o":"m 454 364 q 617 302 560 364 q 674 119 674 240 l 674 -235 l 571 -235 l 571 100 q 535 226 571 183 q 438 269 500 269 q 297 114 297 269 l 297 -235 l 194 -235 l 194 347 l 288 347 l 288 281 q 454 364 342 364 z "},"ₚ":{"ha":856,"x_min":185,"x_max":701,"o":"m 185 -472 l 185 347 l 286 347 l 286 297 q 446 361 356 361 q 633 278 564 361 q 701 56 701 196 q 631 -169 701 -87 q 449 -250 561 -250 q 286 -181 347 -250 l 286 -425 l 185 -472 m 433 -156 q 553 -101 511 -156 q 596 56 596 -46 q 552 209 596 151 q 429 267 508 267 q 286 188 336 267 l 286 -76 q 433 -156 350 -156 z "},"ₛ":{"ha":856,"x_min":211,"x_max":644,"o":"m 431 -250 q 211 -147 292 -250 l 278 -87 q 438 -165 356 -165 q 517 -145 486 -165 q 547 -89 547 -125 q 526 -43 547 -64 q 483 -10 506 -22 q 411 22 460 1 q 352 48 369 40 q 302 75 335 56 q 256 110 269 94 q 229 153 242 126 q 217 211 217 179 q 275 322 217 281 q 424 364 333 364 q 631 274 551 364 l 564 217 q 421 279 496 279 q 342 260 372 279 q 313 211 313 242 q 322 181 313 194 q 356 153 332 167 q 397 132 381 139 q 450 110 413 125 q 522 78 497 90 q 580 42 546 65 q 629 -13 614 18 q 644 -85 644 -44 q 587 -206 644 -161 q 431 -250 529 -250 z "},"ₜ":{"ha":856,"x_min":206,"x_max":635,"o":"m 490 -250 q 336 -103 336 -250 l 336 256 l 206 256 l 206 347 l 336 347 l 336 543 l 440 590 l 440 347 l 635 347 l 635 256 l 440 256 l 440 -67 q 458 -133 440 -110 q 524 -156 475 -156 q 631 -122 581 -156 l 619 -224 q 490 -250 571 -250 z "},"₣":{"ha":856,"x_min":47,"x_max":743,"o":"m 743 860 l 253 860 l 253 643 l 596 643 l 596 532 l 253 532 l 253 424 l 596 424 l 596 311 l 253 311 l 253 0 l 133 0 l 133 311 l 47 311 l 47 424 l 133 424 l 133 532 l 47 532 l 47 643 l 133 643 l 133 972 l 743 972 l 743 860 z "},"₤":{"ha":856,"x_min":94,"x_max":760,"o":"m 104 0 l 104 125 q 217 317 190 167 l 94 317 l 94 411 l 226 411 q 201 503 225 451 l 94 503 l 94 597 l 165 597 q 139 715 139 660 q 221 909 139 829 q 457 989 303 989 q 610 966 546 989 q 742 896 674 943 l 694 781 q 642 826 661 811 q 572 858 622 840 q 457 875 521 875 q 313 828 363 875 q 264 715 264 781 q 296 597 264 672 l 561 597 l 561 503 l 336 503 q 353 411 353 456 l 561 411 l 561 317 l 342 317 q 226 113 319 200 l 760 113 l 760 0 l 104 0 z "},"₦":{"ha":856,"x_min":40,"x_max":815,"o":"m 815 535 l 815 438 l 726 438 l 726 0 l 608 0 l 392 438 l 246 438 l 246 0 l 131 0 l 131 438 l 40 438 l 40 535 l 131 535 l 131 972 l 250 972 l 463 535 l 610 535 l 610 972 l 726 972 l 726 535 l 815 535 m 246 535 l 343 535 l 275 674 q 244 739 264 692 q 246 674 246 717 l 246 535 m 613 228 q 610 289 610 281 l 610 438 l 510 438 l 583 288 q 613 228 610 233 z "},"₧":{"ha":856,"x_min":32,"x_max":825,"o":"m 825 726 l 825 628 l 739 628 q 644 454 722 525 q 426 383 565 383 l 253 383 l 253 0 l 133 0 l 133 628 l 32 628 l 32 726 l 133 726 l 133 972 l 426 972 q 650 903 574 972 q 740 726 726 833 l 825 726 m 253 865 l 253 726 l 621 726 q 565 826 610 786 q 438 865 519 865 l 253 865 m 438 490 q 562 528 517 490 q 621 628 607 567 l 253 628 l 253 490 l 438 490 z "},"₩":{"ha":856,"x_min":28,"x_max":828,"o":"m 828 535 l 828 438 l 718 438 l 649 0 l 553 0 l 475 438 l 381 438 l 303 0 l 207 0 l 139 438 l 28 438 l 28 535 l 124 535 l 54 972 l 161 972 l 224 535 l 311 535 l 388 972 l 471 972 l 547 535 l 632 535 l 693 972 l 801 972 l 733 535 l 828 535 m 397 535 l 457 535 l 440 631 l 428 714 q 415 633 419 653 l 397 535 m 275 324 l 294 438 l 238 438 l 253 333 l 263 253 q 275 324 267 289 m 604 339 l 618 438 l 565 438 l 583 331 q 594 265 589 306 l 604 339 z "},"₪":{"ha":856,"x_min":86,"x_max":769,"o":"m 86 0 l 86 972 l 194 972 l 194 103 l 313 103 q 437 149 404 103 q 469 307 469 194 l 469 793 l 579 793 l 579 307 q 522 78 579 156 q 322 0 465 0 l 86 0 m 661 0 l 661 869 l 543 869 q 419 824 451 869 q 386 667 386 779 l 386 181 l 278 181 l 278 665 q 334 894 278 817 q 535 972 390 972 l 769 972 l 769 0 l 661 0 z "},"₫":{"ha":856,"x_min":89,"x_max":772,"o":"m 374 169 q 167 245 244 169 q 89 431 89 321 q 167 617 89 540 q 374 693 246 693 q 564 631 485 693 l 564 763 l 375 763 l 375 863 l 564 863 l 564 946 l 682 1003 l 682 863 l 772 863 l 772 763 l 682 763 l 682 186 l 564 186 l 564 244 q 374 169 486 169 m 382 275 q 564 361 501 275 l 564 510 q 382 588 490 588 q 258 542 304 588 q 211 431 211 496 q 258 320 211 365 q 382 275 304 275 m 117 0 l 117 100 l 682 100 l 682 0 l 117 0 z "},"€":{"ha":856,"x_min":58,"x_max":797,"o":"m 514 -17 q 276 73 360 -17 q 165 317 192 163 l 58 317 l 100 411 l 154 411 q 151 485 151 435 q 153 542 151 521 l 58 542 l 100 636 l 165 636 q 284 890 194 792 q 529 989 374 989 q 767 917 660 989 l 721 810 q 526 878 642 878 q 292 636 339 878 l 650 636 l 611 542 l 279 542 q 276 467 276 515 q 279 411 276 424 l 557 411 l 518 317 l 294 317 q 369 157 315 219 q 513 94 424 94 q 703 194 631 94 l 797 136 q 683 26 756 69 q 514 -17 611 -17 z "},"₹":{"ha":856,"x_min":108,"x_max":769,"o":"m 769 972 l 769 865 l 565 865 q 636 744 621 829 l 769 744 l 769 638 l 639 638 q 548 473 626 538 q 326 408 469 408 l 275 408 l 635 0 l 490 0 l 108 439 l 108 513 l 338 513 q 525 638 503 513 l 108 638 l 108 744 l 519 744 q 329 865 486 865 l 108 865 l 108 972 l 769 972 z "},"₺":{"ha":856,"x_min":92,"x_max":793,"o":"m 674 393 l 793 393 q 763 251 788 318 q 693 126 738 183 q 576 34 649 68 q 408 0 503 0 l 257 0 l 257 322 l 92 233 l 92 350 l 257 439 l 257 588 l 92 499 l 92 615 l 257 704 l 257 972 l 376 972 l 376 769 l 533 854 l 533 738 l 376 653 l 376 504 l 533 589 l 533 472 l 376 388 l 376 110 l 406 110 q 594 190 526 110 q 674 393 663 271 z "},"₽":{"ha":856,"x_min":36,"x_max":747,"o":"m 433 397 l 286 397 l 286 258 l 497 258 l 497 149 l 286 149 l 286 0 l 167 0 l 167 149 l 36 149 l 36 258 l 167 258 l 167 397 l 36 397 l 36 508 l 167 508 l 167 972 l 433 972 q 672 890 597 972 q 747 685 747 807 q 669 483 747 569 q 433 397 590 397 m 286 863 l 286 508 l 442 508 q 583 560 538 508 q 629 685 629 613 q 585 809 629 756 q 442 863 542 863 l 286 863 z "},"℅":{"ha":856,"x_min":14,"x_max":842,"o":"m 199 378 q 67 463 119 378 q 14 683 14 547 q 70 905 14 821 q 200 989 126 989 q 229 985 215 989 q 253 978 243 982 q 274 965 264 974 q 292 950 285 957 q 306 933 299 943 q 317 915 313 922 q 326 897 321 907 q 333 881 331 886 q 338 867 335 876 l 340 858 l 251 818 q 193 892 225 892 q 138 834 163 892 q 114 683 114 776 q 140 532 114 589 q 196 475 165 475 q 231 494 218 475 q 260 556 243 513 l 344 517 q 287 417 325 457 q 199 378 249 378 m 118 -17 l 601 989 l 704 989 l 221 -17 l 118 -17 m 647 -17 q 508 65 563 -17 q 454 289 454 147 q 508 512 454 429 q 647 594 563 594 q 788 513 733 594 q 842 289 842 431 q 788 65 842 146 q 647 -17 733 -17 m 647 81 q 717 135 692 81 q 742 289 742 189 q 717 443 742 389 q 647 497 692 497 q 581 442 607 497 q 554 289 554 386 q 581 136 554 192 q 647 81 607 81 z "},"ℓ":{"ha":856,"x_min":163,"x_max":638,"o":"m 419 -17 q 272 146 272 -17 l 272 329 q 201 290 269 328 l 163 386 q 272 444 219 406 l 272 719 q 458 989 272 989 q 587 935 536 989 q 638 781 638 881 q 615 647 638 710 q 547 533 592 583 q 472 456 503 483 q 393 393 442 429 l 393 201 q 412 114 393 138 q 467 90 431 90 q 565 143 517 90 l 599 68 q 419 -17 529 -17 m 456 885 q 408 847 424 885 q 393 707 393 810 l 393 514 q 518 758 518 621 q 456 885 518 885 z "},"№":{"ha":856,"x_min":32,"x_max":846,"o":"m 672 378 q 551 458 596 378 q 507 683 507 539 q 551 908 507 826 q 672 989 596 989 q 794 908 750 989 q 839 683 839 826 q 794 458 839 539 q 672 378 750 378 m 343 0 l 133 681 l 133 0 l 32 0 l 32 976 l 131 976 l 342 272 l 342 976 l 442 976 l 442 0 l 343 0 m 672 475 q 746 683 746 475 q 672 892 746 892 q 619 838 639 892 q 600 683 600 783 q 619 530 600 585 q 672 475 639 475 m 500 181 l 500 267 l 846 267 l 846 181 l 500 181 z "},"™":{"ha":856,"x_min":15,"x_max":840,"o":"m 151 386 l 151 889 l 15 889 l 15 972 l 376 972 l 376 889 l 242 889 l 242 386 l 151 386 m 407 386 l 407 972 l 493 972 l 613 625 l 624 585 l 636 625 l 756 972 l 840 972 l 840 386 l 750 386 l 750 714 l 733 663 l 632 386 l 617 386 l 514 663 l 497 718 l 497 386 l 407 386 z "},"Ω":{"ha":856,"x_min":33,"x_max":822,"o":"m 511 0 l 511 111 q 646 310 606 217 q 686 540 686 403 q 623 778 686 679 q 426 878 560 878 q 231 778 294 878 q 167 539 167 678 q 208 310 167 403 q 344 111 249 218 l 344 0 l 33 0 l 33 111 l 246 111 q 43 542 43 253 q 64 701 43 625 q 128 843 85 776 q 248 949 171 910 q 426 989 325 989 q 606 949 529 989 q 726 843 683 910 q 790 701 769 776 q 811 542 811 625 q 608 111 811 254 l 822 111 l 822 0 l 511 0 z "},"℮":{"ha":856,"x_min":35,"x_max":821,"o":"m 435 -17 q 151 122 267 -17 q 35 486 35 261 q 153 860 35 728 q 439 993 271 993 q 703 860 594 993 q 821 486 813 728 l 240 486 l 240 154 q 435 67 324 67 q 739 260 625 67 l 806 217 q 649 42 735 101 q 435 -17 563 -17 m 240 567 l 622 568 l 622 822 q 544 883 596 857 q 435 910 493 910 q 240 829 324 910 l 240 567 z "},"⅓":{"ha":856,"x_min":60,"x_max":797,"o":"m 376 600 l 376 838 l 310 838 l 310 911 q 404 978 381 911 l 476 978 l 476 600 l 376 600 m 60 446 l 60 538 l 797 538 l 797 446 l 60 446 m 443 -15 q 250 89 304 -15 l 340 119 q 449 60 372 60 q 502 76 482 60 q 522 115 522 92 q 449 157 522 157 l 404 157 l 404 231 l 436 231 q 485 239 471 231 q 500 269 500 247 q 484 301 500 288 q 440 314 468 314 q 347 260 381 314 l 263 286 q 333 359 285 331 q 442 388 382 388 q 558 358 514 388 q 601 278 601 328 q 581 227 601 249 q 535 200 561 206 q 624 108 624 185 q 576 20 624 56 q 443 -15 528 -15 z "},"⅔":{"ha":856,"x_min":60,"x_max":797,"o":"m 258 600 q 285 708 258 664 q 349 772 311 753 q 423 804 386 792 q 486 831 460 817 q 513 865 513 844 q 450 911 513 911 q 381 890 410 911 q 343 826 351 868 l 260 854 q 325 951 275 914 q 451 988 375 988 q 569 955 525 988 q 614 860 614 922 q 578 790 614 819 q 498 748 542 761 q 415 717 454 735 q 372 681 376 700 l 613 681 l 613 600 l 258 600 m 60 446 l 60 538 l 797 538 l 797 446 l 60 446 m 443 -15 q 250 89 304 -15 l 340 119 q 449 60 372 60 q 502 76 482 60 q 522 115 522 92 q 449 157 522 157 l 404 157 l 404 231 l 436 231 q 485 239 471 231 q 500 269 500 247 q 484 301 500 288 q 440 314 468 314 q 347 260 381 314 l 263 286 q 333 359 285 331 q 442 388 382 388 q 558 358 514 388 q 601 278 601 328 q 581 227 601 249 q 535 200 561 206 q 624 108 624 185 q 576 20 624 56 q 443 -15 528 -15 z "},"⅛":{"ha":856,"x_min":60,"x_max":797,"o":"m 376 600 l 376 838 l 310 838 l 310 911 q 404 978 381 911 l 476 978 l 476 600 l 376 600 m 60 446 l 60 538 l 797 538 l 797 446 l 60 446 m 424 -15 q 294 19 344 -15 q 243 103 243 53 q 321 199 243 171 q 285 231 300 208 q 271 278 271 253 q 314 356 271 325 q 424 388 357 388 q 534 356 490 388 q 578 278 578 325 q 563 232 578 256 q 526 199 547 208 q 604 103 604 171 q 554 18 604 51 q 424 -15 504 -15 m 358 274 q 424 226 358 226 q 489 274 489 226 q 424 319 489 319 q 376 307 393 319 q 358 274 358 294 m 338 108 q 424 53 338 53 q 510 108 510 53 q 487 149 510 135 q 424 164 464 164 q 361 149 385 164 q 338 108 338 135 z "},"⅜":{"ha":856,"x_min":60,"x_max":797,"o":"m 431 585 q 238 689 292 585 l 328 719 q 436 660 360 660 q 490 676 469 660 q 510 715 510 692 q 436 757 510 757 l 392 757 l 392 831 l 424 831 q 473 839 458 831 q 488 869 488 847 q 472 901 488 888 q 428 914 456 914 q 335 860 368 914 l 250 886 q 321 959 272 931 q 429 988 369 988 q 545 958 501 988 q 589 878 589 928 q 569 827 589 849 q 522 800 549 806 q 611 708 611 785 q 563 620 611 656 q 431 585 515 585 m 60 446 l 60 538 l 797 538 l 797 446 l 60 446 m 424 -15 q 294 19 344 -15 q 243 103 243 53 q 321 199 243 171 q 285 231 300 208 q 271 278 271 253 q 314 356 271 325 q 424 388 357 388 q 534 356 490 388 q 578 278 578 325 q 563 232 578 256 q 526 199 547 208 q 604 103 604 171 q 554 18 604 51 q 424 -15 504 -15 m 358 274 q 424 226 358 226 q 489 274 489 226 q 424 319 489 319 q 376 307 393 319 q 358 274 358 294 m 338 108 q 424 53 338 53 q 510 108 510 53 q 487 149 510 135 q 424 164 464 164 q 361 149 385 164 q 338 108 338 135 z "},"⅝":{"ha":856,"x_min":60,"x_max":797,"o":"m 415 586 q 253 644 317 586 l 306 707 q 419 660 349 660 q 486 677 461 660 q 511 724 511 694 q 438 774 511 774 q 343 735 378 774 l 264 764 l 301 979 l 578 979 l 578 901 l 376 901 l 357 818 q 458 847 397 847 q 567 814 525 847 q 610 731 610 781 q 560 627 610 668 q 415 586 510 586 m 60 446 l 60 538 l 797 538 l 797 446 l 60 446 m 424 -15 q 294 19 344 -15 q 243 103 243 53 q 321 199 243 171 q 285 231 300 208 q 271 278 271 253 q 314 356 271 325 q 424 388 357 388 q 534 356 490 388 q 578 278 578 325 q 563 232 578 256 q 526 199 547 208 q 604 103 604 171 q 554 18 604 51 q 424 -15 504 -15 m 358 274 q 424 226 358 226 q 489 274 489 226 q 424 319 489 319 q 376 307 393 319 q 358 274 358 294 m 338 108 q 424 53 338 53 q 510 108 510 53 q 487 149 510 135 q 424 164 464 164 q 361 149 385 164 q 338 108 338 135 z "},"⅞":{"ha":856,"x_min":60,"x_max":797,"o":"m 332 600 q 378 773 333 692 q 490 899 424 854 l 254 899 l 254 978 l 600 978 l 600 899 q 475 760 514 844 q 436 600 436 676 l 332 600 m 60 446 l 60 538 l 797 538 l 797 446 l 60 446 m 424 -15 q 294 19 344 -15 q 243 103 243 53 q 321 199 243 171 q 285 231 300 208 q 271 278 271 253 q 314 356 271 325 q 424 388 357 388 q 534 356 490 388 q 578 278 578 325 q 563 232 578 256 q 526 199 547 208 q 604 103 604 171 q 554 18 604 51 q 424 -15 504 -15 m 358 274 q 424 226 358 226 q 489 274 489 226 q 424 319 489 319 q 376 307 393 319 q 358 274 358 294 m 338 108 q 424 53 338 53 q 510 108 510 53 q 487 149 510 135 q 424 164 464 164 q 361 149 385 164 q 338 108 338 135 z "},"←":{"ha":856,"x_min":56,"x_max":786,"o":"m 408 251 q 385 263 403 251 l 72 475 q 56 500 56 486 q 72 526 56 515 l 385 739 q 408 750 403 750 q 425 735 425 750 q 417 706 425 728 l 363 550 l 786 565 l 785 436 l 363 451 l 417 296 q 425 267 425 271 q 408 251 425 251 z "},"↑":{"ha":856,"x_min":179,"x_max":676,"o":"m 493 0 l 364 0 l 379 665 l 224 611 q 194 603 201 603 q 179 619 179 603 q 190 643 179 625 l 403 956 q 428 972 414 972 q 454 956 444 972 l 665 643 q 676 619 676 625 q 661 603 676 603 q 632 611 657 603 l 478 665 l 493 0 z "},"→":{"ha":856,"x_min":69,"x_max":800,"o":"m 447 251 q 431 267 431 251 q 439 296 431 271 l 493 451 l 71 436 l 69 565 l 493 550 l 439 706 q 431 735 431 728 q 447 750 431 750 q 471 739 453 750 l 783 526 q 800 500 800 517 q 783 475 800 486 l 471 263 q 447 251 453 251 z "},"↓":{"ha":856,"x_min":179,"x_max":676,"o":"m 451 14 q 428 0 443 0 q 404 14 413 0 l 185 336 q 179 351 179 347 q 185 365 179 358 q 200 372 192 372 q 214 368 206 372 l 379 311 l 364 972 l 493 972 l 478 311 l 643 368 q 656 372 649 372 q 670 366 664 372 q 676 351 676 360 q 671 336 676 343 l 451 14 z "},"↔":{"ha":1711,"x_min":157,"x_max":1556,"o":"m 1203 251 q 1186 267 1186 251 q 1194 296 1186 271 l 1246 447 l 465 447 l 518 296 q 526 267 526 271 q 510 251 526 251 q 486 263 504 251 l 172 475 q 157 500 157 485 q 172 526 157 517 l 486 739 q 510 750 504 750 q 526 735 526 750 q 518 706 526 728 l 465 553 l 1246 553 l 1194 706 q 1186 735 1186 728 q 1203 750 1186 750 q 1226 739 1208 750 l 1539 526 q 1556 500 1556 517 q 1539 475 1556 486 l 1226 263 q 1203 251 1208 251 z "},"↕":{"ha":856,"x_min":179,"x_max":676,"o":"m 428 -236 q 403 -219 414 -236 l 190 93 q 179 117 179 111 q 194 133 179 133 q 224 125 199 133 l 375 72 l 375 756 l 224 703 q 194 694 199 694 q 179 711 179 694 q 190 735 179 717 l 403 1047 q 428 1064 414 1064 q 454 1047 444 1064 l 665 735 q 676 711 676 717 q 661 694 676 694 q 632 703 654 694 l 481 756 l 481 72 l 632 125 q 661 133 654 133 q 676 117 676 133 q 665 93 676 111 l 454 -219 q 428 -236 444 -236 z "},"↖":{"ha":856,"x_min":58,"x_max":799,"o":"m 707 97 l 249 576 l 176 429 q 151 399 163 399 q 131 429 136 399 l 61 789 q 58 813 58 806 q 83 838 58 838 q 104 835 88 838 l 468 765 q 497 744 497 758 q 468 719 497 733 l 318 647 l 799 189 l 707 97 z "},"↗":{"ha":856,"x_min":58,"x_max":799,"o":"m 149 97 l 58 189 l 539 647 l 388 719 q 358 744 358 733 q 389 765 358 758 l 751 835 q 772 838 768 838 q 792 830 785 838 q 799 813 799 822 q 798 806 799 810 q 796 797 797 803 q 794 789 794 792 l 726 429 q 706 399 721 399 q 679 429 693 399 l 607 576 l 149 97 z "},"↘":{"ha":856,"x_min":58,"x_max":799,"o":"m 772 97 q 751 100 768 97 l 389 168 q 358 189 358 175 q 363 199 358 194 q 371 206 367 204 q 388 214 375 208 l 539 288 l 58 746 l 149 838 l 607 357 l 679 506 q 706 535 693 535 q 726 506 721 535 l 794 146 q 797 133 794 142 q 799 122 799 125 q 772 97 799 97 z "},"↙":{"ha":856,"x_min":58,"x_max":799,"o":"m 83 97 q 58 122 58 97 q 61 146 58 126 l 131 506 q 151 535 136 535 q 176 506 163 535 l 249 357 l 707 838 l 799 746 l 318 288 l 468 214 q 497 189 497 201 q 468 168 497 175 l 104 100 q 83 97 88 97 z "},"↨":{"ha":856,"x_min":58,"x_max":799,"o":"m 428 -150 q 403 -133 414 -150 l 190 179 q 179 203 179 197 q 194 219 179 219 q 224 211 199 219 l 375 158 l 375 756 l 224 703 q 194 694 199 694 q 179 711 179 694 q 190 735 179 717 l 403 1047 q 428 1064 414 1064 q 454 1047 444 1064 l 665 735 q 676 711 676 717 q 661 694 676 694 q 632 703 654 694 l 481 756 l 481 158 l 632 211 q 661 219 654 219 q 676 203 676 219 q 665 179 676 197 l 454 -133 q 428 -150 444 -150 m 58 -347 l 58 -242 l 799 -242 l 799 -347 l 58 -347 z "},"↳":{"ha":856,"x_min":94,"x_max":790,"o":"m 774 324 q 790 297 790 313 q 774 272 790 283 l 461 60 q 438 49 443 49 q 421 64 421 49 q 429 93 421 68 l 481 244 l 94 244 l 94 972 l 207 972 l 207 350 l 481 350 l 429 503 q 421 532 421 525 q 438 547 421 547 q 461 536 443 547 l 774 324 z "},"↴":{"ha":856,"x_min":81,"x_max":790,"o":"m 775 451 q 790 435 790 451 q 779 411 790 429 l 567 99 q 542 82 556 82 q 515 99 525 82 l 303 411 q 292 435 292 429 q 307 451 292 451 q 336 443 314 451 l 485 392 l 485 867 l 81 867 l 81 972 l 597 972 l 597 392 l 746 443 q 775 451 768 451 z "},"↵":{"ha":856,"x_min":67,"x_max":763,"o":"m 649 972 l 763 972 l 763 244 l 375 244 l 428 93 q 436 64 436 68 q 419 49 436 49 q 396 60 414 49 l 82 272 q 67 297 67 282 q 82 324 67 314 l 396 536 q 419 547 414 547 q 436 532 436 547 q 428 503 436 525 l 375 350 l 649 350 l 649 972 z "},"↶":{"ha":856,"x_min":43,"x_max":790,"o":"m 315 906 q 356 947 315 906 q 513 988 397 988 q 709 906 628 988 q 790 710 790 825 l 790 0 l 683 0 l 683 710 q 633 833 683 782 q 513 885 583 885 q 391 834 440 885 q 342 710 342 783 l 342 556 l 486 607 q 515 615 511 615 q 531 599 531 615 q 519 575 531 590 l 314 261 q 289 246 304 246 q 263 261 272 246 l 54 575 q 43 599 43 590 q 58 615 43 615 q 88 607 68 615 l 233 556 l 233 710 q 315 906 233 825 z "},"↷":{"ha":856,"x_min":65,"x_max":813,"o":"m 797 615 q 813 599 813 615 q 801 575 813 590 l 593 261 q 568 246 583 246 q 542 261 551 246 l 336 575 q 325 599 325 590 q 340 615 325 615 q 369 607 347 615 l 514 556 l 514 710 q 465 834 514 783 q 343 885 415 885 q 222 833 272 885 q 172 710 172 782 l 172 0 l 65 0 l 65 710 q 147 906 65 825 q 343 988 228 988 q 540 906 458 988 q 622 710 622 825 l 622 556 l 768 607 q 797 615 790 615 z "},"↸":{"ha":856,"x_min":58,"x_max":799,"o":"m 58 867 l 58 972 l 799 972 l 799 867 l 58 867 m 707 -8 l 249 471 l 176 324 q 151 293 163 293 q 131 324 136 293 l 61 683 q 58 707 58 700 q 65 724 58 717 q 83 732 72 732 q 104 729 88 732 l 468 660 q 497 639 497 653 q 468 614 497 628 l 318 542 l 799 83 l 707 -8 z "},"↹":{"ha":856,"x_min":83,"x_max":772,"o":"m 626 494 q 603 506 621 494 l 290 718 q 274 743 274 728 q 290 769 274 758 l 603 982 q 626 993 621 993 q 643 978 643 993 q 635 949 643 971 l 581 793 l 772 808 l 772 679 l 581 694 l 635 539 q 643 510 643 514 q 626 494 643 494 m 83 506 l 83 979 l 201 979 l 201 506 l 83 506 m 229 -299 q 213 -283 213 -299 q 221 -254 213 -279 l 275 -99 l 83 -114 l 83 15 l 275 0 l 221 156 q 213 185 213 178 q 229 200 213 200 q 253 189 235 200 l 567 -24 q 582 -50 582 -33 q 567 -75 582 -65 l 253 -287 q 229 -299 235 -299 m 654 -287 l 654 186 l 772 186 l 772 -287 l 654 -287 z "},"↺":{"ha":856,"x_min":63,"x_max":864,"o":"m 835 853 q 864 832 864 846 q 858 820 864 825 q 835 807 853 815 l 692 738 q 793 486 793 632 q 687 227 793 333 q 428 121 581 121 q 169 227 275 121 q 63 486 63 333 q 171 744 63 636 l 246 667 q 171 486 171 592 q 247 305 171 381 q 428 229 322 229 q 609 305 533 229 q 685 486 685 381 q 614 661 685 586 l 544 517 q 518 486 531 486 q 497 517 503 486 l 429 876 q 425 900 425 892 q 450 925 425 925 q 472 922 456 925 l 835 853 z "},"⇚":{"ha":856,"x_min":56,"x_max":769,"o":"m 769 590 l 376 590 l 357 532 l 769 532 l 769 469 l 357 469 l 378 410 l 769 410 l 769 347 l 399 347 l 417 296 q 425 267 425 271 q 408 251 425 251 q 385 263 403 251 l 72 475 q 56 500 56 486 q 72 526 56 515 l 385 739 q 408 750 403 750 q 425 735 425 750 q 417 706 425 728 l 399 653 l 769 653 l 769 590 z "},"⇛":{"ha":856,"x_min":88,"x_max":800,"o":"m 783 526 q 800 500 800 517 q 783 475 800 486 l 471 263 q 447 251 453 251 q 431 267 431 251 q 439 296 431 271 l 457 347 l 88 347 l 88 410 l 478 410 l 499 469 l 88 469 l 88 532 l 499 532 l 479 590 l 88 590 l 88 653 l 457 653 l 439 706 q 431 735 431 728 q 447 750 431 750 q 471 739 453 750 l 783 526 z "},"⇜":{"ha":856,"x_min":56,"x_max":786,"o":"m 736 554 l 786 554 l 786 447 l 689 447 l 679 489 l 649 349 l 575 349 l 544 489 l 513 349 l 439 349 l 417 447 l 357 447 l 410 296 q 418 267 418 271 q 401 251 418 251 q 378 263 396 251 l 72 475 q 56 500 56 486 q 72 526 56 514 l 378 739 q 401 750 396 750 q 418 735 418 750 q 410 706 418 728 l 357 554 l 463 554 l 475 490 l 507 654 l 581 654 l 613 490 l 643 654 l 717 654 l 736 554 z "},"⇝":{"ha":856,"x_min":69,"x_max":800,"o":"m 783 526 q 800 500 800 514 q 783 475 800 486 l 478 263 q 454 251 460 251 q 438 267 438 251 q 446 296 438 271 l 499 447 l 440 447 l 418 349 l 343 349 l 313 488 l 281 349 l 207 349 l 176 489 l 167 447 l 69 447 l 69 554 l 119 554 l 139 654 l 213 654 l 244 490 l 275 654 l 350 654 l 381 490 l 393 554 l 499 554 l 446 706 q 438 735 438 728 q 454 750 438 750 q 478 739 460 750 l 783 526 z "},"⇞":{"ha":856,"x_min":179,"x_max":676,"o":"m 632 611 l 483 663 l 483 472 l 663 472 l 663 379 l 483 379 l 483 257 l 663 257 l 663 163 l 483 163 l 483 0 l 372 0 l 372 163 l 193 163 l 193 257 l 372 257 l 372 379 l 193 379 l 193 472 l 372 472 l 372 663 l 224 611 q 194 603 201 603 q 179 619 179 603 q 190 643 179 625 l 403 956 q 428 972 414 972 q 454 956 444 972 l 665 643 q 676 619 676 625 q 661 603 676 603 q 632 611 657 603 z "},"⇟":{"ha":856,"x_min":179,"x_max":676,"o":"m 661 369 q 676 353 676 369 q 665 329 676 347 l 454 17 q 428 0 444 0 q 403 17 414 0 l 190 329 q 179 353 179 347 q 194 369 179 369 q 224 361 201 369 l 372 310 l 372 500 l 193 500 l 193 594 l 372 594 l 372 717 l 193 717 l 193 810 l 372 810 l 372 972 l 483 972 l 483 810 l 663 810 l 663 717 l 483 717 l 483 594 l 663 594 l 663 500 l 483 500 l 483 310 l 632 361 q 661 369 657 369 z "},"⇠":{"ha":856,"x_min":56,"x_max":786,"o":"m 408 251 q 385 263 403 251 l 72 475 q 56 500 56 486 q 72 526 56 514 l 385 738 q 408 749 400 749 q 425 733 425 749 q 417 704 425 726 l 365 557 l 450 557 l 450 444 l 365 444 l 417 296 q 425 267 425 271 q 408 251 425 251 m 532 444 l 532 557 l 618 557 l 618 444 l 532 444 m 700 444 l 700 557 l 786 557 l 786 444 l 700 444 z "},"⇡":{"ha":856,"x_min":179,"x_max":676,"o":"m 372 513 l 372 663 l 224 611 q 194 603 201 603 q 179 619 179 603 q 190 643 179 625 l 403 956 q 428 972 414 972 q 454 956 444 972 l 665 643 q 676 619 676 625 q 661 603 676 603 q 632 611 657 603 l 483 663 l 483 513 l 372 513 m 372 257 l 372 410 l 483 410 l 483 257 l 372 257 m 372 0 l 372 154 l 483 154 l 483 0 l 372 0 z "},"⇢":{"ha":856,"x_min":69,"x_max":800,"o":"m 447 251 q 431 267 431 251 q 439 296 431 271 l 490 444 l 406 444 l 406 557 l 490 557 l 439 704 q 431 733 431 726 q 447 749 431 749 q 471 738 456 749 l 783 526 q 800 500 800 514 q 783 475 800 486 l 471 263 q 447 251 453 251 m 69 444 l 69 557 l 156 557 l 156 444 l 69 444 m 238 444 l 238 557 l 324 557 l 324 444 l 238 444 z "},"⇣":{"ha":856,"x_min":179,"x_max":676,"o":"m 372 819 l 372 972 l 483 972 l 483 819 l 372 819 m 372 563 l 372 717 l 483 717 l 483 563 l 372 563 m 428 0 q 403 17 414 0 l 190 329 q 179 353 179 347 q 194 369 179 369 q 224 361 201 369 l 372 310 l 372 460 l 483 460 l 483 310 l 632 361 q 661 369 657 369 q 676 353 676 369 q 665 329 676 347 l 454 17 q 428 0 444 0 z "},"⇤":{"ha":856,"x_min":83,"x_max":772,"o":"m 83 144 l 83 854 l 201 854 l 201 144 l 83 144 m 626 251 q 603 263 621 251 l 290 475 q 274 500 274 486 q 290 526 274 515 l 603 739 q 626 750 621 750 q 643 735 643 750 q 635 706 643 728 l 581 550 l 772 565 l 772 436 l 581 451 l 635 296 q 643 267 643 271 q 626 251 643 251 z "},"⇥":{"ha":856,"x_min":83,"x_max":772,"o":"m 654 144 l 654 854 l 772 854 l 772 144 l 654 144 m 229 251 q 213 267 213 251 q 221 296 213 271 l 275 451 l 83 436 l 83 565 l 275 550 l 221 706 q 213 735 213 728 q 229 750 213 750 q 253 739 235 750 l 567 526 q 582 500 582 517 q 567 475 582 485 l 253 263 q 229 251 235 251 z "},"∀":{"ha":856,"x_min":56,"x_max":800,"o":"m 675 972 l 800 972 l 478 0 l 376 0 l 56 972 l 183 972 l 257 733 l 600 733 l 675 972 m 453 271 l 565 626 l 290 626 l 401 271 q 426 176 421 210 q 453 271 436 217 z "},"∁":{"ha":856,"x_min":78,"x_max":786,"o":"m 458 -15 q 308 9 375 -15 q 199 74 240 33 q 128 167 157 114 q 89 276 100 221 q 78 389 78 331 l 78 585 q 89 698 78 643 q 128 806 100 753 q 199 900 157 860 q 308 965 240 940 q 458 989 375 989 q 694 899 601 989 q 786 674 786 810 l 664 674 q 606 818 664 763 q 458 874 549 874 q 266 797 332 874 q 200 585 200 721 l 200 389 q 266 177 200 253 q 458 101 332 101 q 606 156 549 101 q 664 300 664 211 l 786 300 q 694 74 786 164 q 458 -15 601 -15 z "},"∂":{"ha":856,"x_min":88,"x_max":767,"o":"m 385 -17 q 169 61 250 -17 q 88 264 88 139 q 186 512 88 417 q 419 607 285 607 q 650 482 574 607 q 651 546 653 526 q 554 790 644 710 q 331 878 464 871 l 358 989 q 670 835 574 965 q 767 463 767 704 q 745 282 767 365 q 680 131 724 199 q 560 23 636 63 q 385 -17 485 -17 m 383 97 q 555 156 492 97 q 618 314 618 215 q 426 492 618 492 q 267 436 326 492 q 208 286 208 381 q 257 148 208 199 q 383 97 306 97 z "},"∃":{"ha":856,"x_min":124,"x_max":740,"o":"m 124 0 l 124 115 l 619 115 l 619 365 l 124 365 l 124 481 l 619 481 l 619 726 l 124 726 l 124 842 l 740 842 l 740 0 l 124 0 z "},"∄":{"ha":856,"x_min":124,"x_max":740,"o":"m 740 842 l 740 0 l 313 0 l 281 -94 l 171 -94 l 203 0 l 124 0 l 124 115 l 243 115 l 328 365 l 124 365 l 124 481 l 367 481 l 451 726 l 124 726 l 124 842 l 490 842 l 522 935 l 632 935 l 600 842 l 740 842 m 619 481 l 619 726 l 561 726 l 476 481 l 619 481 m 619 115 l 619 365 l 438 365 l 353 115 l 619 115 z "},"∅":{"ha":856,"x_min":0,"x_max":856,"o":"m 717 801 q 856 485 856 672 q 729 183 856 308 q 426 57 603 57 q 229 106 324 57 l 156 0 l 21 0 l 139 169 q 0 485 0 297 q 125 788 0 663 q 426 914 250 914 q 626 864 533 914 l 701 972 l 836 972 l 717 801 m 121 485 q 208 268 121 358 l 557 767 q 426 796 494 796 q 210 705 300 796 q 121 485 121 614 m 426 175 q 644 266 554 175 q 735 485 735 357 q 647 701 735 611 l 299 204 q 426 175 357 175 z "},"∆":{"ha":856,"x_min":38,"x_max":818,"o":"m 38 0 l 378 972 l 476 972 l 818 0 l 38 0 m 200 113 l 657 113 l 447 721 q 428 786 431 775 q 407 719 414 739 l 200 113 z "},"∇":{"ha":856,"x_min":38,"x_max":818,"o":"m 38 972 l 818 972 l 476 0 l 378 0 l 38 972 m 200 860 l 407 253 q 428 186 414 233 q 447 251 431 197 l 657 860 l 200 860 z "},"∈":{"ha":856,"x_min":78,"x_max":764,"o":"m 446 599 q 276 549 342 599 q 201 411 211 500 l 764 411 l 764 300 l 201 300 q 276 160 211 210 q 446 111 342 111 l 764 111 l 764 0 l 450 0 q 181 94 285 0 q 78 343 78 189 l 78 369 q 181 616 78 522 q 450 710 285 710 l 764 710 l 764 599 l 446 599 z "},"∉":{"ha":856,"x_min":78,"x_max":764,"o":"m 764 599 l 629 599 l 565 411 l 764 411 l 764 300 l 528 300 l 463 111 l 764 111 l 764 0 l 450 0 l 425 0 l 381 -131 l 271 -131 l 321 18 q 143 137 208 51 q 78 343 78 222 l 78 369 q 181 616 78 522 q 450 710 285 710 l 557 710 l 603 844 l 713 844 l 667 710 l 764 710 l 764 599 m 456 411 l 519 599 l 446 599 q 276 549 342 599 q 201 411 211 500 l 456 411 m 357 122 l 418 300 l 201 300 q 249 186 208 232 q 357 122 290 140 z "},"∊":{"ha":856,"x_min":69,"x_max":771,"o":"m 378 493 q 188 353 206 493 l 771 353 l 771 247 l 188 247 q 378 106 207 106 l 771 106 l 771 0 l 385 0 q 154 79 239 0 q 69 290 69 158 l 69 313 q 154 520 69 442 q 385 599 239 599 l 771 599 l 771 493 l 378 493 z "},"∋":{"ha":856,"x_min":88,"x_max":774,"o":"m 401 710 q 670 616 567 710 q 774 369 774 522 l 774 343 q 670 94 774 189 q 401 0 567 0 l 88 0 l 88 111 l 406 111 q 575 160 510 111 q 650 300 640 210 l 88 300 l 88 411 l 650 411 q 575 549 640 500 q 406 599 510 599 l 88 599 l 88 710 l 401 710 z "},"∌":{"ha":856,"x_min":94,"x_max":781,"o":"m 535 693 q 715 576 649 661 q 781 369 781 490 l 781 343 q 677 94 781 189 q 408 0 574 0 l 300 0 l 256 -131 l 146 -131 l 190 0 l 94 0 l 94 111 l 228 111 l 292 300 l 94 300 l 94 411 l 329 411 l 393 599 l 94 599 l 94 710 l 408 710 l 431 710 l 474 835 l 583 835 l 535 693 m 500 589 l 439 411 l 657 411 q 500 589 642 551 m 413 111 q 582 160 517 111 q 657 300 647 210 l 401 300 l 338 111 l 413 111 z "},"∍":{"ha":856,"x_min":85,"x_max":786,"o":"m 471 599 q 701 520 617 599 q 786 313 786 442 l 786 290 q 701 79 786 158 q 471 0 617 0 l 85 0 l 85 106 l 478 106 q 668 247 649 106 l 85 247 l 85 353 l 668 353 q 478 493 650 493 l 85 493 l 85 599 l 471 599 z "},"∎":{"ha":856,"x_min":147,"x_max":692,"o":"m 147 0 l 147 710 l 692 710 l 692 0 l 147 0 z "},"∏":{"ha":856,"x_min":64,"x_max":792,"o":"m 671 -194 l 671 856 l 183 856 l 183 -194 l 64 -194 l 64 972 l 792 972 l 792 -194 l 671 -194 z "},"∐":{"ha":856,"x_min":64,"x_max":792,"o":"m 671 972 l 792 972 l 792 -194 l 64 -194 l 64 972 l 183 972 l 183 -78 l 671 -78 l 671 972 z "},"∑":{"ha":856,"x_min":63,"x_max":793,"o":"m 63 -196 l 63 -93 l 424 401 l 82 867 l 82 971 l 765 971 l 765 857 l 236 857 l 571 403 l 217 -81 l 793 -81 l 793 -196 l 63 -196 z "},"−":{"ha":856,"x_min":101,"x_max":754,"o":"m 101 418 l 101 533 l 754 533 l 754 418 l 101 418 z "},"∓":{"ha":856,"x_min":101,"x_max":754,"o":"m 101 710 l 101 825 l 754 825 l 754 710 l 101 710 m 488 268 l 488 0 l 367 0 l 367 268 l 101 268 l 101 383 l 367 383 l 367 653 l 488 653 l 488 383 l 754 383 l 754 268 l 488 268 z "},"∔":{"ha":856,"x_min":101,"x_max":754,"o":"m 495 776 q 482 761 495 776 q 428 747 468 747 q 360 776 388 747 q 333 842 333 804 q 360 908 333 881 q 428 936 388 936 q 495 908 468 936 q 522 842 522 881 q 495 776 522 804 m 488 268 l 488 0 l 367 0 l 367 268 l 101 268 l 101 383 l 367 383 l 367 653 l 488 653 l 488 383 l 754 383 l 754 268 l 488 268 z "},"∕":{"ha":856,"x_min":36,"x_max":819,"o":"m 36 -17 l 700 989 l 819 989 l 156 -17 l 36 -17 z "},"∖":{"ha":856,"x_min":36,"x_max":819,"o":"m 700 -17 l 36 989 l 156 989 l 819 -17 l 700 -17 z "},"∗":{"ha":856,"x_min":108,"x_max":749,"o":"m 306 172 l 211 232 l 296 371 l 372 449 l 264 426 l 108 426 l 108 539 l 264 539 l 372 515 l 296 594 l 211 733 l 307 793 l 396 649 l 428 544 l 460 649 l 549 793 l 644 733 l 560 594 l 483 515 l 592 539 l 749 539 l 749 426 l 592 426 l 483 449 l 560 371 l 644 232 l 549 172 l 460 317 l 428 419 l 396 317 l 306 172 z "},"∘":{"ha":856,"x_min":257,"x_max":600,"o":"m 549 368 q 523 343 549 368 q 428 318 497 318 q 308 368 358 318 q 257 488 257 418 q 308 606 257 557 q 428 656 358 656 q 549 606 499 656 q 600 488 600 557 q 549 368 600 418 m 428 407 q 481 430 460 407 q 503 488 503 453 q 481 544 503 522 q 428 567 460 567 q 375 544 397 567 q 353 488 353 522 q 375 431 353 454 q 428 407 397 407 z "},"∙":{"ha":856,"x_min":333,"x_max":522,"o":"m 495 419 q 482 405 495 419 q 428 390 468 390 q 360 419 388 390 q 333 485 333 447 q 360 551 333 522 q 428 579 388 579 q 495 551 468 579 q 522 485 522 522 q 495 419 522 447 z "},"√":{"ha":856,"x_min":72,"x_max":796,"o":"m 392 0 l 204 361 l 122 319 l 72 417 l 258 511 l 435 169 l 672 972 l 796 972 l 500 0 l 392 0 z "},"∛":{"ha":856,"x_min":72,"x_max":796,"o":"m 314 585 q 121 689 175 585 l 211 719 q 319 660 243 660 q 373 676 353 660 q 393 715 393 692 q 319 757 393 757 l 275 757 l 275 831 l 307 831 q 356 839 342 831 q 371 869 371 847 q 355 901 371 888 q 311 914 339 914 q 218 860 251 914 l 133 886 q 204 959 156 931 q 313 988 253 988 q 428 958 385 988 q 472 878 472 928 q 452 827 472 849 q 406 800 432 806 q 494 708 494 785 q 447 620 494 656 q 314 585 399 585 m 392 0 l 204 361 l 122 319 l 72 417 l 258 511 l 435 169 l 672 972 l 796 972 l 500 0 l 392 0 z "},"∜":{"ha":856,"x_min":72,"x_max":796,"o":"m 338 601 l 338 681 l 92 681 l 92 738 l 343 979 l 435 979 l 435 758 l 508 758 l 508 681 l 435 681 l 435 601 l 338 601 m 392 0 l 204 361 l 122 319 l 72 417 l 258 511 l 435 169 l 672 972 l 796 972 l 500 0 l 392 0 m 338 758 l 338 878 l 217 758 l 338 758 z "},"∝":{"ha":856,"x_min":76,"x_max":783,"o":"m 783 650 q 710 609 742 650 q 636 483 678 568 q 681 398 664 428 q 726 342 699 368 q 783 317 754 317 l 783 196 q 674 242 721 196 q 579 372 626 289 q 479 249 533 293 q 350 204 425 204 q 157 283 238 204 q 76 483 76 363 q 157 684 76 604 q 350 764 238 764 q 479 719 425 764 q 579 596 533 675 q 672 726 624 679 q 783 772 721 772 l 783 650 m 347 313 q 438 357 397 313 q 521 483 478 401 q 436 612 475 568 q 347 656 397 656 q 242 607 286 656 q 199 483 199 558 q 242 361 199 410 q 347 313 286 313 z "},"∞":{"ha":856,"x_min":13,"x_max":842,"o":"m 610 814 q 772 726 703 814 q 842 492 842 639 q 774 260 842 347 q 624 172 707 172 q 517 219 556 172 q 440 363 479 267 q 358 222 404 271 q 240 172 313 172 q 83 260 153 172 q 13 492 13 347 q 81 726 13 638 q 238 814 150 814 q 323 781 286 814 q 374 717 360 747 q 417 614 389 688 q 419 609 418 611 q 421 603 419 607 q 424 597 422 600 q 504 760 464 706 q 610 814 544 814 m 247 281 q 317 327 290 281 q 386 490 344 374 q 371 526 381 501 q 356 562 361 550 q 341 594 350 574 q 326 624 332 614 q 311 650 319 635 q 296 673 303 665 q 281 689 289 681 q 264 701 272 697 q 247 704 256 704 q 169 645 206 704 q 132 492 132 586 q 169 340 132 399 q 247 281 206 281 m 607 281 q 685 340 649 281 q 722 492 722 399 q 685 644 722 585 q 607 704 649 704 q 572 690 588 704 q 540 640 556 676 q 515 581 524 604 q 488 501 506 557 q 483 490 485 494 q 480 480 482 486 q 476 468 478 474 q 489 437 481 457 q 501 406 497 417 q 513 378 506 394 q 526 351 521 361 q 540 328 532 340 q 554 308 547 315 q 569 294 561 301 q 588 283 578 286 q 607 281 597 281 z "},"∟":{"ha":856,"x_min":86,"x_max":810,"o":"m 86 0 l 86 842 l 206 842 l 206 117 l 810 117 l 810 0 l 86 0 z "},"∠":{"ha":856,"x_min":54,"x_max":799,"o":"m 278 117 l 799 117 l 799 0 l 54 0 l 636 803 l 735 739 l 278 117 z "},"∡":{"ha":856,"x_min":54,"x_max":799,"o":"m 799 117 l 799 0 l 697 0 q 674 -140 693 -64 l 567 -112 q 586 0 582 -50 l 54 0 l 376 444 q 251 507 319 482 l 288 610 q 442 535 372 581 l 636 803 l 735 739 l 532 463 q 696 117 676 322 l 799 117 m 585 117 q 465 372 565 265 l 278 117 l 585 117 z "},"∢":{"ha":856,"x_min":44,"x_max":779,"o":"m 749 526 q 688 275 749 396 l 779 226 l 717 121 l 624 171 q 539 76 582 118 l 463 154 q 525 224 496 186 l 44 485 l 561 776 q 513 846 540 811 l 599 915 q 658 832 638 867 l 717 864 l 779 765 l 711 726 q 749 526 749 629 m 288 489 l 590 328 q 636 524 636 424 q 611 671 636 597 l 288 489 z "},"∣":{"ha":856,"x_min":368,"x_max":488,"o":"m 368 0 l 368 972 l 488 972 l 488 0 l 368 0 z "},"∤":{"ha":856,"x_min":164,"x_max":688,"o":"m 688 578 l 488 440 l 488 0 l 368 0 l 368 358 l 228 263 l 164 356 l 368 496 l 368 972 l 488 972 l 488 578 l 624 671 l 688 578 z "},"∥":{"ha":856,"x_min":256,"x_max":600,"o":"m 256 0 l 256 972 l 375 972 l 375 0 l 256 0 m 481 0 l 481 972 l 600 972 l 600 0 l 481 0 z "},"∦":{"ha":856,"x_min":47,"x_max":811,"o":"m 811 676 l 600 540 l 600 0 l 481 0 l 481 464 l 375 396 l 375 0 l 256 0 l 256 319 l 108 225 l 47 321 l 256 456 l 256 972 l 375 972 l 375 532 l 481 600 l 481 972 l 600 972 l 600 676 l 750 774 l 811 676 z "},"∧":{"ha":856,"x_min":86,"x_max":769,"o":"m 86 0 l 385 613 l 471 613 l 769 0 l 640 0 l 428 447 l 215 0 l 86 0 z "},"∨":{"ha":856,"x_min":86,"x_max":769,"o":"m 86 613 l 215 613 l 428 165 l 640 613 l 769 613 l 471 0 l 385 0 l 86 613 z "},"∩":{"ha":856,"x_min":90,"x_max":765,"o":"m 90 0 l 90 419 q 186 644 90 561 q 428 726 282 726 q 669 644 572 726 q 765 419 765 561 l 765 0 l 647 0 l 647 413 q 588 559 647 506 q 428 613 528 613 q 268 560 328 613 q 208 413 208 507 l 208 0 l 90 0 z "},"∪":{"ha":856,"x_min":81,"x_max":775,"o":"m 676 68 q 627 26 676 68 q 428 -17 578 -17 q 179 68 278 -17 q 81 300 81 153 l 81 710 l 199 710 l 199 307 q 261 153 199 210 q 428 97 324 97 q 595 153 533 97 q 657 307 657 208 l 657 710 l 775 710 l 775 300 q 676 68 775 153 z "},"∫":{"ha":856,"x_min":196,"x_max":658,"o":"m 333 -194 q 196 -162 257 -194 l 196 -72 q 297 -93 258 -93 q 368 -19 368 -93 l 368 828 q 521 989 368 989 q 658 956 596 989 l 658 864 q 557 888 596 888 q 488 811 488 888 l 488 -33 q 333 -194 488 -194 z "},"∬":{"ha":856,"x_min":1,"x_max":854,"o":"m 139 -194 q 1 -162 63 -194 l 1 -72 q 103 -93 64 -93 q 174 -19 174 -93 l 174 828 q 326 989 174 989 q 464 956 401 989 l 464 864 q 363 888 401 888 q 293 811 293 888 l 293 -33 q 139 -194 293 -194 m 529 -194 q 392 -162 453 -194 l 392 -72 q 493 -93 454 -93 q 564 -19 564 -93 l 564 828 q 717 989 564 989 q 854 956 792 989 l 854 864 q 753 888 792 888 q 683 811 683 888 l 683 -33 q 529 -194 683 -194 z "},"∭":{"ha":1711,"x_min":201,"x_max":1508,"o":"m 339 -194 q 201 -162 263 -194 l 201 -72 q 303 -93 264 -93 q 374 -19 374 -93 l 374 828 q 526 989 374 989 q 664 956 601 989 l 664 864 q 563 888 601 888 q 493 811 493 888 l 493 -33 q 339 -194 493 -194 m 761 -194 q 624 -162 685 -194 l 624 -72 q 725 -93 686 -93 q 796 -19 796 -93 l 796 828 q 949 989 796 989 q 1086 956 1024 989 l 1086 864 q 985 888 1024 888 q 915 811 915 888 l 915 -33 q 761 -194 915 -194 m 1183 -194 q 1046 -162 1107 -194 l 1046 -72 q 1147 -93 1108 -93 q 1218 -19 1218 -93 l 1218 828 q 1371 989 1218 989 q 1508 956 1446 989 l 1508 864 q 1407 888 1446 888 q 1338 811 1338 888 l 1338 -33 q 1183 -194 1338 -194 z "},"∮":{"ha":856,"x_min":88,"x_max":768,"o":"m 688 614 q 728 567 688 614 q 768 394 768 519 q 688 175 768 269 q 488 60 608 81 l 488 -33 q 333 -194 488 -194 q 196 -162 257 -194 l 196 -72 q 297 -93 258 -93 q 368 -19 368 -93 l 368 60 q 167 175 247 81 q 88 394 88 269 q 167 614 88 519 q 368 729 247 708 l 368 828 q 521 989 368 989 q 658 956 596 989 l 658 864 q 557 888 596 888 q 488 811 488 888 l 488 729 q 688 614 608 708 m 251 531 q 228 501 251 531 q 206 394 206 471 q 251 258 206 318 q 368 179 297 199 l 368 610 q 251 531 297 590 m 488 179 q 604 258 558 199 q 650 394 650 318 q 604 531 650 471 q 488 610 558 590 l 488 179 z "},"∯":{"ha":1711,"x_min":363,"x_max":1347,"o":"m 1290 536 q 1319 510 1290 536 q 1347 396 1347 483 q 1290 256 1347 308 q 1111 181 1233 203 l 1111 -33 q 957 -194 1111 -194 q 819 -162 881 -194 l 819 -72 q 921 -93 882 -93 q 992 -19 992 -93 l 992 165 q 856 161 929 161 q 721 165 783 161 l 721 -33 q 567 -194 721 -194 q 429 -162 490 -194 l 429 -72 q 531 -93 492 -93 q 601 -19 601 -93 l 601 179 q 420 254 478 201 q 363 396 363 307 q 420 536 363 483 q 601 611 478 589 l 601 828 q 754 989 601 989 q 892 956 829 989 l 892 864 q 790 888 829 888 q 721 811 721 888 l 721 625 q 856 629 783 629 q 992 625 929 629 l 992 828 q 1144 989 992 989 q 1282 956 1219 989 l 1282 864 q 1181 888 1219 888 q 1111 811 1111 888 l 1111 611 q 1290 536 1233 589 m 856 278 q 992 282 933 278 l 992 508 q 856 513 933 513 q 721 508 779 513 l 721 282 q 856 278 779 278 m 481 396 q 601 296 481 322 l 601 494 q 481 396 481 468 m 1111 297 q 1229 396 1229 322 q 1111 493 1229 468 l 1111 297 z "}}}
